<?xml version="1.0" encoding="UTF-8"?>
<svg id="Layer_1" data-name="Layer 1" xmlns="http://www.w3.org/2000/svg" viewBox="0 0 44 48">
  <defs>
    <style>
      .cls-1 {
        fill: #f1b03d;
        stroke-width: 0px;
      }
    </style>
  </defs>
  <path class="cls-1" d="M43,0H1C.45,0,0,.45,0,1s.45,1,1,1h1.33l3.72,37.88c.46,4.63,4.31,8.12,8.96,8.12h14.1c4.65,0,8.5-3.49,8.96-8.12l3.72-37.88h1.22c.55,0,1-.45,1-1s-.45-1-1-1ZM36.07,39.68s-.02.08-.02.12l-5.45-5.45,5.68-5.68.8.8-1,10.22h0ZM14.87,18.64l-5.68-5.68,5.68-5.68,5.68,5.68-5.68,5.68ZM21.97,14.37l5.75,5.75-5.68,5.68-5.75-5.75,5.68-5.68ZM13.46,20.05l-5.73,5.73-1.18-1.18-.81-8.21,2.02-2.02,5.68,5.68h0ZM5.5,13.82l-.19-1.91,1.05,1.05-.86.86h0ZM8.04,39.68l-1.02-10.37.71-.71,5.75,5.75-5.43,5.43s-.02-.06-.02-.1h0ZM9.15,27.19l5.73-5.73,5.75,5.75-5.73,5.73s-5.75-5.75-5.75-5.75ZM22.04,28.63l5.73,5.73-5.73,5.73-5.73-5.73s5.73-5.73,5.73-5.73ZM23.45,27.21l5.68-5.68,5.73,5.73-5.68,5.68-5.73-5.73ZM38.6,13.91l-.92-.92,1.12-1.12-.2,2.05h0ZM38.35,16.49l-.79,8.08-1.28,1.28-5.73-5.73,5.71-5.71s2.08,2.08,2.08,2.08ZM29.14,18.7l-5.75-5.75,5.71-5.71,5.75,5.75s-5.71,5.71-5.71,5.71ZM21.97,11.54l-5.68-5.68,3.85-3.85h3.72l3.82,3.82-5.71,5.71h0ZM14.87,4.44l-2.44-2.44h4.88s-2.44,2.44-2.44,2.44ZM26.69,2h4.82l-2.41,2.41-2.41-2.41h0ZM9.61,2l3.85,3.85-5.68,5.68-2.77-2.77-.66-6.76h5.27ZM8.68,41.97s.02,0,.03-.02l6.19-6.19,5.73,5.73-4.51,4.51h-1.11c-2.79,0-5.2-1.63-6.32-4.03h0ZM22.04,42.91l3.09,3.09h-6.19l3.09-3.09h0ZM29.1,46h-1.14l-4.51-4.51,5.73-5.73,6.24,6.24c-1.13,2.38-3.53,4-6.31,4ZM39.11,8.73l-2.85,2.85-5.75-5.75,3.82-3.82h5.43l-.66,6.73Z"/>
</svg>