<svg width="25" height="24" viewBox="0 0 25 24" fill="none" xmlns="http://www.w3.org/2000/svg">
<g clip-path="url(#clip0_80_351)">
<path d="M19.5 0H5.50002C2.73997 0.00332812 0.503328 2.23997 0.5 5.00002V19C0.503328 21.76 2.73997 23.9967 5.50002 24H19.5C22.26 23.9967 24.4967 21.76 24.5 19V5.00002C24.4967 2.23997 22.26 0.00332812 19.5 0ZM20.5 8.079L11.246 17.333C10.4651 18.1142 9.19878 18.1145 8.41756 17.3336C8.41738 17.3334 8.41719 17.3332 8.417 17.333L4.49998 13.417C4.10867 13.0257 4.10867 12.3913 4.49998 12C4.8913 11.6088 5.5257 11.6087 5.91697 12L9.83295 15.916L19.088 6.66202C19.4793 6.27211 20.1125 6.27323 20.5025 6.6645C20.8924 7.05581 20.8913 7.68909 20.5 8.079Z" fill="#D39F5D"/>
</g>
<defs>
<clipPath id="clip0_80_351">
<rect width="24" height="24" fill="white" transform="translate(0.5)"/>
</clipPath>
</defs>
</svg>
