<?xml version="1.0" encoding="UTF-8"?>
<svg id="Layer_1" data-name="Layer 1" xmlns="http://www.w3.org/2000/svg" xmlns:xlink="http://www.w3.org/1999/xlink" version="1.1" viewBox="0 0 32 32">
  <defs>
    <style>
      .cls-1 {
        clip-path: url(#clippath);
      }

      .cls-2 {
        fill: none;
      }

      .cls-2, .cls-3, .cls-4 {
        stroke-width: 0px;
      }

      .cls-3 {
        fill: #697878;
      }

      .cls-5 {
        clip-path: url(#clippath-1);
      }

      .cls-4 {
        fill: #f1efed;
      }
    </style>
    <clipPath id="clippath">
      <circle class="cls-2" cx="16" cy="16" r="16"/>
    </clipPath>
    <clipPath id="clippath-1">
      <rect class="cls-2" x="6" y="4.4" width="19.8" height="26.5"/>
    </clipPath>
  </defs>
  <g class="cls-1">
    <circle class="cls-3" cx="16" cy="16" r="16"/>
    <g class="cls-5">
      <path class="cls-4" d="M9.2,11.1c0-3.7,3-6.6,6.6-6.6s6.6,3,6.6,6.6-3,6.6-6.6,6.6-6.6-3-6.6-6.6ZM10.4,11.1c0,3.1,2.5,5.5,5.5,5.5s5.5-2.5,5.5-5.5-2.5-5.5-5.5-5.5-5.5,2.5-5.5,5.5ZM15.9,19.9c-5.5,0-9.9,4.5-9.9,9.9v.6c0,.3.2.6.6.6s.6-.2.6-.6v-.6c0-4.9,4-8.8,8.8-8.8s8.8,4,8.8,8.8v.6c0,.3.2.6.6.6s.6-.2.6-.6v-.6c0-5.5-4.5-9.9-9.9-9.9Z"/>
    </g>
  </g>
</svg>