<?xml version="1.0" encoding="UTF-8"?>
<svg id="Layer_1" data-name="Layer 1" xmlns="http://www.w3.org/2000/svg" viewBox="0 0 48 48">
  <defs>
    <style>
      .cls-1 {
        fill: #f1b03d;
        stroke-width: 0px;
      }
    </style>
  </defs>
  <path class="cls-1" d="M24,0C10.77,0,0,10.77,0,24s10.77,24,24,24,24-10.77,24-24S37.23,0,24,0ZM24,46c-12.13,0-22-9.87-22-22S11.87,2,24,2s22,9.87,22,22-9.87,22-22,22ZM29,14h-10c-2.76,0-5,2.24-5,5v10c0,2.76,2.24,5,5,5h10c2.76,0,5-2.24,5-5v-10c0-2.76-2.24-5-5-5ZM32,29c0,1.65-1.35,3-3,3h-10c-1.65,0-3-1.35-3-3v-10c0-1.65,1.35-3,3-3h10c1.65,0,3,1.35,3,3v10Z"/>
</svg>