<?xml version="1.0" encoding="UTF-8"?>
<svg id="Layer_1" data-name="Layer 1" xmlns="http://www.w3.org/2000/svg" viewBox="0 0 48 48">
  <defs>
    <style>
      .cls-1 {
        fill: #f1b03d;
        stroke-width: 0px;
      }
    </style>
  </defs>
  <path class="cls-1" d="M39,8h-3.06c-.5-4.49-4.32-8-8.94-8H9C4.04,0,0,4.04,0,9v27.71c0,1.22.67,2.33,1.74,2.91.49.26,1.02.39,1.56.39.64,0,1.27-.19,1.83-.55l7.05-4.7c.82,4.13,4.47,7.25,8.83,7.25h13.7l8.18,5.45c.55.37,1.19.55,1.83.55.53,0,1.07-.13,1.56-.39,1.07-.58,1.74-1.69,1.74-2.91v-27.71c0-4.96-4.04-9-9-9h0ZM4.01,37.79c-.4.27-.9.29-1.33.06-.43-.23-.68-.66-.68-1.14V9c0-3.86,3.14-7,7-7h18c3.86,0,7,3.14,7,7v16c0,3.86-3.14,7-7,7h-14c-.35,0-.56.17-.56.17l-8.42,5.61h0ZM46,44.71c0,.49-.26.91-.68,1.14-.43.23-.92.21-1.33-.06l-8.43-5.62c-.16-.11-.36-.17-.55-.17h-14c-3.52,0-6.44-2.61-6.93-6h12.93c4.96,0,9-4.04,9-9v-15h3c3.86,0,7,3.14,7,7v27.71h0ZM12.02,10.8c.64-3.16,3.8-5.28,7.06-4.71,2.42.42,4.4,2.41,4.83,4.83.45,2.55-.76,5.09-3.01,6.34-1.43.79-1.89,1.33-1.89,2.24,0,.55-.45,1-1,1s-1-.45-1-1c0-2.38,1.91-3.43,2.93-3.99,1.52-.84,2.31-2.5,2.01-4.24-.28-1.61-1.6-2.92-3.2-3.2-2.2-.38-4.33,1.02-4.75,3.13-.11.54-.64.89-1.18.78-.54-.11-.89-.64-.78-1.18h0ZM20,26c0,1.1-.9,2-2,2s-2-.9-2-2,.9-2,2-2,2,.9,2,2Z"/>
</svg>