<svg width="24" height="25" viewBox="0 0 24 25" fill="none" xmlns="http://www.w3.org/2000/svg">
<g clip-path="url(#clip0_301_24970)">
<path d="M4.96977 18.32C3.86977 18.32 3.47977 17.64 3.47977 17V16.53C3.13977 16.48 2.80977 16.42 2.50977 16.33C2.02977 16.2 1.61977 16.04 1.26977 15.85C0.889766 15.64 0.599766 15.41 0.389766 15.15C0.139766 14.84 0.00976562 14.51 0.00976562 14.16C0.00976562 13.77 0.139766 13.41 0.389766 13.14C0.609766 12.9 0.859766 12.73 1.15977 12.63L1.53977 12.49L1.81977 12.77C1.94977 12.9 2.10977 13.03 2.29977 13.17C2.48977 13.3 2.70977 13.43 2.95977 13.55C3.20977 13.66 3.49977 13.76 3.81977 13.83C4.12977 13.9 4.47977 13.94 4.86977 13.94C5.63977 13.94 6.20977 13.78 6.55977 13.46C6.89977 13.16 7.05977 12.79 7.05977 12.3C7.05977 11.89 6.93976 11.58 6.69977 11.34C6.40977 11.05 5.90977 10.8 5.21977 10.6L3.40977 10.06C2.41977 9.77 1.62977 9.32 1.04977 8.73C0.419766 8.1 0.0997656 7.25 0.0997656 6.21C0.0997656 5.1 0.469766 4.19 1.19977 3.48C1.78977 2.91 2.54977 2.52 3.47977 2.32V0.780001L3.87977 0.620001C3.98977 0.580001 4.11977 0.540001 4.28977 0.510001C4.43977 0.480001 4.61977 0.470001 4.80977 0.470001C5.88977 0.470001 6.27977 1.15 6.27977 1.79V2.25C6.56977 2.29 6.84977 2.35 7.11977 2.42C7.55977 2.53 7.95977 2.68 8.28977 2.84C8.64977 3.02 8.93976 3.23 9.15977 3.47C9.43976 3.77 9.57977 4.1 9.57977 4.44C9.57977 4.77 9.48977 5.06 9.31977 5.3C9.16977 5.52 8.96976 5.7 8.72976 5.83L8.36977 6.03L8.03977 5.78C7.72977 5.54 7.31977 5.33 6.79977 5.14C6.29977 4.96 5.71977 4.87 5.08977 4.87C4.40977 4.87 3.88977 5 3.53977 5.27C3.23977 5.5 3.09977 5.8 3.09977 6.22C3.09977 6.53 3.18977 6.76 3.38977 6.94C3.56977 7.1 3.95977 7.35 4.79977 7.59L6.07977 7.97C7.25977 8.31 8.21977 8.81 8.91977 9.45C9.68977 10.15 10.0798 11.12 10.0798 12.33C10.0798 13.54 9.68977 14.49 8.91977 15.27C8.26977 15.92 7.38977 16.35 6.28977 16.54V18.04L5.88977 18.2C5.77977 18.24 5.64977 18.28 5.49977 18.31C5.34977 18.34 5.17977 18.35 4.98977 18.35L4.96977 18.32Z" fill="#E2DDDB"/>
<path d="M4.85914 14.59C5.78914 14.59 6.49914 14.38 6.96914 13.95C7.44914 13.53 7.68914 12.98 7.68914 12.31C7.68914 11.73 7.50914 11.25 7.13914 10.89C6.76914 10.53 6.18914 10.23 5.39914 9.99L3.58914 9.45C2.69914 9.19 1.99914 8.8 1.49914 8.28C0.989141 7.77 0.739141 7.07 0.739141 6.2C0.739141 5.27 1.03914 4.51 1.64914 3.93C2.25914 3.35 3.07914 2.99 4.11914 2.85V1.21C4.18914 1.18 4.27914 1.16 4.39914 1.14C4.51914 1.12 4.64914 1.11 4.80914 1.11C5.36914 1.11 5.63914 1.34 5.63914 1.8V2.82C6.10914 2.86 6.54914 2.93 6.94914 3.04C7.34914 3.14 7.69914 3.27 7.98914 3.42C8.27914 3.57 8.50914 3.73 8.67914 3.91C8.84914 4.09 8.92914 4.27 8.92914 4.45C8.92914 4.64 8.87914 4.81 8.77914 4.95C8.67914 5.09 8.55914 5.2 8.39914 5.28C8.03914 5 7.56914 4.76 6.98914 4.55C6.40914 4.34 5.76914 4.24 5.05914 4.24C4.23914 4.24 3.59914 4.41 3.12914 4.76C2.65914 5.11 2.42914 5.59 2.42914 6.22C2.42914 6.71 2.59914 7.1 2.92914 7.41C3.25914 7.72 3.81914 7.98 4.59914 8.2L5.86914 8.58C6.96914 8.9 7.82914 9.35 8.45914 9.92C9.08914 10.5 9.40914 11.3 9.40914 12.33C9.40914 13.36 9.07914 14.16 8.42914 14.82C7.77914 15.48 6.83914 15.87 5.61914 15.98V17.61C5.54914 17.64 5.45914 17.66 5.34914 17.68C5.23914 17.7 5.10914 17.71 4.94914 17.71C4.37914 17.71 4.09914 17.48 4.09914 17.02V15.98C3.56914 15.94 3.08914 15.86 2.65914 15.74C2.22914 15.62 1.85914 15.48 1.55914 15.31C1.24914 15.14 1.01914 14.96 0.859141 14.77C0.699141 14.58 0.619141 14.38 0.619141 14.19C0.619141 13.95 0.689141 13.76 0.839141 13.6C0.989141 13.44 1.15914 13.33 1.34914 13.26C1.49914 13.41 1.68914 13.57 1.90914 13.73C2.12914 13.89 2.38914 14.04 2.67914 14.17C2.96914 14.3 3.29914 14.41 3.65914 14.49C4.01914 14.57 4.41914 14.62 4.84914 14.62L4.85914 14.59Z" fill="#E2DDDB"/>
<path d="M8.54906 20.71H10.0491C10.4691 20.71 10.8091 21.05 10.8091 21.47V24.53H7.78906V21.47C7.78906 21.05 8.12906 20.71 8.54906 20.71Z" fill="#FAA61A"/>
<path d="M12.9104 12.8H14.4104C14.8304 12.8 15.1704 13.14 15.1704 13.56V24.53H12.1504V13.56C12.1504 13.14 12.4904 12.8 12.9104 12.8Z" fill="#00AAA5"/>
<path d="M17.3401 6.9H18.8401C19.2601 6.9 19.6001 7.24 19.6001 7.66V24.53H16.5801V7.66C16.5801 7.24 16.9201 6.9 17.3401 6.9Z" fill="#F04E23"/>
<path d="M21.7405 15.71H23.2405C23.6605 15.71 24.0005 16.05 24.0005 16.47V24.52H20.9805V16.47C20.9805 16.05 21.3205 15.71 21.7405 15.71Z" fill="#00A664"/>
</g>
<defs>
<clipPath id="clip0_301_24970">
<rect width="24" height="24.06" fill="white" transform="translate(0 0.470001)"/>
</clipPath>
</defs>
</svg>
