<svg width="24" height="25" viewBox="0 0 24 25" fill="none" xmlns="http://www.w3.org/2000/svg">
<path d="M12 24.5C18.6274 24.5 24 19.1274 24 12.5C24 5.87258 18.6274 0.5 12 0.5C5.37258 0.5 0 5.87258 0 12.5C0 19.1274 5.37258 24.5 12 24.5Z" fill="#F1CC70"/>
<path d="M12.0006 21.1511C16.7785 21.1511 20.6517 17.2779 20.6517 12.5C20.6517 7.7222 16.7785 3.849 12.0006 3.849C7.22281 3.849 3.34961 7.7222 3.34961 12.5C3.34961 17.2779 7.22281 21.1511 12.0006 21.1511Z" fill="#C48B51"/>
<path d="M12.198 18.6622C11.4591 18.6622 11.1958 18.2023 11.1958 17.7722V17.4537C10.9642 17.4213 10.7456 17.3772 10.5426 17.3214C10.2222 17.2338 9.9413 17.1249 9.70714 16.9971C9.45027 16.857 9.25568 16.7039 9.11168 16.5288C8.94043 16.3205 8.85352 16.0974 8.85352 15.8652C8.85352 15.6012 8.94303 15.3631 9.11233 15.1776C9.25827 15.0181 9.43147 14.902 9.62801 14.8319L9.88292 14.7404L10.0743 14.9324C10.1599 15.0187 10.2695 15.1095 10.3993 15.2023C10.5251 15.2931 10.6749 15.3781 10.8455 15.4546C11.0148 15.5311 11.2101 15.5954 11.4248 15.6447C11.6349 15.6933 11.8717 15.718 12.1279 15.718C12.6442 15.718 13.0282 15.6103 13.2689 15.3975C13.5004 15.1925 13.6088 14.9448 13.6088 14.6165C13.6088 14.337 13.5316 14.1307 13.3649 13.9672C13.1683 13.7746 12.8343 13.6072 12.3711 13.4691L11.151 13.1045C10.4862 12.9074 9.95103 12.6064 9.55989 12.2101C9.13892 11.7833 8.92487 11.2105 8.92487 10.508C8.92487 9.764 9.17395 9.14649 9.66563 8.67233C10.0613 8.29028 10.575 8.02887 11.1971 7.89201V6.85352L11.4656 6.74584C11.5402 6.716 11.6297 6.692 11.7387 6.67254C11.8425 6.65438 11.9599 6.64465 12.0864 6.64465C12.8148 6.64465 13.0743 7.10455 13.0743 7.5346V7.84206C13.2708 7.87125 13.4596 7.90952 13.6379 7.95557C13.937 8.03276 14.201 8.12811 14.4235 8.23968C14.6648 8.36033 14.8619 8.50238 15.0085 8.6613C15.196 8.86433 15.2907 9.08422 15.2907 9.31579C15.2907 9.53503 15.2317 9.73092 15.1156 9.89698C15.0124 10.0442 14.8782 10.1636 14.718 10.2511L14.4734 10.3848L14.2529 10.2155C14.0453 10.0559 13.7657 9.9119 13.4213 9.78736C13.0814 9.66476 12.6942 9.60249 12.2693 9.60249C11.8146 9.60249 11.4637 9.69201 11.2276 9.86844C11.0239 10.0202 10.9292 10.2232 10.9292 10.508C10.9292 10.7149 10.9921 10.8687 11.127 10.9925C11.247 11.1022 11.5091 11.2676 12.078 11.4297L12.9374 11.6834C13.734 11.9156 14.3781 12.2516 14.8503 12.6816C15.366 13.1525 15.628 13.8038 15.628 14.6172C15.628 15.4306 15.3647 16.0689 14.8451 16.5936C14.4092 17.0341 13.815 17.3208 13.0749 17.4466V18.4559L12.8051 18.5629C12.7318 18.5921 12.6468 18.6155 12.5443 18.6349C12.4418 18.6544 12.329 18.6635 12.1986 18.6635L12.198 18.6622Z" fill="#F1CC70"/>
<path d="M12.1275 16.1454C12.7541 16.1454 13.2283 16.0027 13.5513 15.718C13.8737 15.4326 14.0352 15.0661 14.0352 14.6172C14.0352 14.2248 13.9113 13.907 13.6635 13.6637C13.4157 13.4205 13.0253 13.22 12.4927 13.0605L11.2726 12.6959C10.6739 12.5182 10.2043 12.2568 9.86309 11.9104C9.5219 11.5647 9.35131 11.097 9.35131 10.508C9.35131 9.88144 9.55434 9.37225 9.96104 8.97917C10.3677 8.58674 10.9217 8.34349 11.6229 8.25009V7.1422C11.6696 7.12339 11.7325 7.10717 11.8123 7.0929C11.8914 7.07863 11.9829 7.07214 12.086 7.07214C12.4596 7.07214 12.6471 7.22652 12.6471 7.53463V8.22155C12.9649 8.24944 13.2594 8.29874 13.5305 8.36879C13.8017 8.43885 14.0352 8.52317 14.2317 8.62112C14.4283 8.71906 14.582 8.82933 14.6942 8.95063C14.8064 9.07258 14.8622 9.19387 14.8622 9.31517C14.8622 9.4462 14.8291 9.55842 14.7643 9.65182C14.6988 9.74523 14.6144 9.81982 14.512 9.87625C14.2687 9.68944 13.9535 9.52598 13.5649 9.38522C13.177 9.24511 12.7444 9.17506 12.2676 9.17506C11.7156 9.17506 11.2836 9.29182 10.9703 9.52598C10.657 9.7595 10.5007 10.0871 10.5007 10.5074C10.5007 10.835 10.6129 11.1009 10.8374 11.3065C11.0618 11.5121 11.4354 11.6899 11.9595 11.8397L12.8151 12.092C13.5533 12.3074 14.1357 12.609 14.5613 12.9969C14.9868 13.3848 15.1995 13.9251 15.1995 14.6166C15.1995 15.308 14.9796 15.8484 14.5405 16.2927C14.1007 16.737 13.4696 16.9958 12.6471 17.0711V18.1653C12.6004 18.1841 12.5394 18.2004 12.4648 18.2146C12.3896 18.2289 12.3014 18.2354 12.1982 18.2354C11.8149 18.2354 11.6235 18.081 11.6235 17.7729V17.0717C11.2681 17.0438 10.9457 16.99 10.6557 16.9102C10.3658 16.8311 10.118 16.7351 9.91239 16.6228C9.70677 16.5106 9.54979 16.3893 9.44276 16.2583C9.33509 16.1273 9.28125 15.9969 9.28125 15.8659C9.28125 15.707 9.33055 15.574 9.42849 15.4663C9.52644 15.3586 9.64125 15.2821 9.77228 15.2347C9.87477 15.3379 10.0013 15.443 10.1511 15.5506C10.3003 15.6583 10.4735 15.7563 10.67 15.8451C10.8665 15.934 11.0858 16.0066 11.329 16.0624C11.5723 16.1188 11.8382 16.1467 12.1282 16.1467L12.1275 16.1454Z" fill="#F1CC70"/>
</svg>
