<svg width="24" height="23" viewBox="0 0 24 23" fill="none" xmlns="http://www.w3.org/2000/svg">
<g clip-path="url(#clip0_304_25019)">
<path d="M14.4775 15.0874V23H11.041V15.0874C11.041 14.5852 11.3741 14.1782 11.7845 14.1782H13.7339C14.1443 14.1782 14.4775 14.5852 14.4775 15.0874Z" fill="#00B3B5"/>
<path d="M19.206 10.0005V23H15.7695V12.7139C15.7695 12.2117 16.9306 11.3083 17.341 11.3083L18.4625 9.09137C18.8729 9.09137 19.206 9.49834 19.206 10.0005Z" fill="#B2D235"/>
<path d="M24.0003 4.03969V23H20.5645V4.03969C20.5645 3.53753 20.8969 3.13055 21.308 3.13055H23.2574C23.6678 3.13055 24.0003 3.53753 24.0003 4.03969Z" fill="#E11B22"/>
<path d="M17.7575 3.72858C17.577 3.47814 17.1789 3.61039 17.1795 3.91705C17.1795 3.92089 17.1795 3.92472 17.1795 3.92855C17.1795 4.27867 17.1438 4.62367 17.0756 4.95908C17.038 5.14436 17.0588 5.33539 17.138 5.50725C17.4718 6.2343 17.6555 7.0425 17.6516 7.89286C17.636 11.0023 15.0652 13.5547 11.9054 13.5975C8.64879 13.6416 5.99482 11.0573 5.99482 7.86347C5.99482 7.02461 6.17794 6.22792 6.50652 5.5098C6.58575 5.33667 6.60718 5.145 6.56951 4.95908C6.50068 4.62303 6.46496 4.27803 6.46496 3.92728C6.46496 3.92408 6.46496 3.92025 6.46496 3.91705C6.46496 3.60783 6.0656 3.47942 5.88443 3.73178C5.04415 4.89903 4.54998 6.32439 4.54998 7.86347C4.54998 9.40255 5.08701 10.9506 5.99482 12.144C5.95521 12.1721 5.91625 12.2028 5.88053 12.2379L0.393371 17.6385C0.0459595 17.9803 0.0459595 18.5348 0.393371 18.8773L0.604416 19.0849C0.951828 19.4267 1.51548 19.4267 1.86354 19.0849L7.3507 13.6863C7.38512 13.6524 7.41564 13.6154 7.44291 13.5777C8.64684 14.4728 10.1423 15.0075 11.7645 15.0203C15.7905 15.0516 19.0952 11.8265 19.0952 7.86539C19.0952 6.32439 18.5997 4.89711 17.7575 3.72922V3.72858Z" fill="#D0CDCD"/>
<path d="M11.8872 0C11.8657 0 11.8437 0 11.8222 0.000638889C11.8008 0 11.7787 0 11.7573 0C9.55138 0 7.76367 1.75886 7.76367 3.92917C7.76367 5.00697 8.20459 5.98319 8.9189 6.693C8.95331 6.7275 8.98903 6.76136 9.02474 6.79394L9.02604 6.79522C9.08514 6.84506 9.14098 6.89425 9.19488 6.94344C9.19748 6.94536 9.20007 6.94792 9.20267 6.94983C9.72866 7.43028 10.0092 7.85067 10.1566 8.17778H13.4879C13.6353 7.85067 13.9158 7.43028 14.4418 6.94983C14.4444 6.94792 14.447 6.94536 14.4496 6.94344C14.5035 6.89425 14.5593 6.84506 14.6184 6.79522L14.6197 6.79394C14.6554 6.76136 14.6911 6.7275 14.7255 6.693C15.4399 5.98319 15.8808 5.00697 15.8808 3.92917C15.8808 1.75886 14.0931 0 11.8872 0Z" fill="#FFCA28"/>
<path d="M13.5577 4.13679C13.3805 3.96238 13.0921 3.96238 12.9149 4.13679L11.8376 5.19671L10.7797 4.15596C10.6025 3.98154 10.3141 3.98154 10.1369 4.15596C9.95959 4.33038 9.95959 4.61404 10.1369 4.78846L11.3927 6.02407V8.02635C11.3927 8.2736 11.596 8.47357 11.8473 8.47357C12.0986 8.47357 12.3019 8.2736 12.3019 8.02635V6.00491L13.5577 4.76929C13.735 4.59488 13.735 4.31121 13.5577 4.13679Z" fill="#F68B1F"/>
<path d="M13.7585 8.1778H9.88568C9.6636 8.1778 9.48438 8.35413 9.48438 8.57263V8.61352C9.48438 8.83202 9.6636 9.00835 9.88568 9.00835H13.7585C13.9806 9.00835 14.1598 8.83202 14.1598 8.61352V8.57263C14.1598 8.35413 13.9806 8.1778 13.7585 8.1778Z" fill="#F2EFEE"/>
<path d="M11.8226 9.00836H10.1992V10.2702C10.1992 10.6669 10.5265 10.9889 10.9298 10.9889H12.7155C13.1188 10.9889 13.4461 10.6669 13.4461 10.2702V9.00836H11.8226Z" fill="#9D9791"/>
<path d="M6.05896 15.8792C6.72363 15.2252 6.72363 14.165 6.05896 13.511C5.39429 12.8571 4.31665 12.8571 3.65198 13.511L0.499299 16.6128C-0.165371 17.2668 -0.165372 18.327 0.499298 18.981C1.16397 19.6349 2.24161 19.6349 2.90628 18.981L6.05896 15.8792Z" fill="#7F7C7B"/>
</g>
<defs>
<clipPath id="clip0_304_25019">
<rect width="24" height="23" fill="white"/>
</clipPath>
</defs>
</svg>
