<svg width="24" height="24" viewBox="0 0 24 24" fill="none" xmlns="http://www.w3.org/2000/svg">
<g clip-path="url(#clip0_298_24811)">
<path d="M22.339 3H4.37034C3.7311 3 3.21289 3.51821 3.21289 4.15745V15.6293C3.21289 16.2685 3.7311 16.7867 4.37034 16.7867H22.339C22.9782 16.7867 23.4964 16.2685 23.4964 15.6293V4.15745C23.4964 3.51821 22.9782 3 22.339 3Z" fill="#74A683"/>
<path d="M8.24258 11.438H5.35194C5.13276 11.438 4.95508 11.6157 4.95508 11.8349V12.3881C4.95508 12.6073 5.13276 12.785 5.35194 12.785H8.24258C8.46176 12.785 8.63944 12.6073 8.63944 12.3881V11.8349C8.63944 11.6157 8.46176 11.438 8.24258 11.438Z" fill="#99C2A6"/>
<path d="M7.60853 7.39725H5.35194C5.13276 7.39725 4.95508 7.57493 4.95508 7.79411V9.29806C4.95508 9.51724 5.13276 9.69492 5.35194 9.69492H7.60853C7.82771 9.69492 8.00539 9.51724 8.00539 9.29806V7.79411C8.00539 7.57493 7.82771 7.39725 7.60853 7.39725Z" fill="#F1CC70"/>
<path d="M14.2326 14.33H5.10614C5.02271 14.33 4.95508 14.3976 4.95508 14.4811V14.6937C4.95508 14.7772 5.02271 14.8448 5.10614 14.8448H14.2326C14.316 14.8448 14.3836 14.7772 14.3836 14.6937V14.4811C14.3836 14.3976 14.316 14.33 14.2326 14.33Z" fill="#467553"/>
<path d="M7.06194 4.94122H5.10614C5.02271 4.94122 4.95508 5.00885 4.95508 5.09228V5.62231C4.95508 5.70574 5.02271 5.77337 5.10614 5.77337H7.06194C7.14537 5.77337 7.213 5.70574 7.213 5.62231V5.09228C7.213 5.00885 7.14537 4.94122 7.06194 4.94122Z" fill="#467553"/>
<path d="M21.6816 14.33H16.3581C16.2747 14.33 16.207 14.3976 16.207 14.4811V14.6937C16.207 14.7772 16.2747 14.8448 16.3581 14.8448H21.6816C21.765 14.8448 21.8326 14.7772 21.8326 14.6937V14.4811C21.8326 14.3976 21.765 14.33 21.6816 14.33Z" fill="#467553"/>
<path d="M12.641 11.438H9.75037C9.5312 11.438 9.35352 11.6157 9.35352 11.8349V12.3881C9.35352 12.6073 9.5312 12.785 9.75037 12.785H12.641C12.8602 12.785 13.0379 12.6073 13.0379 12.3881V11.8349C13.0379 11.6157 12.8602 11.438 12.641 11.438Z" fill="#99C2A6"/>
<path d="M17.0375 11.438H14.1469C13.9277 11.438 13.75 11.6157 13.75 11.8349V12.3881C13.75 12.6073 13.9277 12.785 14.1469 12.785H17.0375C17.2567 12.785 17.4344 12.6073 17.4344 12.3881V11.8349C17.4344 11.6157 17.2567 11.438 17.0375 11.438Z" fill="#99C2A6"/>
<path d="M21.4359 11.438H18.5453C18.3261 11.438 18.1484 11.6157 18.1484 11.8349V12.3881C18.1484 12.6073 18.3261 12.785 18.5453 12.785H21.4359C21.6551 12.785 21.8328 12.6073 21.8328 12.3881V11.8349C21.8328 11.6157 21.6551 11.438 21.4359 11.438Z" fill="#99C2A6"/>
<path d="M19.1261 6.21329H1.15745C0.518208 6.21329 0 6.7315 0 7.37074V18.8425C0 19.4818 0.518208 20 1.15745 20H19.1261C19.7653 20 20.2835 19.4818 20.2835 18.8425V7.37074C20.2835 6.7315 19.7653 6.21329 19.1261 6.21329Z" fill="#008BBF"/>
<path d="M5.02969 14.6513H2.13905C1.91987 14.6513 1.74219 14.829 1.74219 15.0482V15.6014C1.74219 15.8206 1.91987 15.9983 2.13905 15.9983H5.02969C5.24887 15.9983 5.42655 15.8206 5.42655 15.6014V15.0482C5.42655 14.829 5.24887 14.6513 5.02969 14.6513Z" fill="#8ED8F8"/>
<path d="M4.39564 10.6105H2.13905C1.91987 10.6105 1.74219 10.7882 1.74219 11.0074V12.5113C1.74219 12.7305 1.91987 12.9082 2.13905 12.9082H4.39564C4.61482 12.9082 4.7925 12.7305 4.7925 12.5113V11.0074C4.7925 10.7882 4.61482 10.6105 4.39564 10.6105Z" fill="#F1CC70"/>
<path d="M11.0197 17.5433H1.89325C1.80982 17.5433 1.74219 17.6109 1.74219 17.6944V17.907C1.74219 17.9905 1.80982 18.0581 1.89325 18.0581H11.0197C11.1031 18.0581 11.1707 17.9905 11.1707 17.907V17.6944C11.1707 17.6109 11.1031 17.5433 11.0197 17.5433Z" fill="#006991"/>
<path d="M3.84905 8.15451H1.89325C1.80982 8.15451 1.74219 8.22214 1.74219 8.30557V8.8356C1.74219 8.91902 1.80982 8.98665 1.89325 8.98665H3.84905C3.93248 8.98665 4.00011 8.91902 4.00011 8.8356V8.30557C4.00011 8.22214 3.93248 8.15451 3.84905 8.15451Z" fill="#006991"/>
<path d="M18.4687 17.5433H13.1452C13.0618 17.5433 12.9941 17.6109 12.9941 17.6944V17.907C12.9941 17.9905 13.0618 18.0581 13.1452 18.0581H18.4687C18.5521 18.0581 18.6197 17.9905 18.6197 17.907V17.6944C18.6197 17.6109 18.5521 17.5433 18.4687 17.5433Z" fill="#006991"/>
<path d="M9.42813 14.6513H6.53748C6.3183 14.6513 6.14062 14.829 6.14062 15.0482V15.6014C6.14062 15.8206 6.3183 15.9983 6.53748 15.9983H9.42813C9.64731 15.9983 9.82498 15.8206 9.82498 15.6014V15.0482C9.82498 14.829 9.64731 14.6513 9.42813 14.6513Z" fill="#8ED8F8"/>
<path d="M13.8246 14.6513H10.934C10.7148 14.6513 10.5371 14.829 10.5371 15.0482V15.6014C10.5371 15.8206 10.7148 15.9983 10.934 15.9983H13.8246C14.0438 15.9983 14.2215 15.8206 14.2215 15.6014V15.0482C14.2215 14.829 14.0438 14.6513 13.8246 14.6513Z" fill="#8ED8F8"/>
<path d="M18.223 14.6513H15.3324C15.1132 14.6513 14.9355 14.829 14.9355 15.0482V15.6014C14.9355 15.8206 15.1132 15.9983 15.3324 15.9983H18.223C18.4422 15.9983 18.6199 15.8206 18.6199 15.6014V15.0482C18.6199 14.829 18.4422 14.6513 18.223 14.6513Z" fill="#8ED8F8"/>
</g>
<defs>
<clipPath id="clip0_298_24811">
<rect width="23.4968" height="17" fill="white" transform="translate(0 3)"/>
</clipPath>
</defs>
</svg>
