<svg width="24" height="25" viewBox="0 0 24 25" fill="none" xmlns="http://www.w3.org/2000/svg">
<g clip-path="url(#clip0_373_25370)">
<path d="M20.9702 12.22H17.4102V12.77H20.9702V12.22Z" fill="#3DBB95"/>
<path d="M22.2894 14.15C21.3694 14.15 20.6094 13.4 20.6094 12.47C20.6094 11.54 21.3594 10.79 22.2894 10.79C23.2194 10.79 23.9694 11.54 23.9694 12.47C23.9694 13.4 23.2194 14.15 22.2894 14.15ZM22.2894 11.44C21.7194 11.44 21.2594 11.9 21.2594 12.47C21.2594 13.04 21.7194 13.5 22.2894 13.5C22.8594 13.5 23.3194 13.04 23.3194 12.47C23.3194 11.9 22.8594 11.44 22.2894 11.44Z" fill="#3DBB95"/>
<path d="M6.61961 12.23H3.09961V12.78H6.61961V12.23Z" fill="#3DBB95"/>
<path d="M1.73078 14.15C0.810781 14.15 0.0507812 13.4 0.0507812 12.47C0.0507812 11.54 0.800781 10.79 1.73078 10.79C2.66078 10.79 3.41078 11.54 3.41078 12.47C3.41078 13.4 2.66078 14.15 1.73078 14.15ZM1.73078 11.44C1.16078 11.44 0.700781 11.9 0.700781 12.47C0.700781 13.04 1.16078 13.5 1.73078 13.5C2.30078 13.5 2.76078 13.04 2.76078 12.47C2.76078 11.9 2.30078 11.44 1.73078 11.44Z" fill="#3DBB95"/>
<path d="M18.1292 3.85001C17.2092 3.85001 16.4492 3.10001 16.4492 2.17001C16.4492 1.24001 17.1992 0.490005 18.1292 0.490005C19.0592 0.490005 19.8092 1.24001 19.8092 2.17001C19.8092 3.10001 19.0592 3.85001 18.1292 3.85001ZM18.1292 1.15001C17.5592 1.15001 17.0992 1.61001 17.0992 2.18001C17.0992 2.75001 17.5592 3.21001 18.1292 3.21001C18.6992 3.21001 19.1592 2.75001 19.1592 2.18001C19.1592 1.61001 18.6992 1.15001 18.1292 1.15001Z" fill="#3DBB95"/>
<path d="M14.5191 6.24H13.8691V4.68C13.8691 4.16 14.1591 3.68 14.6291 3.45L16.9491 2.27L17.2391 2.85L14.9191 4.03C14.6691 4.16 14.5191 4.41 14.5191 4.69V6.25V6.24Z" fill="#3DBB95"/>
<path d="M5.86945 3.85001C4.94945 3.85001 4.18945 3.10001 4.18945 2.17001C4.18945 1.24001 4.93945 0.490005 5.86945 0.490005C6.79945 0.490005 7.54945 1.24001 7.54945 2.17001C7.54945 3.10001 6.79945 3.85001 5.86945 3.85001ZM5.86945 1.15001C5.29945 1.15001 4.83945 1.61001 4.83945 2.18001C4.83945 2.75001 5.29945 3.21001 5.86945 3.21001C6.43945 3.21001 6.89945 2.75001 6.89945 2.18001C6.89945 1.61001 6.43945 1.15001 5.86945 1.15001Z" fill="#3DBB95"/>
<path d="M10.1298 6.24001H9.47976V4.68001C9.47976 4.40001 9.32977 4.15001 9.07977 4.02001L6.75977 2.84001L7.04977 2.26001L9.36977 3.44001C9.83977 3.68001 10.1298 4.15001 10.1298 4.67001V6.23001V6.24001Z" fill="#3DBB95"/>
<path d="M18.1292 24.5C17.2092 24.5 16.4492 23.75 16.4492 22.82C16.4492 21.89 17.1992 21.14 18.1292 21.14C19.0592 21.14 19.8092 21.89 19.8092 22.82C19.8092 23.75 19.0592 24.5 18.1292 24.5ZM18.1292 21.79C17.5592 21.79 17.0992 22.25 17.0992 22.82C17.0992 23.39 17.5592 23.85 18.1292 23.85C18.6992 23.85 19.1592 23.39 19.1592 22.82C19.1592 22.25 18.6992 21.79 18.1292 21.79Z" fill="#3DBB95"/>
<path d="M16.9491 22.72L14.6291 21.54C14.1591 21.3 13.8691 20.83 13.8691 20.31V18.75H14.5191V20.31C14.5191 20.59 14.6691 20.84 14.9191 20.97L17.2391 22.15L16.9491 22.73V22.72Z" fill="#3DBB95"/>
<path d="M5.86945 24.5C4.94945 24.5 4.18945 23.75 4.18945 22.82C4.18945 21.89 4.93945 21.14 5.86945 21.14C6.79945 21.14 7.54945 21.89 7.54945 22.82C7.54945 23.75 6.79945 24.5 5.86945 24.5ZM5.86945 21.79C5.29945 21.79 4.83945 22.25 4.83945 22.82C4.83945 23.39 5.29945 23.85 5.86945 23.85C6.43945 23.85 6.89945 23.39 6.89945 22.82C6.89945 22.25 6.43945 21.79 5.86945 21.79Z" fill="#3DBB95"/>
<path d="M7.04977 22.72L6.75977 22.14L9.07977 20.96C9.32977 20.83 9.47976 20.58 9.47976 20.3V18.74H10.1298V20.3C10.1298 20.82 9.83977 21.3 9.36977 21.53L7.04977 22.71V22.72Z" fill="#3DBB95"/>
<path d="M1.68 8.05C0.76 8.05 0 7.3 0 6.37C0 5.44 0.75 4.69 1.68 4.69C2.61 4.69 3.36 5.44 3.36 6.37C3.36 7.3 2.61 8.05 1.68 8.05ZM1.68 5.34C1.11 5.34 0.65 5.8 0.65 6.37C0.65 6.94 1.11 7.4 1.68 7.4C2.25 7.4 2.71 6.94 2.71 6.37C2.71 5.8 2.25 5.34 1.68 5.34Z" fill="#3DBB95"/>
<path d="M5.73953 10.63H4.17953C3.65953 10.63 3.17953 10.34 2.94953 9.87001L1.76953 7.55001L2.34953 7.26001L3.52953 9.58001C3.65953 9.83001 3.90953 9.98001 4.18953 9.98001H5.74953V10.63H5.73953Z" fill="#3DBB95"/>
<path d="M1.68 20.31C0.76 20.31 0 19.56 0 18.63C0 17.7 0.75 16.95 1.68 16.95C2.61 16.95 3.36 17.7 3.36 18.63C3.36 19.56 2.61 20.31 1.68 20.31ZM1.68 17.6C1.11 17.6 0.65 18.06 0.65 18.63C0.65 19.2 1.11 19.66 1.68 19.66C2.25 19.66 2.71 19.2 2.71 18.63C2.71 18.06 2.25 17.6 1.68 17.6Z" fill="#3DBB95"/>
<path d="M2.34953 17.74L1.76953 17.45L2.94953 15.13C3.18953 14.66 3.65953 14.37 4.17953 14.37H5.73953V15.02H4.17953C3.89953 15.02 3.64953 15.17 3.51953 15.42L2.33953 17.74H2.34953Z" fill="#3DBB95"/>
<path d="M22.3206 8.05C21.4006 8.05 20.6406 7.3 20.6406 6.37C20.6406 5.44 21.3906 4.69 22.3206 4.69C23.2506 4.69 24.0006 5.44 24.0006 6.37C24.0006 7.3 23.2506 8.05 22.3206 8.05ZM22.3206 5.34C21.7506 5.34 21.2906 5.8 21.2906 6.37C21.2906 6.94 21.7506 7.4 22.3206 7.4C22.8906 7.4 23.3506 6.94 23.3506 6.37C23.3506 5.8 22.8906 5.34 22.3206 5.34Z" fill="#3DBB95"/>
<path d="M19.81 10.63H18.25V9.98001H19.81C20.09 9.98001 20.34 9.83001 20.47 9.58001L21.65 7.26001L22.23 7.55001L21.05 9.87001C20.81 10.34 20.34 10.63 19.82 10.63H19.81Z" fill="#3DBB95"/>
<path d="M22.3206 20.31C21.4006 20.31 20.6406 19.56 20.6406 18.63C20.6406 17.7 21.3906 16.95 22.3206 16.95C23.2506 16.95 24.0006 17.7 24.0006 18.63C24.0006 19.56 23.2506 20.31 22.3206 20.31ZM22.3206 17.6C21.7506 17.6 21.2906 18.06 21.2906 18.63C21.2906 19.2 21.7506 19.66 22.3206 19.66C22.8906 19.66 23.3506 19.2 23.3506 18.63C23.3506 18.06 22.8906 17.6 22.3206 17.6Z" fill="#3DBB95"/>
<path d="M21.65 17.74L20.47 15.42C20.34 15.17 20.09 15.02 19.81 15.02H18.25V14.37H19.81C20.33 14.37 20.81 14.66 21.04 15.13L22.22 17.45L21.64 17.74H21.65Z" fill="#3DBB95"/>
<path d="M16.5791 5.66H7.41906C6.2427 5.66 5.28906 6.61364 5.28906 7.79V16.95C5.28906 18.1264 6.2427 19.08 7.41906 19.08H16.5791C17.7554 19.08 18.7091 18.1264 18.7091 16.95V7.79C18.7091 6.61364 17.7554 5.66 16.5791 5.66Z" fill="#FFE161"/>
<path d="M11.9705 17.42C11.3605 17.42 11.1505 17.04 11.1505 16.69V16.43C10.9605 16.4 10.7805 16.37 10.6105 16.32C10.3505 16.25 10.1205 16.16 9.93047 16.05C9.72047 15.94 9.56047 15.81 9.44047 15.67C9.30047 15.5 9.23047 15.32 9.23047 15.13C9.23047 14.91 9.30047 14.72 9.44047 14.57C9.56047 14.44 9.70047 14.34 9.86047 14.29L10.0705 14.22L10.2305 14.38C10.3005 14.45 10.3905 14.52 10.5005 14.6C10.6005 14.67 10.7305 14.74 10.8705 14.81C11.0105 14.87 11.1705 14.93 11.3405 14.97C11.5105 15.01 11.7105 15.03 11.9205 15.03C12.3405 15.03 12.6605 14.94 12.8505 14.77C13.0405 14.6 13.1305 14.4 13.1305 14.13C13.1305 13.9 13.0705 13.73 12.9305 13.6C12.7705 13.44 12.5005 13.3 12.1205 13.19L11.1205 12.89C10.5805 12.73 10.1405 12.48 9.82047 12.16C9.47047 11.81 9.30047 11.34 9.30047 10.77C9.30047 10.16 9.50047 9.65 9.91047 9.27C10.2305 8.96 10.6605 8.74 11.1605 8.63V7.78L11.3805 7.69C11.4405 7.67 11.5105 7.65 11.6005 7.63C11.6905 7.62 11.7805 7.61 11.8905 7.61C12.4905 7.61 12.7005 7.99 12.7005 8.34V8.59C12.8605 8.61 13.0205 8.65 13.1605 8.68C13.4005 8.74 13.6205 8.82 13.8005 8.91C14.0005 9.01 14.1605 9.13 14.2805 9.26C14.4305 9.43 14.5105 9.61 14.5105 9.8C14.5105 9.98 14.4605 10.14 14.3705 10.28C14.2905 10.4 14.1805 10.5 14.0405 10.57L13.8405 10.68L13.6605 10.54C13.4905 10.41 13.2605 10.29 12.9805 10.19C12.7005 10.09 12.3805 10.04 12.0405 10.04C11.6705 10.04 11.3805 10.11 11.1905 10.26C11.0205 10.38 10.9505 10.55 10.9505 10.78C10.9505 10.95 11.0005 11.08 11.1105 11.18C11.2105 11.27 11.4205 11.41 11.8905 11.54L12.5905 11.75C13.2405 11.94 13.7705 12.22 14.1605 12.57C14.5805 12.96 14.8005 13.49 14.8005 14.16C14.8005 14.83 14.5805 15.35 14.1605 15.78C13.8005 16.14 13.3205 16.38 12.7105 16.48V17.31L12.4905 17.4C12.4305 17.42 12.3605 17.44 12.2805 17.46C12.2005 17.48 12.1005 17.48 12.0005 17.48L11.9705 17.42Z" fill="#DCAF27"/>
<path d="M11.9096 15.36C12.4196 15.36 12.8096 15.24 13.0796 15.01C13.3396 14.78 13.4796 14.48 13.4796 14.11C13.4796 13.79 13.3796 13.53 13.1796 13.33C12.9796 13.13 12.6596 12.97 12.2196 12.84L11.2196 12.54C10.7296 12.39 10.3396 12.18 10.0696 11.9C9.78961 11.62 9.64961 11.23 9.64961 10.75C9.64961 10.24 9.81961 9.81999 10.1496 9.49999C10.4796 9.17999 10.9396 8.97999 11.5096 8.89999V7.98999C11.5096 7.98999 11.5996 7.95999 11.6696 7.94999C11.7296 7.93999 11.8096 7.92999 11.8896 7.92999C12.1996 7.92999 12.3496 8.05999 12.3496 8.30999V8.86999C12.6096 8.88999 12.8496 8.92999 13.0696 8.98999C13.2896 9.04999 13.4796 9.11999 13.6396 9.19999C13.7996 9.27999 13.9296 9.36999 14.0196 9.46999C14.1096 9.56999 14.1596 9.66999 14.1596 9.76999C14.1596 9.87999 14.1296 9.96999 14.0796 10.05C14.0296 10.13 13.9596 10.19 13.8696 10.23C13.6696 10.08 13.4096 9.93999 13.0896 9.82999C12.7696 9.71999 12.4196 9.65999 12.0296 9.65999C11.5796 9.65999 11.2196 9.75999 10.9696 9.94999C10.7096 10.14 10.5896 10.41 10.5896 10.75C10.5896 11.02 10.6796 11.24 10.8696 11.4C11.0496 11.57 11.3596 11.71 11.7896 11.84L12.4896 12.05C13.0896 12.23 13.5696 12.47 13.9196 12.79C14.2696 13.11 14.4396 13.55 14.4396 14.12C14.4396 14.69 14.2596 15.13 13.8996 15.49C13.5396 15.85 13.0196 16.07 12.3496 16.13V17.03C12.3496 17.03 12.2596 17.06 12.1996 17.07C12.1396 17.08 12.0696 17.09 11.9796 17.09C11.6696 17.09 11.5096 16.96 11.5096 16.71V16.14C11.2196 16.12 10.9496 16.07 10.7196 16.01C10.4796 15.95 10.2796 15.87 10.1096 15.77C9.93961 15.68 9.80961 15.58 9.72961 15.47C9.63961 15.36 9.59961 15.26 9.59961 15.15C9.59961 15.02 9.63961 14.91 9.71961 14.82C9.79961 14.73 9.88961 14.67 9.99961 14.63C10.0796 14.71 10.1896 14.8 10.3096 14.89C10.4296 14.98 10.5696 15.06 10.7396 15.13C10.8996 15.2 11.0796 15.26 11.2796 15.31C11.4796 15.36 11.6996 15.38 11.9296 15.38L11.9096 15.36Z" fill="#DCAF27"/>
</g>
<defs>
<clipPath id="clip0_373_25370">
<rect width="24" height="24" fill="white" transform="translate(0 0.5)"/>
</clipPath>
</defs>
</svg>
