<svg width="23" height="25" viewBox="0 0 23 25" fill="none" xmlns="http://www.w3.org/2000/svg">
<g clip-path="url(#clip0_306_25030)">
<path d="M10.9609 12.5V22.99L1.88086 17.74V7.26001L10.9609 12.5Z" fill="#FFDC40"/>
<path d="M20.0409 7.26001L10.9609 12.5L1.88086 7.26001L10.9609 2.01001L20.0409 7.26001Z" fill="#FFAB15"/>
<path d="M20.0409 7.26001V17.74L10.9609 22.99V12.5L20.0409 7.26001Z" fill="#FF9400"/>
<path d="M2.2407 3.54C3.08018 3.54 3.7607 2.85947 3.7607 2.02C3.7607 1.18053 3.08018 0.5 2.2407 0.5C1.40123 0.5 0.720703 1.18053 0.720703 2.02C0.720703 2.85947 1.40123 3.54 2.2407 3.54Z" fill="#7D8AFF"/>
<path d="M17.2509 23.59C17.8253 23.59 18.2909 23.1244 18.2909 22.55C18.2909 21.9756 17.8253 21.51 17.2509 21.51C16.6766 21.51 16.2109 21.9756 16.2109 22.55C16.2109 23.1244 16.6766 23.59 17.2509 23.59Z" fill="#7D8AFF"/>
<path d="M22.9605 2.78997H21.6405V1.46997H20.1305V2.78997H18.8105V4.29997H20.1305V5.61997H21.6405V4.29997H22.9605V2.78997Z" fill="#7D8AFF"/>
<path d="M4.67 21.32H3.18V19.83H1.49V21.32H0V23.01H1.49V24.5H3.18V23.01H4.67V21.32Z" fill="#7D8AFF"/>
<path d="M10.9203 18.51C10.1803 18.51 9.92031 18.05 9.92031 17.62V17.3C9.69031 17.27 9.47031 17.22 9.27031 17.17C8.95031 17.08 8.67031 16.97 8.43031 16.85C8.17031 16.71 7.98031 16.56 7.83031 16.38C7.66031 16.17 7.57031 15.95 7.57031 15.72C7.57031 15.46 7.66031 15.22 7.83031 15.03C7.98031 14.87 8.15031 14.75 8.35031 14.68L8.61031 14.59L8.80031 14.78C8.89031 14.87 9.00031 14.96 9.12031 15.05C9.25031 15.14 9.40031 15.23 9.57031 15.3C9.74031 15.38 9.93031 15.44 10.1503 15.49C10.3603 15.54 10.6003 15.56 10.8503 15.56C11.3703 15.56 11.7503 15.45 11.9903 15.24C12.2203 15.04 12.3303 14.79 12.3303 14.46C12.3303 14.18 12.2503 13.97 12.0903 13.81C11.8903 13.62 11.5603 13.45 11.1003 13.31L9.88031 12.95C9.22031 12.75 8.68031 12.45 8.29031 12.06C7.87031 11.63 7.66031 11.06 7.66031 10.36C7.66031 9.61999 7.91031 8.99999 8.40031 8.51999C8.80031 8.13999 9.31031 7.87999 9.93031 7.73999V6.69999L10.2003 6.58999C10.2703 6.55999 10.3603 6.53999 10.4703 6.51999C10.5703 6.49999 10.6903 6.48999 10.8203 6.48999C11.5503 6.48999 11.8103 6.94999 11.8103 7.37999V7.68999C12.0103 7.71999 12.2003 7.75999 12.3703 7.79999C12.6703 7.87999 12.9303 7.96999 13.1603 8.07999C13.4003 8.19999 13.6003 8.33999 13.7503 8.49999C13.9403 8.69999 14.0303 8.91999 14.0303 9.14999C14.0303 9.36999 13.9703 9.56999 13.8503 9.72999C13.7503 9.87999 13.6103 9.99999 13.4503 10.08L13.2103 10.21L12.9903 10.04C12.7803 9.87999 12.5003 9.73999 12.1603 9.60999C11.8203 9.48999 11.4303 9.42999 11.0103 9.42999C10.5603 9.42999 10.2003 9.51999 9.97031 9.69999C9.77031 9.84999 9.67031 10.05 9.67031 10.34C9.67031 10.55 9.73031 10.7 9.87031 10.82C9.99031 10.93 10.2503 11.09 10.8203 11.26L11.6803 11.51C12.4803 11.74 13.1203 12.08 13.5903 12.51C14.1103 12.98 14.3703 13.63 14.3703 14.45C14.3703 15.27 14.1103 15.9 13.5903 16.43C13.1503 16.87 12.5603 17.16 11.8203 17.28V18.29L11.5503 18.4C11.4803 18.43 11.3903 18.45 11.2903 18.47C11.1903 18.49 11.0703 18.5 10.9403 18.5L10.9203 18.51Z" fill="#692917"/>
<path d="M10.85 15.99C11.48 15.99 11.95 15.85 12.27 15.56C12.59 15.27 12.75 14.91 12.75 14.46C12.75 14.07 12.63 13.75 12.38 13.51C12.13 13.27 11.74 13.07 11.21 12.91L9.99 12.55C9.39 12.37 8.92 12.11 8.58 11.76C8.24 11.41 8.07 10.95 8.07 10.36C8.07 9.72998 8.27 9.21998 8.68 8.82998C9.09 8.43998 9.64 8.18998 10.34 8.09998V6.98998C10.34 6.98998 10.45 6.94998 10.53 6.93998C10.61 6.92998 10.7 6.91998 10.8 6.91998C11.17 6.91998 11.36 7.06998 11.36 7.37998V8.06998C11.68 8.09998 11.97 8.14998 12.24 8.21998C12.51 8.28998 12.74 8.36998 12.94 8.46998C13.14 8.56998 13.29 8.67998 13.4 8.79998C13.51 8.91998 13.57 9.03998 13.57 9.15998C13.57 9.28998 13.54 9.39998 13.47 9.49998C13.4 9.58998 13.32 9.66998 13.22 9.71998C12.98 9.52998 12.66 9.36998 12.27 9.22998C11.88 9.08998 11.45 9.01998 10.97 9.01998C10.42 9.01998 9.99 9.13998 9.67 9.36998C9.36 9.59998 9.2 9.92998 9.2 10.35C9.2 10.68 9.31 10.94 9.54 11.15C9.76 11.36 10.14 11.53 10.66 11.68L11.52 11.93C12.26 12.15 12.84 12.45 13.27 12.83C13.7 13.22 13.91 13.76 13.91 14.45C13.91 15.14 13.69 15.68 13.25 16.13C12.81 16.57 12.18 16.83 11.36 16.91V18C11.36 18 11.25 18.04 11.18 18.05C11.11 18.06 11.02 18.07 10.91 18.07C10.53 18.07 10.34 17.92 10.34 17.61V16.91C9.98 16.88 9.66 16.83 9.37 16.75C9.08 16.67 8.83 16.57 8.63 16.46C8.42 16.35 8.27 16.23 8.16 16.1C8.05 15.97 8 15.84 8 15.71C8 15.55 8.05 15.42 8.15 15.31C8.25 15.2 8.36 15.13 8.49 15.08C8.59 15.18 8.72 15.29 8.87 15.4C9.02 15.51 9.19 15.61 9.39 15.69C9.59 15.78 9.81 15.85 10.05 15.91C10.29 15.97 10.56 15.99 10.85 15.99Z" fill="#692917"/>
</g>
<defs>
<clipPath id="clip0_306_25030">
<rect width="22.96" height="24" fill="white" transform="translate(0 0.5)"/>
</clipPath>
</defs>
</svg>
