<svg width="24" height="24" viewBox="0 0 24 24" fill="none" xmlns="http://www.w3.org/2000/svg">
<g clip-path="url(#clip0_262_23518)">
<path d="M6.00027 6.20998C6.18763 6.39623 6.44108 6.50078 6.70527 6.50078C6.96945 6.50078 7.2229 6.39623 7.41026 6.20998L11.0003 2.57998V23C11.0003 23.2652 11.1056 23.5196 11.2932 23.7071C11.4807 23.8946 11.735 24 12.0003 24C12.2655 24 12.5198 23.8946 12.7074 23.7071C12.8949 23.5196 13.0003 23.2652 13.0003 23V2.58998L16.6203 6.20998C16.7132 6.30371 16.8238 6.37811 16.9457 6.42887C17.0675 6.47964 17.1983 6.50578 17.3303 6.50578C17.4623 6.50578 17.593 6.47964 17.7148 6.42887C17.8367 6.37811 17.9473 6.30371 18.0403 6.20998C18.2265 6.02262 18.3311 5.76917 18.3311 5.50498C18.3311 5.2408 18.2265 4.98734 18.0403 4.79998L14.1303 0.879976C13.5678 0.318174 12.8053 0.00261497 12.0103 0.00261497C11.2153 0.00261497 10.4528 0.318174 9.89027 0.879976L6.00027 4.79998C5.81401 4.98734 5.70947 5.2408 5.70947 5.50498C5.70947 5.76917 5.81401 6.02262 6.00027 6.20998Z" fill="#F9F9F9"/>
</g>
<defs>
<clipPath id="clip0_262_23518">
<rect width="24" height="24" fill="white"/>
</clipPath>
</defs>
</svg>
