<svg width="24" height="24" viewBox="0 0 24 24" fill="none" xmlns="http://www.w3.org/2000/svg">
<path d="M18.0499 17.79C17.957 17.6963 17.8464 17.6219 17.7245 17.5711C17.6026 17.5203 17.4719 17.4942 17.3399 17.4942C17.2079 17.4942 17.0772 17.5203 16.9553 17.5711C16.8335 17.6219 16.7229 17.6963 16.6299 17.79L12.9999 21.42V1C12.9999 0.734783 12.8946 0.480429 12.707 0.292893C12.5195 0.105357 12.2651 0 11.9999 0V0C11.7347 0 11.4803 0.105357 11.2928 0.292893C11.1053 0.480429 10.9999 0.734783 10.9999 1V21.41L7.37991 17.79C7.2942 17.6728 7.184 17.5757 7.05696 17.5054C6.92992 17.4351 6.7891 17.3933 6.64428 17.3829C6.49946 17.3725 6.35411 17.3938 6.21835 17.4452C6.08258 17.4967 5.95964 17.5771 5.85809 17.6809C5.75653 17.7846 5.67879 17.9093 5.63026 18.0461C5.58173 18.183 5.56359 18.3287 5.57708 18.4733C5.59058 18.6178 5.6354 18.7577 5.70841 18.8832C5.78143 19.0087 5.8809 19.1168 5.99991 19.2L9.91991 23.12C10.4824 23.6818 11.2449 23.9974 12.0399 23.9974C12.8349 23.9974 13.5974 23.6818 14.1599 23.12L18.0799 19.2C18.2622 19.0087 18.3614 18.753 18.3558 18.4888C18.3502 18.2246 18.2402 17.9734 18.0499 17.79Z" fill="#F9F9F9"/>
</svg>
