<svg width="24" height="24" viewBox="0 0 24 24" fill="none" xmlns="http://www.w3.org/2000/svg">
<g clip-path="url(#clip0_262_23587)">
<path d="M22.9498 9.59979C22.7623 9.41232 22.5079 9.307 22.2428 9.307C21.9776 9.307 21.7233 9.41232 21.5358 9.59979L10.6438 20.5388C10.1795 21.0031 9.62829 21.3715 9.02164 21.6228C8.41499 21.8742 7.76478 22.0035 7.10813 22.0036C5.78197 22.0037 4.51008 21.477 3.57228 20.5393C2.63447 19.6016 2.10757 18.3298 2.10747 17.0036C2.10738 15.6775 2.63411 14.4056 3.57178 13.4678L14.1208 2.87579C14.6849 2.32068 15.4455 2.01096 16.2369 2.01409C17.0283 2.01722 17.7864 2.33294 18.3461 2.89249C18.9058 3.45204 19.2217 4.21009 19.225 5.0015C19.2283 5.79291 18.9188 6.55357 18.3638 7.11779L7.81478 17.7098C7.62453 17.892 7.37124 17.9938 7.10778 17.9938C6.84431 17.9938 6.59103 17.892 6.40078 17.7098C6.21331 17.5223 6.10799 17.268 6.10799 17.0028C6.10799 16.7376 6.21331 16.4833 6.40078 16.2958L15.7928 6.86079C15.9749 6.67219 16.0757 6.41958 16.0735 6.15739C16.0712 5.89519 15.966 5.64438 15.7806 5.45897C15.5952 5.27356 15.3444 5.16839 15.0822 5.16611C14.82 5.16384 14.5674 5.26463 14.3788 5.44679L4.98678 14.8818C4.70815 15.1604 4.48713 15.4911 4.33633 15.8551C4.18553 16.2191 4.10792 16.6093 4.10792 17.0033C4.10792 17.3973 4.18553 17.7874 4.33633 18.1515C4.48713 18.5155 4.70815 18.8462 4.98678 19.1248C5.5584 19.6703 6.31816 19.9746 7.10828 19.9746C7.8984 19.9746 8.65816 19.6703 9.22978 19.1248L19.7778 8.53179C20.6958 7.59009 21.2058 6.32464 21.1974 5.00956C21.1889 3.69448 20.6627 2.43567 19.7328 1.50581C18.8028 0.575956 17.5439 0.0499337 16.2288 0.0416937C14.9137 0.0334538 13.6483 0.54366 12.7068 1.46179L2.15778 12.0538C0.844957 13.3666 0.107422 15.1472 0.107422 17.0038C0.107422 18.8604 0.844957 20.641 2.15778 21.9538C3.4706 23.2666 5.25117 24.0041 7.10778 24.0041C8.96439 24.0041 10.745 23.2666 12.0578 21.9538L22.9498 11.0178C23.0432 10.9249 23.1173 10.8144 23.1679 10.6927C23.2185 10.571 23.2446 10.4406 23.2446 10.3088C23.2446 10.177 23.2185 10.0465 23.1679 9.92487C23.1173 9.80319 23.0432 9.69272 22.9498 9.59979Z" fill="#F9F9F9"/>
</g>
<defs>
<clipPath id="clip0_262_23587">
<rect width="24" height="24" fill="white"/>
</clipPath>
</defs>
</svg>
