<svg width="24" height="24" viewBox="0 0 24 24" fill="none" xmlns="http://www.w3.org/2000/svg">
<g clip-path="url(#clip0_262_23504)">
<path d="M23.7073 0.293145C23.5197 0.105674 23.2654 0.000358582 23.0003 0.000358582C22.7351 0.000358582 22.4808 0.105674 22.2933 0.293145L12.0003 10.5861L1.70727 0.293145C1.51975 0.105674 1.26544 0.000358582 1.00027 0.000358582C0.735111 0.000358582 0.480802 0.105674 0.293275 0.293145C0.105804 0.480673 0.000488281 0.734981 0.000488281 1.00015C0.000488281 1.26531 0.105804 1.51962 0.293275 1.70715L10.5863 12.0001L0.293275 22.2931C0.105804 22.4807 0.000488281 22.735 0.000488281 23.0001C0.000488281 23.2653 0.105804 23.5196 0.293275 23.7071C0.480802 23.8946 0.735111 23.9999 1.00027 23.9999C1.26544 23.9999 1.51975 23.8946 1.70727 23.7071L12.0003 13.4141L22.2933 23.7071C22.4808 23.8946 22.7351 23.9999 23.0003 23.9999C23.2654 23.9999 23.5197 23.8946 23.7073 23.7071C23.8947 23.5196 24.0001 23.2653 24.0001 23.0001C24.0001 22.735 23.8947 22.4807 23.7073 22.2931L13.4143 12.0001L23.7073 1.70715C23.8947 1.51962 24.0001 1.26531 24.0001 1.00015C24.0001 0.734981 23.8947 0.480673 23.7073 0.293145Z" fill="#F9F9F9"/>
</g>
<defs>
<clipPath id="clip0_262_23504">
<rect width="24" height="24" fill="white"/>
</clipPath>
</defs>
</svg>
