<svg width="24" height="24" viewBox="0 0 24 24" fill="none" xmlns="http://www.w3.org/2000/svg">
<path d="M17.7103 9.87999L13.4103 5.58999C13.0356 5.21748 12.5287 5.0084 12.0003 5.0084C11.4719 5.0084 10.965 5.21748 10.5903 5.58999L6.2903 9.87999C6.10405 10.0673 5.99951 10.3208 5.99951 10.585C5.99951 10.8492 6.10405 11.1026 6.2903 11.29C6.38327 11.3837 6.49387 11.4581 6.61573 11.5089C6.73759 11.5596 6.86829 11.5858 7.0003 11.5858C7.13232 11.5858 7.26302 11.5596 7.38488 11.5089C7.50674 11.4581 7.61734 11.3837 7.7103 11.29L11.0003 7.99999V19C11.0003 19.2652 11.1057 19.5196 11.2932 19.7071C11.4807 19.8946 11.7351 20 12.0003 20C12.2655 20 12.5199 19.8946 12.7074 19.7071C12.8949 19.5196 13.0003 19.2652 13.0003 19V7.99999L16.2903 11.29C16.4773 11.4783 16.7314 11.5846 16.9968 11.5855C17.2621 11.5865 17.517 11.482 17.7053 11.295C17.8936 11.108 17.9999 10.8539 18.0009 10.5885C18.0018 10.3232 17.8973 10.0683 17.7103 9.87999Z" fill="#F9F9F9"/>
</svg>
