<svg width="24" height="24" viewBox="0 0 24 24" fill="none" xmlns="http://www.w3.org/2000/svg">
<path d="M17.7098 12.71C17.6169 12.6162 17.5063 12.5419 17.3844 12.4911C17.2625 12.4403 17.1318 12.4142 16.9998 12.4142C16.8678 12.4142 16.7371 12.4403 16.6152 12.4911C16.4934 12.5419 16.3828 12.6162 16.2898 12.71L12.9998 16V5.99998C12.9998 5.73476 12.8945 5.48041 12.7069 5.29287C12.5194 5.10533 12.265 4.99998 11.9998 4.99998C11.7346 4.99998 11.4802 5.10533 11.2927 5.29287C11.1052 5.48041 10.9998 5.73476 10.9998 5.99998V16L7.70982 12.71C7.61685 12.6162 7.50625 12.5419 7.38439 12.4911C7.26253 12.4403 7.13183 12.4142 6.99982 12.4142C6.8678 12.4142 6.7371 12.4403 6.61524 12.4911C6.49338 12.5419 6.38278 12.6162 6.28982 12.71C6.10356 12.8973 5.99902 13.1508 5.99902 13.415C5.99902 13.6792 6.10356 13.9326 6.28982 14.12L10.5898 18.41C10.9632 18.7856 11.4702 18.9977 11.9998 19C12.5259 18.9951 13.0289 18.7831 13.3998 18.41L17.6998 14.12C17.8874 13.9339 17.9937 13.6812 17.9956 13.417C17.9975 13.1529 17.8947 12.8987 17.7098 12.71Z" fill="#F9F9F9"/>
</svg>
