<svg width="24" height="24" viewBox="0 0 24 24" fill="none" xmlns="http://www.w3.org/2000/svg">
<path d="M13.2902 18.59L7.71023 13C7.52398 12.8127 7.41943 12.5592 7.41943 12.295C7.41943 12.0309 7.52398 11.7774 7.71023 11.59L13.2902 6.00004C13.4301 5.85901 13.6088 5.76283 13.8035 5.72376C13.9983 5.68469 14.2003 5.70451 14.3837 5.78067C14.5672 5.85684 14.7238 5.98591 14.8336 6.15143C14.9434 6.31695 15.0014 6.51142 15.0002 6.71004V17.88C15.0014 18.0787 14.9434 18.2731 14.8336 18.4387C14.7238 18.6042 14.5672 18.7332 14.3837 18.8094C14.2003 18.8856 13.9983 18.9054 13.8035 18.8663C13.6088 18.8273 13.4301 18.7311 13.2902 18.59Z" fill="#F9F9F9"/>
</svg>
