<svg width="24" height="24" viewBox="0 0 24 24" fill="none" xmlns="http://www.w3.org/2000/svg">
<path d="M6.40987 16H17.5899C17.7876 15.9992 17.9807 15.9397 18.1447 15.8292C18.3087 15.7186 18.4362 15.5619 18.5111 15.3789C18.5861 15.1959 18.605 14.9947 18.5656 14.8009C18.5263 14.6071 18.4303 14.4293 18.2899 14.29L12.7099 8.71004C12.6169 8.61632 12.5063 8.54192 12.3844 8.49115C12.2626 8.44038 12.1319 8.41425 11.9999 8.41425C11.8679 8.41425 11.7372 8.44038 11.6153 8.49115C11.4934 8.54192 11.3828 8.61632 11.2899 8.71004L5.70987 14.29C5.56945 14.4293 5.47348 14.6071 5.43409 14.8009C5.39471 14.9947 5.41368 15.1959 5.4886 15.3789C5.56353 15.5619 5.69104 15.7186 5.85503 15.8292C6.01901 15.9397 6.2121 15.9992 6.40987 16Z" fill="#F9F9F9"/>
</svg>
