<svg width="24" height="24" viewBox="0 0 24 24" fill="none" xmlns="http://www.w3.org/2000/svg">
<path d="M9.00002 17.88V6.71004C8.99886 6.51142 9.05688 6.31695 9.16669 6.15143C9.27649 5.98591 9.43309 5.85684 9.61654 5.78067C9.79998 5.70451 10.002 5.68469 10.1967 5.72376C10.3914 5.76283 10.5701 5.85901 10.71 6.00004L16.29 11.59C16.4763 11.7774 16.5808 12.0309 16.5808 12.295C16.5808 12.5592 16.4763 12.8127 16.29 13L10.71 18.59C10.5701 18.7311 10.3914 18.8273 10.1967 18.8663C10.002 18.9054 9.79998 18.8856 9.61654 18.8094C9.43309 18.7332 9.27649 18.6042 9.16669 18.4387C9.05688 18.2731 8.99886 18.0787 9.00002 17.88Z" fill="#F9F9F9"/>
</svg>
