<svg width="24" height="24" viewBox="0 0 24 24" fill="none" xmlns="http://www.w3.org/2000/svg">
<path d="M17.9997 15.5C17.8681 15.5007 17.7376 15.4755 17.6158 15.4258C17.494 15.376 17.3831 15.3027 17.2897 15.21L12.7097 10.62C12.6167 10.5263 12.5061 10.4519 12.3843 10.4011C12.2624 10.3503 12.1317 10.3242 11.9997 10.3242C11.8677 10.3242 11.737 10.3503 11.6151 10.4011C11.4933 10.4519 11.3827 10.5263 11.2897 10.62L6.7097 15.21C6.52139 15.3983 6.266 15.5041 5.9997 15.5041C5.7334 15.5041 5.478 15.3983 5.2897 15.21C5.10139 15.0217 4.99561 14.7663 4.99561 14.5C4.99561 14.3681 5.02158 14.2376 5.07204 14.1157C5.1225 13.9939 5.19646 13.8832 5.2897 13.79L9.8797 9.21C10.4496 8.66243 11.2093 8.35663 11.9997 8.35663C12.7901 8.35663 13.5498 8.66243 14.1197 9.21L18.7097 13.79C18.8034 13.883 18.8778 13.9936 18.9286 14.1154C18.9794 14.2373 19.0055 14.368 19.0055 14.5C19.0055 14.632 18.9794 14.7627 18.9286 14.8846C18.8778 15.0064 18.8034 15.117 18.7097 15.21C18.6163 15.3027 18.5054 15.376 18.3836 15.4258C18.2618 15.4755 18.1313 15.5007 17.9997 15.5Z" fill="#F9F9F9"/>
</svg>
