<svg width="30" height="30" viewBox="0 0 30 30" fill="none" xmlns="http://www.w3.org/2000/svg">
<rect width="30" height="30" rx="4" fill="#9099A0"/>
<g clip-path="url(#clip0_369_20965)">
<path d="M15 15C15.7911 15 16.5645 14.7654 17.2223 14.3258C17.8801 13.8863 18.3928 13.2616 18.6955 12.5307C18.9983 11.7998 19.0775 10.9955 18.9231 10.2196C18.7688 9.44367 18.3878 8.73094 17.8284 8.17153C17.269 7.61212 16.5563 7.23116 15.7804 7.07682C15.0044 6.92248 14.2002 7.00169 13.4693 7.30444C12.7384 7.60719 12.1136 8.11988 11.6741 8.77768C11.2346 9.43547 11 10.2088 11 11C11.0011 12.0605 11.4228 13.0773 12.1727 13.8272C12.9227 14.5771 13.9395 14.9989 15 15ZM15 8.33329C15.5274 8.33329 16.043 8.48969 16.4815 8.78271C16.9201 9.07572 17.2618 9.4922 17.4637 9.97947C17.6655 10.4667 17.7183 11.0029 17.6154 11.5202C17.5125 12.0375 17.2586 12.5126 16.8856 12.8856C16.5127 13.2585 16.0375 13.5125 15.5202 13.6154C15.003 13.7183 14.4668 13.6655 13.9795 13.4636C13.4922 13.2618 13.0758 12.92 12.7827 12.4815C12.4897 12.0429 12.3333 11.5274 12.3333 11C12.3333 10.2927 12.6143 9.61444 13.1144 9.11434C13.6145 8.61424 14.2928 8.33329 15 8.33329Z" fill="#222327"/>
<path d="M15 16.3337C13.4092 16.3355 11.8841 16.9682 10.7593 18.093C9.63447 19.2179 9.00176 20.743 9 22.3337C9 22.5106 9.07024 22.6801 9.19526 22.8051C9.32029 22.9302 9.48986 23.0004 9.66667 23.0004C9.84348 23.0004 10.013 22.9302 10.1381 22.8051C10.2631 22.6801 10.3333 22.5106 10.3333 22.3337C10.3333 21.0961 10.825 19.9091 11.7002 19.0339C12.5753 18.1587 13.7623 17.6671 15 17.6671C16.2377 17.6671 17.4247 18.1587 18.2998 19.0339C19.175 19.9091 19.6667 21.0961 19.6667 22.3337C19.6667 22.5106 19.7369 22.6801 19.8619 22.8051C19.987 22.9302 20.1565 23.0004 20.3333 23.0004C20.5101 23.0004 20.6797 22.9302 20.8047 22.8051C20.9298 22.6801 21 22.5106 21 22.3337C20.9982 20.743 20.3655 19.2179 19.2407 18.093C18.1159 16.9682 16.5908 16.3355 15 16.3337Z" fill="#222327"/>
</g>
<defs>
<clipPath id="clip0_369_20965">
<rect width="16" height="16" fill="white" transform="translate(7 7)"/>
</clipPath>
</defs>
</svg>
