<?xml version="1.0" encoding="UTF-8"?>
<svg id="Layer_1" data-name="Layer 1" xmlns="http://www.w3.org/2000/svg" xmlns:xlink="http://www.w3.org/1999/xlink" version="1.1" viewBox="0 0 32 32">
  <defs>
    <style>
      .cls-1 {
        clip-path: url(#clippath);
      }

      .cls-2 {
        fill: none;
      }

      .cls-2, .cls-3, .cls-4 {
        stroke-width: 0px;
      }

      .cls-3 {
        fill: #d39f5d;
      }

      .cls-4 {
        fill: #33393a;
      }
    </style>
    <clipPath id="clippath">
      <rect class="cls-2" x="6" y="6" width="20" height="20"/>
    </clipPath>
  </defs>
  <circle class="cls-3" cx="16" cy="16" r="16"/>
  <g class="cls-1">
    <path class="cls-4" d="M26,15.1c0-1.3-.7-2.5-1.8-3.2v-.2c0-1.6-1-2.9-2.5-3.1-.3-1.5-1.5-2.5-3-2.5s-2.2.6-2.7,1.6c-.5-.9-1.5-1.6-2.7-1.6s-2.8,1.1-3,2.5c-1.4.2-2.5,1.5-2.5,3.1s0,.2,0,.2c-1.1.7-1.8,2-1.8,3.2s.2,1.5.7,2.2c-.5.7-.7,1.4-.7,2.2,0,1.4.7,2.6,1.9,3.3.5,1.9,2.2,3.2,4.2,3.2s3.2-1,3.9-2.5c.7,1.5,2.2,2.5,3.9,2.5s3.7-1.3,4.2-3.2c1.2-.7,1.9-2,1.9-3.3s-.2-1.5-.7-2.2c.5-.7.7-1.4.7-2.2ZM12.1,25.2c-1.6,0-3-1.1-3.4-2.7,0-.1,0-.2-.2-.3-1-.5-1.6-1.6-1.6-2.7s.2-1.4.7-1.9c.1-.2.1-.4,0-.5-.5-.5-.7-1.2-.7-1.9,0-1.1.6-2.1,1.6-2.7.2,0,.2-.2.2-.4v-.4c0-1.1.8-2.3,2-2.3s.4-.2.4-.4c0-1.2,1.1-2.1,2.3-2.1s2.3,1,2.3,2.3v3.9h-2.1c-.2-.7-.8-1.2-1.6-1.2s-1.7.8-1.7,1.7.8,1.7,1.7,1.7,1.4-.5,1.6-1.2h2.1v5h-2.1c-.2-.7-.8-1.2-1.6-1.2s-1.7.8-1.7,1.7.8,1.7,1.7,1.7,1.4-.5,1.6-1.2h2.1v1.9c0,1.9-1.6,3.5-3.5,3.5h0ZM12.7,13.5c0,.5-.4.8-.8.8s-.8-.4-.8-.8.4-.8.8-.8.8.4.8.8ZM12.7,19.3c0,.5-.4.8-.8.8s-.8-.4-.8-.8.4-.8.8-.8.8.4.8.8ZM24.5,17.6c.5.5.7,1.2.7,1.9,0,1.1-.6,2.2-1.6,2.7-.1,0-.2.2-.2.3-.4,1.6-1.8,2.7-3.4,2.7s-3.5-1.6-3.5-3.5v-4h2.1c1.2,0,2.1-.9,2.1-2.1v-.5c.7-.2,1.2-.8,1.2-1.6s-.8-1.7-1.7-1.7-1.7.8-1.7,1.7.5,1.4,1.2,1.6v.5c0,.7-.5,1.2-1.2,1.2h-2.1v-7.8c0-1.2,1-2.3,2.3-2.3s2.2.9,2.3,2.1c0,.2.2.4.4.4,1.2,0,2,1.2,2,2.3s0,.2,0,.4,0,.3.2.4c1,.5,1.6,1.6,1.6,2.7s-.2,1.4-.7,1.9c-.1.2-.1.4,0,.5h0ZM20.2,14.3c-.5,0-.8-.4-.8-.8s.4-.8.8-.8.8.4.8.8-.4.8-.8.8Z"/>
  </g>
</svg>