<?xml version="1.0" encoding="UTF-8"?>
<svg id="Layer_1" data-name="Layer 1" xmlns="http://www.w3.org/2000/svg" version="1.1" viewBox="0 0 48 48">
  <defs>
    <style>
      .cls-1 {
        fill: #33393a;
        stroke-width: 0px;
      }
    </style>
  </defs>
  <path class="cls-1" d="M32,20c0,1.1-.9,2-2,2s-2-.9-2-2,.9-2,2-2,2,.9,2,2ZM18,22c1.1,0,2-.9,2-2s-.9-2-2-2-2,.9-2,2,.9,2,2,2ZM24,40c-8.8,0-16-7.2-16-16S15.2,8,24,8s16,7.2,16,16-7.2,16-16,16ZM38,24c0-7.7-6.3-14-14-14s-14,6.3-14,14,6.3,14,14,14,14-6.3,14-14ZM30.3,27.3s-2.8,2.7-6.3,2.7-6.3-2.7-6.3-2.7c-.4-.4-1-.4-1.4,0-.4.4-.4,1,0,1.4.1.1,3.3,3.3,7.7,3.3s7.6-3.2,7.7-3.3c.4-.4.4-1,0-1.4-.4-.4-1-.4-1.4,0h0ZM15,46h-6c-3.9,0-7-3.1-7-7v-6c0-.6-.4-1-1-1S0,32.4,0,33v6C0,44,4,48,9,48h6c.6,0,1-.4,1-1s-.4-1-1-1ZM47,32c-.6,0-1,.4-1,1v6c0,3.9-3.1,7-7,7h-6c-.6,0-1,.4-1,1s.4,1,1,1h6c5,0,9-4,9-9v-6c0-.6-.4-1-1-1ZM39,0h-6c-.6,0-1,.4-1,1s.4,1,1,1h6c3.9,0,7,3.1,7,7v6c0,.6.4,1,1,1s1-.4,1-1v-6c0-5-4-9-9-9ZM1,16c.6,0,1-.4,1-1v-6c0-3.9,3.1-7,7-7h6c.6,0,1-.4,1-1s-.4-1-1-1h-6C4,0,0,4,0,9v6c0,.6.4,1,1,1Z"/>
</svg>