<?xml version="1.0" encoding="UTF-8"?>
<svg id="Layer_1" data-name="Layer 1" xmlns="http://www.w3.org/2000/svg" version="1.1" viewBox="0 0 48 48">
  <defs>
    <style>
      .cls-1 {
        fill: #33393a;
        stroke-width: 0px;
      }
    </style>
  </defs>
  <path class="cls-1" d="M24,0C10.8,0,0,10.8,0,24s10.8,24,24,24,24-10.8,24-24S37.2,0,24,0ZM24,46c-12.1,0-22-9.9-22-22S11.9,2,24,2s22,9.9,22,22-9.9,22-22,22ZM36,24c0,6.3-4.9,11.4-11,12v3c0,.6-.4,1-1,1s-1-.4-1-1v-3c-6.1-.5-11-5.7-11-12s.4-1,1-1,1,.4,1,1c0,5.5,4.5,10,10,10s10-4.5,10-10,.4-1,1-1,1,.4,1,1ZM24,30c3.3,0,6-2.7,6-6v-10c0-3.3-2.7-6-6-6s-6,2.7-6,6v10c0,3.3,2.7,6,6,6ZM20,14c0-2.2,1.8-4,4-4s4,1.8,4,4v10c0,2.2-1.8,4-4,4s-4-1.8-4-4v-10Z"/>
</svg>