<?xml version="1.0" encoding="UTF-8"?>
<svg id="Layer_1" data-name="Layer 1" xmlns="http://www.w3.org/2000/svg" version="1.1" viewBox="0 0 48 48">
  <defs>
    <style>
      .cls-1 {
        fill: #33393a;
        stroke-width: 0px;
      }
    </style>
  </defs>
  <path class="cls-1" d="M24,0C10.8,0,0,10.8,0,24s10.8,24,24,24,24-10.8,24-24S37.2,0,24,0ZM24,46c-12.1,0-22-9.9-22-22S11.9,2,24,2s22,9.9,22,22-9.9,22-22,22ZM29,14h-10c-2.8,0-5,2.2-5,5v10c0,2.8,2.2,5,5,5h10c2.8,0,5-2.2,5-5v-10c0-2.8-2.2-5-5-5ZM32,29c0,1.7-1.3,3-3,3h-10c-1.7,0-3-1.3-3-3v-10c0-1.7,1.3-3,3-3h10c1.7,0,3,1.3,3,3v10Z"/>
</svg>