<?xml version="1.0" encoding="UTF-8"?>
<svg id="Layer_1" data-name="Layer 1" xmlns="http://www.w3.org/2000/svg" version="1.1" viewBox="0 0 44 48">
  <defs>
    <style>
      .cls-1 {
        fill: #33393a;
        stroke-width: 0px;
      }
    </style>
  </defs>
  <path class="cls-1" d="M43,0H1C.4,0,0,.4,0,1s.4,1,1,1h1.3l3.7,37.9c.5,4.6,4.3,8.1,9,8.1h14.1c4.7,0,8.5-3.5,9-8.1l3.7-37.9h1.2c.6,0,1-.4,1-1s-.4-1-1-1ZM36.1,39.7s0,0,0,.1l-5.5-5.5,5.7-5.7.8.8-1,10.2h0ZM14.9,18.6l-5.7-5.7,5.7-5.7,5.7,5.7-5.7,5.7ZM22,14.4l5.8,5.8-5.7,5.7-5.8-5.8,5.7-5.7ZM13.5,20l-5.7,5.7-1.2-1.2-.8-8.2,2-2,5.7,5.7h0ZM5.5,13.8l-.2-1.9,1.1,1.1-.9.9h0ZM8,39.7l-1-10.4.7-.7,5.8,5.8-5.4,5.4s0,0,0,0h0ZM9.1,27.2l5.7-5.7,5.8,5.8-5.7,5.7s-5.8-5.8-5.8-5.8ZM22,28.6l5.7,5.7-5.7,5.7-5.7-5.7s5.7-5.7,5.7-5.7ZM23.5,27.2l5.7-5.7,5.7,5.7-5.7,5.7-5.7-5.7ZM38.6,13.9l-.9-.9,1.1-1.1-.2,2h0ZM38.3,16.5l-.8,8.1-1.3,1.3-5.7-5.7,5.7-5.7s2.1,2.1,2.1,2.1ZM29.1,18.7l-5.8-5.8,5.7-5.7,5.7,5.7s-5.7,5.7-5.7,5.7ZM22,11.5l-5.7-5.7,3.9-3.9h3.7l3.8,3.8-5.7,5.7h0ZM14.9,4.4l-2.4-2.4h4.9s-2.4,2.4-2.4,2.4ZM26.7,2h4.8l-2.4,2.4-2.4-2.4h0ZM9.6,2l3.9,3.9-5.7,5.7-2.8-2.8-.7-6.8h5.3ZM8.7,42s0,0,0,0l6.2-6.2,5.7,5.7-4.5,4.5h-1.1c-2.8,0-5.2-1.6-6.3-4h0ZM22,42.9l3.1,3.1h-6.2l3.1-3.1h0ZM29.1,46h-1.1l-4.5-4.5,5.7-5.7,6.2,6.2c-1.1,2.4-3.5,4-6.3,4ZM39.1,8.7l-2.8,2.8-5.8-5.8,3.8-3.8h5.4l-.7,6.7Z"/>
</svg>