<svg width="724" height="430" viewBox="0 0 724 430" fill="none" xmlns="http://www.w3.org/2000/svg">
<ellipse cx="93.6234" cy="386.172" rx="586.978" ry="278.067" transform="rotate(-11.133 93.6234 386.172)" fill="url(#paint0_linear_48_6569)"/>
<g clip-path="url(#clip0_48_6569)">
<path d="M111.19 336.31C121.82 336.31 132.46 336.32 143.09 336.29C144.31 336.29 146.23 336.78 146.21 334.91C146.19 333.2 144.34 333.37 143.04 333.37C122.52 333.36 102 333.35 81.4798 333.39C80.0898 333.39 78.6898 333.74 77.3098 334C76.7398 334.11 76.0898 334.44 76.1098 335.08C76.1298 335.68 76.7298 336.08 77.3098 336.17C78.1198 336.3 78.9598 336.31 79.7898 336.31C90.2598 336.31 100.73 336.31 111.19 336.31Z" fill="#6F7272"/>
<path d="M143.14 316.48C135.83 316.48 128.53 316.47 121.22 316.5C120.39 316.5 119.03 316.17 119.02 317.39C119.02 318.47 120.38 318.41 121.23 318.43C125.05 318.5 128.87 318.51 132.69 318.51C143.15 318.51 153.61 318.51 164.08 318.51C164.91 318.51 165.74 318.48 166.56 318.37C167.08 318.3 167.49 317.95 167.42 317.35C167.37 316.89 166.97 316.65 166.55 316.6C165.81 316.52 165.06 316.5 164.32 316.5C157.26 316.5 150.2 316.5 143.15 316.5L143.14 316.48Z" fill="#6D7171"/>
<path d="M102.32 382.98C98.9101 382.98 95.5101 382.98 92.1001 382.98C91.0501 382.98 89.8201 382.73 89.7701 384.42C89.7201 386.13 90.9601 385.91 92.0101 385.91C96.9101 385.92 101.81 386 106.71 385.88C108.73 385.83 110.64 386.41 112.64 386.43C114.13 386.44 115.15 385.96 115.16 384.42C115.17 382.81 113.81 383.02 112.77 383.01C109.28 382.98 105.79 383 102.3 383V382.98H102.32Z" fill="#6E7272"/>
<path d="M140.36 386.43C143.68 386.43 147 386.45 150.32 386.43C151.52 386.43 153.05 386.73 153.07 384.83C153.09 382.92 151.53 383.45 150.5 383.45C143.61 383.4 136.72 383.42 129.83 383.42C128.66 383.42 127.27 383.29 127.29 384.98C127.31 386.74 128.81 386.41 129.9 386.42C133.39 386.46 136.87 386.43 140.36 386.43Z" fill="#6F7272"/>
<path d="M-14.4899 360.65C-14.6399 361 -14.9999 361.38 -14.3599 361.63C-13.3499 362.01 -12.3199 362.21 -11.2099 362.21C2.33007 362.19 15.8701 362.21 29.4001 362.14C30.1401 362.14 32.3501 363.22 31.3801 360.64C30.7701 360.25 30.0901 360.4 29.4401 360.4C15.4401 360.4 1.44006 360.4 -12.5599 360.4C-13.2099 360.4 -13.8899 360.24 -14.4899 360.65Z" fill="#737777"/>
<path d="M52.7599 336.32C55.9099 336.32 59.0599 336.32 62.2099 336.32C63.1399 336.32 64.1799 336.3 64.2399 335.05C64.3099 333.7 63.2499 333.44 62.2099 333.44C55.9999 333.41 49.7799 333.41 43.5699 333.44C42.5999 333.44 41.4099 333.5 41.4199 334.91C41.4199 336.33 42.5599 336.31 43.5699 336.32C46.6399 336.33 49.6999 336.32 52.7699 336.32H52.7599Z" fill="#6D7070"/>
<path d="M102.41 316.48C100.33 316.48 98.2498 316.48 96.1798 316.48C95.3798 316.48 94.5498 316.61 94.6298 317.62C94.6998 318.5 95.5498 318.43 96.1998 318.43C100.36 318.44 104.51 318.44 108.67 318.43C109.43 318.43 110.33 318.42 110.34 317.4C110.34 316.27 109.35 316.49 108.66 316.48C106.58 316.44 104.5 316.47 102.43 316.47L102.41 316.48Z" fill="#6A6E6E"/>
<path d="M77.7596 318.02C80.1496 318.05 82.5495 317.89 84.9295 318.37C85.7395 318.53 86.7695 318.47 86.8795 317.38C87.0195 315.98 85.7995 316.43 85.0995 316.42C81.1295 316.37 77.1495 316.38 73.1795 316.42C72.4995 316.42 71.4095 316.17 71.4695 317.26C71.5195 318.27 72.5895 317.99 73.2795 318.01C74.7695 318.05 76.2595 318.02 77.7495 318.02H77.7596Z" fill="#6F7373"/>
<path d="M-14.4901 360.65C0.799889 360.65 16.0899 360.65 31.3799 360.65C30.6699 360.05 29.8099 360.22 28.9899 360.22C15.2899 360.22 1.57988 360.22 -12.1201 360.22C-12.9301 360.22 -13.8001 360 -14.4901 360.66V360.65Z" fill="#696D6D"/>
<path d="M149.549 309.99C152.559 310.83 155.659 310.43 158.729 310.26C158.949 310.25 159.269 309.85 159.319 309.59C159.379 309.23 159.039 309 158.679 309C155.669 309 152.649 309 149.629 309C149.599 309.33 149.579 309.66 149.549 309.99Z" fill="#616565"/>
<path d="M122.3 383.93C121.02 383.91 119.78 383.93 119.81 385.41C119.84 386.9 121.19 386.45 122.09 386.53C123.23 386.63 124.46 386.46 124.43 385.06C124.4 383.66 123.04 384.06 122.3 383.93Z" fill="#6B6F6F"/>
<path d="M36.6197 335.84C37.4697 335.76 38.6497 335.98 38.7097 334.74C38.7697 333.37 37.6097 333.33 36.5997 333.37C35.7297 333.4 34.5597 333.26 34.6197 334.56C34.6697 335.66 35.5897 335.96 36.6297 335.84H36.6197Z" fill="#6A6E6E"/>
<path d="M144.279 309.17H134.979C134.979 309.35 134.979 309.53 134.979 309.71H144.259C144.259 309.53 144.269 309.35 144.279 309.17Z" fill="#777B7B"/>
<path d="M68.1595 317.96C69.0495 317.9 69.9695 317.96 70.0095 316.97C70.0495 315.91 69.0995 316.01 68.3895 316C67.5795 315.99 66.5295 315.95 66.5795 317.09C66.6195 318.08 67.6395 317.86 68.1595 317.97V317.96Z" fill="#626666"/>
<path d="M69.3795 334.73C69.4695 335.58 69.6895 336.26 70.5095 336.18C71.3995 336.09 71.2995 335.29 71.2795 334.65C71.2595 334.07 71.1395 333.44 70.3695 333.47C69.4795 333.5 69.4895 334.25 69.3695 334.73H69.3795Z" fill="#636666"/>
<path d="M64.2798 316.1C63.3598 316.1 62.9198 316.53 62.8598 317.28C62.8098 317.95 63.1598 318.37 63.8598 318.38C64.6298 318.38 65.1198 318 65.1798 317.23C65.2298 316.56 64.7798 316.22 64.2798 316.1Z" fill="#5E6262"/>
<path d="M89.8998 317.71C90.0098 318.34 90.4898 318.47 90.9998 318.46C91.6598 318.46 92.4598 318.46 92.4298 317.53C92.3998 316.9 91.7298 316.94 91.2498 316.93C90.6598 316.92 90.0598 316.95 89.8998 317.7V317.71Z" fill="#727676"/>
<path d="M52.3892 316.48C51.7792 316.46 51.2092 316.62 51.0692 317.26C50.9692 317.73 51.4092 317.93 51.8492 317.94C52.4592 317.97 53.0292 317.77 53.1592 317.14C53.2592 316.67 52.8292 316.48 52.3792 316.47L52.3892 316.48Z" fill="#5F6363"/>
<path d="M35.2102 316.88C35.2402 317.4 35.3801 317.71 35.7701 317.71C36.1501 317.71 36.3301 317.41 36.3601 317.06C36.4001 316.62 36.2802 316.19 35.7302 316.31C35.4902 316.36 35.3302 316.74 35.2102 316.88Z" fill="#575B5B"/>
<path d="M114.22 317.41C114.21 317.75 114.26 318.1 114.64 318.18C115.1 318.28 115.16 317.87 115.22 317.56C115.28 317.22 115.18 316.87 114.81 316.79C114.36 316.69 114.31 317.09 114.22 317.4V317.41Z" fill="#666A6A"/>
<path d="M146.82 309.77C146.95 310.12 147.22 310.26 147.55 310.13C147.73 310.06 147.97 309.83 147.97 309.66C147.97 309.3 147.67 309.14 147.33 309.16C146.97 309.18 146.78 309.39 146.81 309.77H146.82Z" fill="#6E7272"/>
<path d="M44.8694 317.37C45.1694 317.56 45.3494 317.78 45.5094 317.76C45.8494 317.73 46.0594 317.44 45.9694 317.11C45.9294 316.94 45.5794 316.68 45.5394 316.71C45.3094 316.86 45.1394 317.09 44.8694 317.37Z" fill="#6D7171"/>
<path d="M59.9394 317.66C60.0594 317.76 60.2394 318.01 60.3994 318C60.8094 317.98 60.8494 317.6 60.7994 317.3C60.7694 317.13 60.5194 316.86 60.3994 316.87C60.0294 316.91 59.9294 317.23 59.9394 317.67V317.66Z" fill="#6B6E6E"/>
<path d="M57.0099 317.16C57.1299 317.27 57.2799 317.4 57.4299 317.54C57.5299 317.37 57.6899 317.22 57.7199 317.04C57.7399 316.94 57.5899 316.73 57.4799 316.7C57.1999 316.62 57.0599 316.8 57.0099 317.16Z" fill="#636767"/>
</g>
<defs>
<linearGradient id="paint0_linear_48_6569" x1="468.897" y1="187.553" x2="-28.8195" y2="633.862" gradientUnits="userSpaceOnUse">
<stop stop-color="#323939"/>
<stop offset="1" stop-color="#2A2F2F"/>
</linearGradient>
<clipPath id="clip0_48_6569">
<rect width="263.43" height="77.55" fill="white" transform="matrix(-1 0 0 1 167.43 309)"/>
</clipPath>
</defs>
</svg>
