<svg width="254" height="78" viewBox="0 0 254 78" fill="none" xmlns="http://www.w3.org/2000/svg">
<g clip-path="url(#clip0_44_4743)">
<path d="M56.2409 27.3098C45.6109 27.3098 34.9709 27.3198 24.3409 27.2898C23.1209 27.2898 21.2009 27.7798 21.2209 25.9098C21.2409 24.1998 23.0909 24.3698 24.3909 24.3698C44.9109 24.3598 65.4309 24.3498 85.9509 24.3898C87.3409 24.3898 88.7409 24.7398 90.1209 24.9998C90.6909 25.1098 91.3409 25.4398 91.3209 26.0798C91.3009 26.6798 90.7009 27.0798 90.1209 27.1698C89.3109 27.2998 88.4709 27.3098 87.6409 27.3098C77.1709 27.3098 66.7009 27.3098 56.2409 27.3098Z" fill="#6F7272"/>
<path d="M24.2898 7.48014C31.5998 7.48014 38.8998 7.47014 46.2098 7.50014C47.0398 7.50014 48.3998 7.17014 48.4098 8.39014C48.4098 9.47014 47.0498 9.41014 46.1998 9.43014C42.3798 9.50014 38.5598 9.51014 34.7398 9.51014C24.2798 9.51014 13.8198 9.51014 3.34976 9.51014C2.51976 9.51014 1.68976 9.48014 0.869759 9.37014C0.349759 9.30014 -0.0602408 8.95014 0.00975923 8.35014C0.0597592 7.89014 0.459759 7.65014 0.879759 7.60014C1.61976 7.52014 2.36976 7.50014 3.10976 7.50014C10.1698 7.50014 17.2298 7.50014 24.2798 7.50014L24.2898 7.48014Z" fill="#6D7171"/>
<path d="M65.1096 73.9798C68.5196 73.9798 71.9196 73.9798 75.3296 73.9798C76.3796 73.9798 77.6096 73.7298 77.6596 75.4198C77.7096 77.1298 76.4696 76.9098 75.4196 76.9098C70.5196 76.9198 65.6196 76.9998 60.7196 76.8798C58.6996 76.8298 56.7896 77.4098 54.7896 77.4298C53.2996 77.4398 52.2796 76.9598 52.2696 75.4198C52.2596 73.8098 53.6196 74.0198 54.6596 74.0098C58.1496 73.9798 61.6396 73.9998 65.1296 73.9998V73.9798H65.1096Z" fill="#6E7272"/>
<path d="M27.0696 77.4298C23.7496 77.4298 20.4296 77.4498 17.1096 77.4298C15.9096 77.4298 14.3796 77.7298 14.3596 75.8298C14.3396 73.9198 15.8996 74.4498 16.9296 74.4498C23.8196 74.3998 30.7096 74.4198 37.5996 74.4198C38.7696 74.4198 40.1596 74.2898 40.1396 75.9798C40.1196 77.7398 38.6196 77.4098 37.5296 77.4198C34.0396 77.4598 30.5596 77.4298 27.0696 77.4298Z" fill="#6F7272"/>
<path d="M181.921 51.6499C182.071 51.9999 182.431 52.3799 181.791 52.6299C180.781 53.0099 179.751 53.2099 178.641 53.2099C165.101 53.1899 151.561 53.2099 138.031 53.1399C137.291 53.1399 135.081 54.2199 136.051 51.6399C136.661 51.2499 137.341 51.3999 137.991 51.3999C151.991 51.3999 165.991 51.3999 179.991 51.3999C180.641 51.3999 181.321 51.2399 181.921 51.6499Z" fill="#737777"/>
<path d="M114.671 27.32C111.521 27.32 108.371 27.32 105.221 27.32C104.291 27.32 103.251 27.3 103.191 26.05C103.121 24.7 104.181 24.44 105.221 24.44C111.431 24.41 117.651 24.41 123.861 24.44C124.831 24.44 126.021 24.5 126.011 25.91C126.011 27.33 124.871 27.31 123.861 27.32C120.791 27.33 117.731 27.32 114.661 27.32H114.671Z" fill="#6D7070"/>
<path d="M210.25 33.04C210.89 31.97 211.99 32.26 212.92 32.26C223.96 32.23 235.01 32.23 246.05 32.26C246.76 32.26 248.02 31.81 247.99 33.04C247.97 33.92 246.83 33.76 246.11 33.76C234.82 33.77 223.52 33.77 212.23 33.76C211.51 33.76 210.7 33.92 210.25 33.04Z" fill="#6C7070"/>
<path d="M65.0198 7.47978C67.0998 7.47978 69.1798 7.47978 71.2498 7.47978C72.0498 7.47978 72.8798 7.60978 72.7998 8.61978C72.7298 9.49978 71.8798 9.42978 71.2298 9.42978C67.0698 9.43978 62.9198 9.43978 58.7598 9.42978C57.9998 9.42978 57.0998 9.41978 57.0898 8.39978C57.0898 7.26978 58.0798 7.48978 58.7698 7.47978C60.8498 7.43978 62.9298 7.46978 64.9998 7.46978L65.0198 7.47978Z" fill="#6A6E6E"/>
<path d="M198.49 53.1599C196.43 53.1599 194.36 53.1599 192.3 53.1599C191.7 53.1599 191.07 53.0499 191.01 52.3099C190.93 51.3899 191.63 51.2499 192.32 51.2399C196.45 51.2299 200.58 51.2299 204.7 51.2399C205.38 51.2399 206.13 51.3299 206.13 52.2199C206.13 53.1199 205.34 53.1499 204.68 53.1599C202.62 53.1799 200.55 53.1599 198.49 53.1599Z" fill="#6B6E6E"/>
<path d="M89.6701 9.02007C87.2801 9.05007 84.8801 8.89007 82.5001 9.37007C81.6901 9.53007 80.6601 9.47007 80.5501 8.38007C80.4101 6.98007 81.6301 7.43007 82.3301 7.42007C86.3001 7.37007 90.2801 7.38007 94.2501 7.42007C94.9301 7.42007 96.0201 7.17007 95.9601 8.26007C95.9101 9.27007 94.8401 8.99007 94.1501 9.01007C92.6601 9.05007 91.1701 9.02007 89.6801 9.02007H89.6701Z" fill="#6F7373"/>
<path d="M221.11 51.15C223.17 51.15 225.24 51.14 227.3 51.15C227.85 51.15 228.58 51.0599 228.66 51.8499C228.75 52.6999 228.01 52.6699 227.45 52.6899C223.33 52.8199 219.2 52.46 215.1 53.09C214.31 53.21 213.51 52.86 213.58 51.91C213.65 51 214.53 51.17 215.15 51.16C217.13 51.14 219.11 51.16 221.1 51.16L221.11 51.15Z" fill="#6F7373"/>
<path d="M181.921 51.6498C166.631 51.6498 151.341 51.6498 136.051 51.6498C136.761 51.0498 137.621 51.2198 138.441 51.2198C152.141 51.2198 165.851 51.2198 179.551 51.2198C180.361 51.2198 181.231 50.9998 181.921 51.6598V51.6498Z" fill="#696D6D"/>
<path d="M197.351 33.7599C195.781 33.7599 194.201 33.7699 192.631 33.7599C192.061 33.7599 191.341 33.7599 191.381 32.9499C191.411 32.3199 192.04 32.2899 192.53 32.2899C195.76 32.2799 198.99 32.2699 202.22 32.2899C202.78 32.2899 203.541 32.2699 203.461 33.0899C203.391 33.8499 202.631 33.7699 202.071 33.7699C200.501 33.7899 198.921 33.7699 197.351 33.7699V33.7599Z" fill="#6C6F6F"/>
<path d="M17.8804 0.99C14.8704 1.83 11.7704 1.43 8.70044 1.26C8.48044 1.25 8.16044 0.85 8.11044 0.59C8.05044 0.23 8.39044 0 8.75044 0C11.7604 0 14.7804 0 17.8004 0C17.8304 0.33 17.8504 0.66 17.8804 0.99Z" fill="#616565"/>
<path d="M45.1305 74.9302C46.4105 74.9102 47.6505 74.9302 47.6205 76.4102C47.5905 77.9002 46.2405 77.4502 45.3405 77.5302C44.2005 77.6302 42.9705 77.4602 43.0005 76.0602C43.0305 74.6602 44.3905 75.0602 45.1305 74.9302Z" fill="#6B6F6F"/>
<path d="M130.811 26.8401C129.961 26.7601 128.781 26.9801 128.721 25.7401C128.661 24.3701 129.821 24.3301 130.831 24.3701C131.701 24.4001 132.871 24.2601 132.811 25.5601C132.761 26.6601 131.841 26.9601 130.801 26.8401H130.811Z" fill="#6A6E6E"/>
<path d="M23.1504 0.169922H32.4504C32.4504 0.349922 32.4504 0.529922 32.4504 0.709922H23.1704C23.1704 0.529922 23.1604 0.349922 23.1504 0.169922Z" fill="#777B7B"/>
<path d="M99.2692 8.95988C98.3792 8.89988 97.4592 8.95988 97.4192 7.96988C97.3792 6.90988 98.3292 7.00988 99.0392 6.99988C99.8492 6.98988 100.899 6.94988 100.849 8.08988C100.809 9.07988 99.7892 8.85988 99.2692 8.96988V8.95988Z" fill="#626666"/>
<path d="M98.0502 25.7298C97.9602 26.5798 97.7402 27.2598 96.9202 27.1798C96.0302 27.0898 96.1302 26.2898 96.1502 25.6498C96.1702 25.0698 96.2902 24.4398 97.0602 24.4698C97.9502 24.4998 97.9402 25.2498 98.0602 25.7298H98.0502Z" fill="#636666"/>
<path d="M103.15 7.1001C104.07 7.1001 104.51 7.5301 104.57 8.2801C104.62 8.9501 104.27 9.3701 103.57 9.3801C102.8 9.3801 102.31 9.0001 102.25 8.2301C102.2 7.5601 102.65 7.2201 103.15 7.1001Z" fill="#5E6262"/>
<path d="M231.721 52.6601C230.981 52.6001 230.051 52.6601 230.081 51.6401C230.101 50.9401 230.871 50.8801 231.441 50.9901C232.111 51.1101 233.161 50.8601 233.211 51.8701C233.261 52.8101 232.321 52.5701 231.731 52.6601H231.721Z" fill="#6D7171"/>
<path d="M236.789 52.1698C236.739 52.7498 236.419 53.0698 235.839 53.0598C235.039 53.0598 234.629 52.5398 234.619 51.8198C234.619 51.1798 235.189 51.1198 235.699 51.1298C236.359 51.1498 236.779 51.4398 236.779 52.1598L236.789 52.1698Z" fill="#646868"/>
<path d="M77.5308 8.71C77.4208 9.34 76.9408 9.47 76.4308 9.46C75.7708 9.46 74.9708 9.46 75.0008 8.53C75.0308 7.9 75.7008 7.94 76.1808 7.93C76.7708 7.92 77.3708 7.95 77.5308 8.7V8.71Z" fill="#727676"/>
<path d="M209.35 51.6599C209.95 51.6799 210.63 51.7899 210.65 52.4799C210.67 53.2999 209.91 53.1799 209.36 53.1699C208.76 53.1699 208.13 53.0099 208.19 52.2499C208.24 51.5799 208.88 51.6999 209.35 51.6499V51.6599Z" fill="#6A6E6E"/>
<path d="M115.04 7.48022C115.65 7.46022 116.22 7.62022 116.36 8.26022C116.46 8.73022 116.02 8.93021 115.58 8.94021C114.97 8.97021 114.4 8.77022 114.27 8.14022C114.17 7.67022 114.6 7.48021 115.05 7.47021L115.04 7.48022Z" fill="#5F6363"/>
<path d="M248.19 52.15C248.09 52.56 247.69 52.63 247.26 52.63C246.79 52.63 246.41 52.39 246.43 51.91C246.45 51.24 246.98 51.15 247.51 51.22C247.96 51.28 248.27 51.53 248.19 52.15Z" fill="#6E7171"/>
<path d="M188.64 33.3398C188.26 33.2698 187.74 33.3098 187.78 32.7498C187.82 32.2198 188.33 32.2498 188.71 32.2598C189.1 32.2598 189.61 32.2998 189.57 32.8398C189.53 33.3698 189.01 33.2798 188.63 33.3398H188.64Z" fill="#696D6D"/>
<path d="M132.22 7.87995C132.19 8.39995 132.05 8.70995 131.66 8.70995C131.28 8.70995 131.1 8.40995 131.07 8.05995C131.03 7.61995 131.15 7.18995 131.7 7.30995C131.94 7.35995 132.1 7.73995 132.22 7.87995Z" fill="#575B5B"/>
<path d="M53.2096 8.41006C53.2196 8.75006 53.1696 9.10006 52.7896 9.18006C52.3296 9.28006 52.2696 8.87006 52.2096 8.56006C52.1496 8.22006 52.2496 7.87006 52.6196 7.79006C53.0696 7.69006 53.1196 8.09006 53.2096 8.40006V8.41006Z" fill="#666A6A"/>
<path d="M239.74 52.3701C239.64 52.4801 239.51 52.7701 239.35 52.7901C238.9 52.8401 238.83 52.4501 238.86 52.1201C238.88 51.9301 239.07 51.5901 239.19 51.5901C239.6 51.5801 239.7 51.9101 239.74 52.3601V52.3701Z" fill="#696C6C"/>
<path d="M20.6109 0.769866C20.4809 1.11987 20.2109 1.25987 19.8809 1.12987C19.7009 1.05987 19.4609 0.829866 19.4609 0.659866C19.4609 0.299866 19.7609 0.139866 20.1009 0.159866C20.4609 0.179866 20.6509 0.389866 20.6209 0.769866H20.6109Z" fill="#6E7272"/>
<path d="M122.56 8.3699C122.26 8.5599 122.08 8.7799 121.92 8.7599C121.58 8.7299 121.37 8.4399 121.46 8.1099C121.5 7.9399 121.85 7.6799 121.89 7.7099C122.12 7.8599 122.29 8.0899 122.56 8.3699Z" fill="#6D7171"/>
<path d="M207.41 33.3202C207.12 33.3602 206.81 33.4802 206.74 33.4002C206.61 33.2502 206.54 32.9602 206.59 32.7702C206.62 32.6602 207.05 32.5402 207.13 32.6102C207.28 32.7402 207.3 33.0102 207.41 33.3302V33.3202Z" fill="#5B5F5F"/>
<path d="M107.49 8.6599C107.37 8.7599 107.19 9.0099 107.03 8.9999C106.62 8.9799 106.58 8.5999 106.63 8.2999C106.66 8.1299 106.91 7.8599 107.03 7.8699C107.4 7.9099 107.5 8.2299 107.49 8.6699V8.6599Z" fill="#6B6E6E"/>
<path d="M254.29 52.1101C253.99 52.3001 253.81 52.5101 253.65 52.5001C253.3 52.4701 253.1 52.1801 253.18 51.8501C253.22 51.6801 253.57 51.4201 253.62 51.4501C253.85 51.6001 254.02 51.8301 254.29 52.1201V52.1101Z" fill="#6A6D6D"/>
<path d="M187.03 52.53C186.84 52.67 186.68 52.8 186.52 52.92C186.39 52.75 186.16 52.59 186.14 52.4C186.1 52.05 186.31 51.75 186.7 51.86C186.84 51.9 186.9 52.25 187.03 52.53Z" fill="#787B7B"/>
<path d="M110.421 8.15992C110.301 8.26992 110.151 8.39992 110.001 8.53992C109.901 8.36992 109.741 8.21992 109.711 8.03992C109.691 7.93992 109.841 7.72992 109.951 7.69992C110.231 7.61992 110.371 7.79992 110.421 8.15992Z" fill="#636767"/>
</g>
<defs>
<clipPath id="clip0_44_4743">
<rect width="263.43" height="77.55" fill="white"/>
</clipPath>
</defs>
</svg>
