<svg width="984" height="428" viewBox="0 0 984 428" fill="none" xmlns="http://www.w3.org/2000/svg">
<g style="mix-blend-mode:multiply">
<path d="M140 122L137 122C131.477 122 127 117.523 127 112L127 12C127 6.47715 131.477 2 137 2L140 2" stroke="#A1AAB6" stroke-width="3" stroke-linecap="round"/>
</g>
<g style="mix-blend-mode:multiply">
<path d="M141 424L137 424C131.477 424 127 419.523 127 414L127 202C127 196.477 131.477 192 137 192L141 192" stroke="#A1AAB6" stroke-width="3" stroke-linecap="round"/>
</g>
<path d="M30.9005 60V45.46H34.0205V60H30.9005ZM36.7575 60V49.42H38.7375L39.1575 51.04C40.1308 49.8 41.3908 49.18 42.9375 49.18C44.1508 49.18 45.0775 49.5533 45.7175 50.3C46.3575 51.0333 46.6775 52.1 46.6775 53.5V60H43.6375V53.6C43.6375 52.3067 43.0975 51.66 42.0175 51.66C41.5375 51.66 41.0975 51.8 40.6975 52.08C40.3108 52.36 40.0108 52.7533 39.7975 53.26V60H36.7575ZM49.7584 56.36V51.7H47.8984V50.18L49.8984 49.36L50.7984 46.38H52.7984V49.42H55.0584V51.7H52.7984V56.2C52.7984 56.72 52.9251 57.0933 53.1784 57.32C53.4451 57.5333 53.8251 57.64 54.3184 57.64C54.4518 57.64 54.5984 57.64 54.7584 57.64C54.9184 57.6267 55.0584 57.6133 55.1784 57.6V60.02C54.8584 60.0733 54.5651 60.1067 54.2984 60.12C54.0451 60.1333 53.7584 60.14 53.4384 60.14C52.2251 60.14 51.3051 59.8333 50.6784 59.22C50.0651 58.6067 49.7584 57.6533 49.7584 56.36ZM65.6937 59.5C64.6671 59.9933 63.4404 60.24 62.0138 60.24C60.2004 60.24 58.8071 59.7667 57.8338 58.82C56.8604 57.86 56.3738 56.48 56.3738 54.68C56.3738 52.96 56.8404 51.6133 57.7738 50.64C58.7204 49.6667 60.0204 49.18 61.6738 49.18C63.1404 49.18 64.2604 49.6067 65.0338 50.46C65.8071 51.3133 66.1938 52.4933 66.1938 54V55.54H59.3938C59.5138 56.3667 59.8071 56.9667 60.2738 57.34C60.7538 57.7133 61.4404 57.9 62.3338 57.9C62.8938 57.9 63.4271 57.8533 63.9338 57.76C64.4538 57.6533 65.0404 57.4733 65.6937 57.22V59.5ZM61.6338 51.38C60.2071 51.38 59.4404 52.1067 59.3338 53.56H63.4938C63.4671 52.88 63.2871 52.3467 62.9538 51.96C62.6204 51.5733 62.1804 51.38 61.6338 51.38ZM71.2819 60H68.2419V49.42H70.2219L70.6419 50.98C70.9885 50.4733 71.4219 50.08 71.9419 49.8C72.4619 49.5067 73.0619 49.36 73.7419 49.36C74.0352 49.36 74.2885 49.38 74.5019 49.42V52.16H73.8619C73.1819 52.16 72.6152 52.34 72.1619 52.7C71.7085 53.0467 71.4152 53.5133 71.2819 54.1V60ZM76.445 60V49.42H78.425L78.845 51.04C79.8183 49.8 81.0783 49.18 82.625 49.18C83.8383 49.18 84.765 49.5533 85.405 50.3C86.045 51.0333 86.365 52.1 86.365 53.5V60H83.325V53.6C83.325 52.3067 82.785 51.66 81.705 51.66C81.225 51.66 80.785 51.8 80.385 52.08C79.9983 52.36 79.6983 52.7533 79.485 53.26V60H76.445ZM97.6859 59.5C96.6593 59.9933 95.4326 60.24 94.0059 60.24C92.1926 60.24 90.7993 59.7667 89.8259 58.82C88.8526 57.86 88.3659 56.48 88.3659 54.68C88.3659 52.96 88.8326 51.6133 89.7659 50.64C90.7126 49.6667 92.0126 49.18 93.6659 49.18C95.1326 49.18 96.2526 49.6067 97.0259 50.46C97.7993 51.3133 98.1859 52.4933 98.1859 54V55.54H91.3859C91.5059 56.3667 91.7993 56.9667 92.2659 57.34C92.7459 57.7133 93.4326 57.9 94.3259 57.9C94.8859 57.9 95.4193 57.8533 95.9259 57.76C96.4459 57.6533 97.0326 57.4733 97.6859 57.22V59.5ZM93.6259 51.38C92.1993 51.38 91.4326 52.1067 91.3259 53.56H95.4859C95.4593 52.88 95.2793 52.3467 94.9459 51.96C94.6126 51.5733 94.1726 51.38 93.6259 51.38ZM100.969 56.36V51.7H99.1094V50.18L101.109 49.36L102.009 46.38H104.009V49.42H106.269V51.7H104.009V56.2C104.009 56.72 104.136 57.0933 104.389 57.32C104.656 57.5333 105.036 57.64 105.529 57.64C105.663 57.64 105.809 57.64 105.969 57.64C106.129 57.6267 106.269 57.6133 106.389 57.6V60.02C106.069 60.0733 105.776 60.1067 105.509 60.12C105.256 60.1333 104.969 60.14 104.649 60.14C103.436 60.14 102.516 59.8333 101.889 59.22C101.276 58.6067 100.969 57.6533 100.969 56.36Z" fill="#F1EFED"/>
<path d="M8.60672 319.28C6.43339 319.28 4.75339 318.627 3.56672 317.32C2.39339 316 1.80672 314.133 1.80672 311.72C1.80672 309.333 2.40005 307.48 3.58672 306.16C4.77339 304.84 6.44672 304.18 8.60672 304.18C10.7667 304.18 12.4401 304.84 13.6267 306.16C14.8134 307.48 15.4067 309.333 15.4067 311.72C15.4067 314.133 14.8201 316 13.6467 317.32C12.4734 318.627 10.7934 319.28 8.60672 319.28ZM8.60672 316.62C9.82005 316.62 10.7201 316.2 11.3067 315.36C11.9067 314.52 12.2067 313.307 12.2067 311.72C12.2067 310.133 11.9067 308.927 11.3067 308.1C10.7201 307.26 9.82005 306.84 8.60672 306.84C7.39339 306.84 6.48672 307.26 5.88672 308.1C5.30005 308.927 5.00672 310.133 5.00672 311.72C5.00672 313.307 5.30005 314.52 5.88672 315.36C6.48672 316.2 7.39339 316.62 8.60672 316.62ZM28.4359 315.82V318.42C27.9159 318.66 27.3093 318.86 26.6159 319.02C25.9359 319.193 25.1826 319.28 24.3559 319.28C22.0226 319.28 20.2559 318.62 19.0559 317.3C17.8559 315.967 17.2559 314.053 17.2559 311.56C17.2559 310.027 17.5493 308.713 18.1359 307.62C18.7226 306.513 19.5559 305.667 20.6359 305.08C21.7159 304.48 23.0026 304.18 24.4959 304.18C25.2026 304.18 25.8559 304.253 26.4559 304.4C27.0559 304.547 27.5826 304.733 28.0359 304.96V307.6C27.3293 307.333 26.7159 307.147 26.1959 307.04C25.6893 306.933 25.1959 306.88 24.7159 306.88C23.3426 306.88 22.2893 307.287 21.5559 308.1C20.8226 308.913 20.4559 310.067 20.4559 311.56C20.4559 313.173 20.8159 314.42 21.5359 315.3C22.2559 316.167 23.3159 316.6 24.7159 316.6C25.2759 316.6 25.8426 316.54 26.4159 316.42C27.0026 316.287 27.6759 316.087 28.4359 315.82ZM30.4708 319V304.46H33.5908V319H30.4708ZM41.3302 319V304.46H46.9102C48.6435 304.46 49.9768 304.86 50.9102 305.66C51.8435 306.46 52.3102 307.593 52.3102 309.06C52.3102 310.087 52.0435 310.96 51.5102 311.68C50.9902 312.4 50.2502 312.913 49.2902 313.22L52.9302 319H49.4902L46.4102 313.78L44.4302 313.28V319H41.3302ZM44.4302 311.24H45.9502C47.1635 311.24 48.0035 311.087 48.4702 310.78C48.9502 310.46 49.1902 309.907 49.1902 309.12C49.1902 308.333 48.9502 307.787 48.4702 307.48C48.0035 307.16 47.1635 307 45.9502 307H44.4302V311.24ZM62.9008 318.5C61.8741 318.993 60.6474 319.24 59.2208 319.24C57.4074 319.24 56.0141 318.767 55.0408 317.82C54.0674 316.86 53.5808 315.48 53.5808 313.68C53.5808 311.96 54.0474 310.613 54.9808 309.64C55.9274 308.667 57.2274 308.18 58.8808 308.18C60.3474 308.18 61.4674 308.607 62.2408 309.46C63.0141 310.313 63.4008 311.493 63.4008 313V314.54H56.6008C56.7208 315.367 57.0141 315.967 57.4808 316.34C57.9608 316.713 58.6474 316.9 59.5408 316.9C60.1008 316.9 60.6341 316.853 61.1408 316.76C61.6608 316.653 62.2474 316.473 62.9008 316.22V318.5ZM58.8408 310.38C57.4141 310.38 56.6474 311.107 56.5408 312.56H60.7008C60.6741 311.88 60.4941 311.347 60.1608 310.96C59.8274 310.573 59.3874 310.38 58.8408 310.38ZM65.1489 317.88L64.8089 316.56L66.5289 314.1C65.8889 313.487 65.5689 312.707 65.5689 311.76C65.5689 310.627 65.9622 309.747 66.7489 309.12C67.5489 308.493 68.6556 308.18 70.0689 308.18C70.8022 308.18 71.4956 308.293 72.1489 308.52L75.8089 308.5V310L74.6889 310.46C75.0356 310.887 75.2089 311.407 75.2089 312.02C75.2089 313.047 74.7822 313.853 73.9289 314.44C73.0756 315.027 71.8956 315.32 70.3889 315.32C69.6556 315.32 68.9956 315.24 68.4089 315.08L67.6489 316.16L72.3689 316.72C74.6756 317 75.8289 318.027 75.8289 319.8C75.8289 320.867 75.3422 321.707 74.3689 322.32C73.3956 322.947 72.0689 323.26 70.3889 323.26C68.6556 323.26 67.3356 323.007 66.4289 322.5C65.5222 321.993 65.0689 321.253 65.0689 320.28C65.0689 319.453 65.4556 318.72 66.2289 318.08L65.1489 317.88ZM68.3289 311.76C68.3289 312.773 69.0156 313.28 70.3889 313.28C71.7622 313.28 72.4489 312.773 72.4489 311.76C72.4489 310.747 71.7622 310.24 70.3889 310.24C69.0156 310.24 68.3289 310.747 68.3289 311.76ZM67.9089 319.68C67.9089 320.147 68.1022 320.487 68.4889 320.7C68.8889 320.913 69.5222 321.02 70.3889 321.02C72.0822 321.02 72.9289 320.66 72.9289 319.94C72.9289 319.673 72.8489 319.473 72.6889 319.34C72.5289 319.22 72.2156 319.12 71.7489 319.04L68.4089 318.46C68.0756 318.82 67.9089 319.227 67.9089 319.68ZM77.7884 306.56V304.22H81.1484V306.56H77.7884ZM78.1084 319V310.56L77.0084 309.64V308.42H81.1484V319H78.1084ZM88.5088 319.24C86.8554 319.24 85.5621 318.753 84.6288 317.78C83.7088 316.807 83.2488 315.447 83.2488 313.7C83.2488 311.953 83.7088 310.6 84.6288 309.64C85.5621 308.667 86.8554 308.18 88.5088 308.18C90.1754 308.18 91.4688 308.667 92.3888 309.64C93.3088 310.6 93.7687 311.953 93.7687 313.7C93.7687 315.447 93.3088 316.807 92.3888 317.78C91.4688 318.753 90.1754 319.24 88.5088 319.24ZM88.5088 316.94C89.9754 316.94 90.7088 315.86 90.7088 313.7C90.7088 311.553 89.9754 310.48 88.5088 310.48C87.0421 310.48 86.3088 311.553 86.3088 313.7C86.3088 315.86 87.0421 316.94 88.5088 316.94ZM95.8591 319V308.42H97.8391L98.2591 310.04C99.2324 308.8 100.492 308.18 102.039 308.18C103.252 308.18 104.179 308.553 104.819 309.3C105.459 310.033 105.779 311.1 105.779 312.5V319H102.739V312.6C102.739 311.307 102.199 310.66 101.119 310.66C100.639 310.66 100.199 310.8 99.7991 311.08C99.4124 311.36 99.1124 311.753 98.8991 312.26V319H95.8591Z" fill="#F1EFED"/>
<g clip-path="url(#clip0_88_6049)">
<path d="M495 34.6668C492.426 34.6668 490.333 32.5738 490.333 30.0001C490.333 27.4264 492.426 25.3334 495 25.3334C497.574 25.3334 499.667 27.4264 499.667 30.0001C499.667 32.5738 497.574 34.6668 495 34.6668ZM495 32.3334C496.286 32.3334 497.333 31.2858 497.333 30.0001C497.333 28.7144 496.286 27.6668 495 27.6668C493.714 27.6668 492.667 28.7144 492.667 30.0001C492.667 31.2858 493.714 32.3334 495 32.3334ZM501.977 42.5954C501.305 39.3521 498.372 37.0001 495 37.0001C491.628 37.0001 488.695 39.3544 488.023 42.5954C487.893 43.2278 488.299 43.8438 488.929 43.9744C489.549 44.0934 490.177 43.6968 490.308 43.0691C490.756 40.9038 492.73 39.3311 494.998 39.3311C497.266 39.3311 499.24 40.9014 499.688 43.0691C499.802 43.6198 500.29 43.9978 500.831 43.9978C501.461 43.8671 502.103 43.2254 501.974 42.5931L501.977 42.5954ZM500.833 44.0001C500.913 44.0001 500.754 44.0164 500.833 44.0001ZM523 8.04811V14.6164C523 17.9508 520.501 20.6644 517.167 20.6644C516.896 20.6644 516.194 20.7601 515.986 20.9328L512.778 23.5881C512.344 23.9731 511.791 24.1691 511.233 24.1691C510.664 24.1691 510.092 23.9684 509.635 23.5624L506.459 20.9351C506.251 20.7624 505.985 20.6668 505.715 20.6668C502.38 20.6668 499.667 17.9531 499.667 14.6188V8.05044C499.667 4.71611 502.38 2.00244 505.715 2.00244H516.95C520.284 2.00244 522.998 4.71611 522.998 8.05044L523 8.04811ZM520.667 8.04811C520.667 5.99944 519.001 4.33344 516.952 4.33344H505.717C503.668 4.33344 502.002 5.99944 502.002 8.04811V14.6164C502.002 16.6651 503.668 18.3311 505.717 18.3311C506.529 18.3311 507.322 18.6158 507.948 19.1338L511.156 21.7891L514.5 19.1338C515.125 18.6158 516.355 18.3311 517.169 18.3311C519.218 18.3311 520.669 16.6651 520.669 14.6164L520.667 8.04811ZM523 52.1668C523 55.3821 520.382 58.0001 517.167 58.0001H472.833C469.618 58.0001 467 55.3821 467 52.1668C467 49.3504 469.007 46.9938 471.667 46.4501V26.5001C471.667 20.7111 476.378 16.0001 482.167 16.0001H493.833C494.477 16.0001 495 16.5228 495 17.1668C495 17.8108 494.477 18.3334 493.833 18.3334H482.167C477.663 18.3334 474 21.9968 474 26.5001V46.3334H486.833C487.144 46.3334 487.44 46.4571 487.659 46.6741L489.652 48.6668H500.353L502.345 46.6741C502.565 46.4548 502.861 46.3334 503.171 46.3334H516.005V28.8334C516.005 28.1894 516.527 27.6668 517.171 27.6668C517.815 27.6668 518.338 28.1894 518.338 28.8334V46.4501C520.998 46.9914 523.005 49.3481 523.005 52.1668H523ZM520.667 52.1668C520.667 50.2371 519.096 48.6668 517.167 48.6668H503.65L501.657 50.6594C501.438 50.8788 501.141 51.0001 500.831 51.0001H489.164C488.854 51.0001 488.558 50.8764 488.338 50.6594L486.346 48.6668H472.833C470.904 48.6668 469.333 50.2371 469.333 52.1668C469.333 54.0964 470.904 55.6668 472.833 55.6668H517.167C519.096 55.6668 520.667 54.0964 520.667 52.1668Z" fill="#F1EFED"/>
</g>
<path d="M436.677 91V79.368H438.677V89.208H444.085V91H436.677ZM450.954 91L450.682 89.752C450.373 90.2107 449.984 90.568 449.514 90.824C449.045 91.0693 448.528 91.192 447.962 91.192C447.098 91.192 446.41 90.952 445.898 90.472C445.397 89.992 445.146 89.3413 445.146 88.52C445.146 87.6453 445.466 86.9573 446.106 86.456C446.746 85.9547 447.621 85.704 448.73 85.704H450.314V85.304C450.314 84.7707 450.202 84.408 449.978 84.216C449.754 84.024 449.36 83.928 448.794 83.928C447.952 83.928 446.992 84.1253 445.914 84.52V83C446.341 82.8187 446.826 82.6747 447.37 82.568C447.914 82.4613 448.448 82.408 448.97 82.408C451.157 82.408 452.25 83.368 452.25 85.288V91H450.954ZM448.362 89.72C448.757 89.72 449.13 89.6187 449.482 89.416C449.834 89.2027 450.122 88.9093 450.346 88.536V86.952H448.954C447.664 86.952 447.018 87.4213 447.018 88.36C447.018 88.7867 447.136 89.1227 447.37 89.368C447.605 89.6027 447.936 89.72 448.362 89.72ZM454.425 94.216V82.584H455.721L456.009 83.88C456.339 83.4107 456.739 83.048 457.209 82.792C457.689 82.536 458.201 82.408 458.745 82.408C459.854 82.408 460.723 82.7973 461.353 83.576C461.982 84.344 462.297 85.4213 462.297 86.808C462.297 88.1947 461.982 89.272 461.353 90.04C460.734 90.7973 459.865 91.176 458.745 91.176C457.827 91.176 457.038 90.8613 456.377 90.232V94.216H454.425ZM458.377 83.976C457.971 83.976 457.587 84.088 457.225 84.312C456.873 84.5253 456.585 84.8133 456.361 85.176V88.68C456.894 89.3093 457.566 89.624 458.377 89.624C459.006 89.624 459.486 89.384 459.817 88.904C460.158 88.4133 460.329 87.7093 460.329 86.792C460.329 85.8747 460.158 85.176 459.817 84.696C459.486 84.216 459.006 83.976 458.377 83.976ZM464.386 88.264V84.104H462.93V83.128L464.434 82.552L465.09 80.216H466.338V82.584H468.146V84.104H466.338V88.248C466.338 88.696 466.439 89.0213 466.642 89.224C466.844 89.416 467.143 89.512 467.538 89.512C467.655 89.512 467.778 89.512 467.906 89.512C468.044 89.5013 468.156 89.4907 468.242 89.48V91.016C468.028 91.048 467.831 91.0693 467.65 91.08C467.479 91.0907 467.287 91.096 467.074 91.096C466.167 91.096 465.49 90.8667 465.042 90.408C464.604 89.9493 464.386 89.2347 464.386 88.264ZM473.431 91.176C472.141 91.176 471.133 90.792 470.407 90.024C469.693 89.256 469.335 88.1787 469.335 86.792C469.335 85.4053 469.693 84.328 470.407 83.56C471.133 82.792 472.141 82.408 473.431 82.408C474.733 82.408 475.741 82.792 476.455 83.56C477.17 84.328 477.527 85.4053 477.527 86.792C477.527 88.1787 477.17 89.256 476.455 90.024C475.741 90.792 474.733 91.176 473.431 91.176ZM473.431 89.656C474.85 89.656 475.559 88.7013 475.559 86.792C475.559 84.8827 474.85 83.928 473.431 83.928C472.013 83.928 471.303 84.8827 471.303 86.792C471.303 88.7013 472.013 89.656 473.431 89.656ZM479.284 94.216V82.584H480.58L480.868 83.88C481.199 83.4107 481.599 83.048 482.068 82.792C482.548 82.536 483.06 82.408 483.604 82.408C484.713 82.408 485.583 82.7973 486.212 83.576C486.841 84.344 487.156 85.4213 487.156 86.808C487.156 88.1947 486.841 89.272 486.212 90.04C485.593 90.7973 484.724 91.176 483.604 91.176C482.687 91.176 481.897 90.8613 481.236 90.232V94.216H479.284ZM483.236 83.976C482.831 83.976 482.447 84.088 482.084 84.312C481.732 84.5253 481.444 84.8133 481.22 85.176V88.68C481.753 89.3093 482.425 89.624 483.236 89.624C483.865 89.624 484.345 89.384 484.676 88.904C485.017 88.4133 485.188 87.7093 485.188 86.792C485.188 85.8747 485.017 85.176 484.676 84.696C484.345 84.216 483.865 83.976 483.236 83.976ZM494.367 91L491.935 82.584H493.903L495.359 88.104L496.959 82.824H498.543L500.143 88.2L501.647 82.584H503.551L501.135 91H499.567L497.743 85.064L495.935 91H494.367ZM504.89 80.888V79.288H507.114V80.888H504.89ZM505.178 91V84.008L504.33 83.384V82.584H507.13V91H505.178ZM509.698 88.264V84.104H508.242V83.128L509.746 82.552L510.402 80.216H511.65V82.584H513.458V84.104H511.65V88.248C511.65 88.696 511.752 89.0213 511.954 89.224C512.157 89.416 512.456 89.512 512.85 89.512C512.968 89.512 513.09 89.512 513.218 89.512C513.357 89.5013 513.469 89.4907 513.554 89.48V91.016C513.341 91.048 513.144 91.0693 512.962 91.08C512.792 91.0907 512.6 91.096 512.386 91.096C511.48 91.096 510.802 90.8667 510.354 90.408C509.917 89.9493 509.698 89.2347 509.698 88.264ZM515.284 91V78.984H517.236V83.64C517.567 83.2453 517.951 82.9413 518.388 82.728C518.836 82.5147 519.337 82.408 519.892 82.408C520.863 82.408 521.604 82.7013 522.116 83.288C522.628 83.864 522.884 84.7067 522.884 85.816V91H520.932V85.88C520.932 84.6427 520.404 84.024 519.348 84.024C518.889 84.024 518.468 84.1627 518.084 84.44C517.711 84.7173 517.428 85.0907 517.236 85.56V91H515.284ZM529.083 91V79.368H531.163L535.195 87.688L539.163 79.368H541.227V91H539.275V82.824L535.851 89.88H534.443L531.035 82.936V91H529.083ZM543.405 80.888V79.288H545.629V80.888H543.405ZM543.693 91V84.008L542.845 83.384V82.584H545.645V91H543.693ZM553.99 89.096V90.68C553.659 90.84 553.27 90.9627 552.822 91.048C552.374 91.144 551.904 91.192 551.414 91.192C548.736 91.192 547.398 89.6933 547.398 86.696C547.398 85.3307 547.755 84.2747 548.47 83.528C549.195 82.7813 550.214 82.408 551.526 82.408C552.368 82.408 553.11 82.552 553.75 82.84V84.408C553.142 84.0987 552.523 83.944 551.894 83.944C550.208 83.944 549.366 84.8613 549.366 86.696C549.366 87.6987 549.558 88.44 549.942 88.92C550.336 89.4 550.934 89.64 551.734 89.64C552.374 89.64 553.126 89.4587 553.99 89.096ZM456.72 112L456.448 110.752C456.139 111.211 455.749 111.568 455.28 111.824C454.811 112.069 454.293 112.192 453.728 112.192C452.864 112.192 452.176 111.952 451.664 111.472C451.163 110.992 450.912 110.341 450.912 109.52C450.912 108.645 451.232 107.957 451.872 107.456C452.512 106.955 453.387 106.704 454.496 106.704H456.08V106.304C456.08 105.771 455.968 105.408 455.744 105.216C455.52 105.024 455.125 104.928 454.56 104.928C453.717 104.928 452.757 105.125 451.68 105.52V104C452.107 103.819 452.592 103.675 453.136 103.568C453.68 103.461 454.213 103.408 454.736 103.408C456.923 103.408 458.016 104.368 458.016 106.288V112H456.72ZM454.128 110.72C454.523 110.72 454.896 110.619 455.248 110.416C455.6 110.203 455.888 109.909 456.112 109.536V107.952H454.72C453.429 107.952 452.784 108.421 452.784 109.36C452.784 109.787 452.901 110.123 453.136 110.368C453.371 110.603 453.701 110.72 454.128 110.72ZM460.19 112V103.584H461.486L461.774 104.944C462.148 104.453 462.585 104.075 463.086 103.808C463.598 103.541 464.169 103.408 464.798 103.408C465.769 103.408 466.51 103.701 467.022 104.288C467.534 104.864 467.79 105.707 467.79 106.816V112H465.838V106.88C465.838 105.643 465.31 105.024 464.254 105.024C463.796 105.024 463.374 105.163 462.99 105.44C462.617 105.717 462.334 106.091 462.142 106.56V112H460.19ZM476.068 112L475.78 110.704C475.449 111.173 475.044 111.536 474.564 111.792C474.094 112.048 473.588 112.176 473.044 112.176C471.934 112.176 471.065 111.792 470.436 111.024C469.806 110.245 469.492 109.163 469.492 107.776C469.492 106.389 469.801 105.317 470.42 104.56C471.049 103.792 471.924 103.408 473.044 103.408C473.961 103.408 474.75 103.723 475.412 104.352V99.984H477.364V112H476.068ZM471.46 107.792C471.46 108.699 471.625 109.397 471.956 109.888C472.297 110.368 472.782 110.608 473.412 110.608C473.817 110.608 474.196 110.501 474.548 110.288C474.91 110.064 475.204 109.771 475.428 109.408V105.904C474.894 105.275 474.222 104.96 473.412 104.96C472.782 104.96 472.297 105.205 471.956 105.696C471.625 106.176 471.46 106.875 471.46 107.792ZM492.014 109.792V111.488C491.566 111.723 491.065 111.899 490.51 112.016C489.956 112.144 489.364 112.208 488.734 112.208C486.942 112.208 485.566 111.68 484.606 110.624C483.657 109.568 483.182 108.043 483.182 106.048C483.182 104.821 483.406 103.771 483.854 102.896C484.313 102.021 484.964 101.349 485.806 100.88C486.66 100.4 487.668 100.16 488.83 100.16C489.342 100.16 489.849 100.219 490.35 100.336C490.852 100.453 491.284 100.619 491.646 100.832V102.512C491.092 102.288 490.606 102.128 490.19 102.032C489.774 101.936 489.364 101.888 488.958 101.888C487.764 101.888 486.841 102.256 486.19 102.992C485.54 103.717 485.214 104.736 485.214 106.048C485.214 107.467 485.534 108.56 486.174 109.328C486.825 110.085 487.753 110.464 488.958 110.464C489.428 110.464 489.902 110.411 490.382 110.304C490.873 110.197 491.417 110.027 492.014 109.792ZM499.236 112L498.964 110.752C498.654 111.211 498.265 111.568 497.796 111.824C497.326 112.069 496.809 112.192 496.244 112.192C495.38 112.192 494.692 111.952 494.18 111.472C493.678 110.992 493.428 110.341 493.428 109.52C493.428 108.645 493.748 107.957 494.388 107.456C495.028 106.955 495.902 106.704 497.012 106.704H498.596V106.304C498.596 105.771 498.484 105.408 498.26 105.216C498.036 105.024 497.641 104.928 497.076 104.928C496.233 104.928 495.273 105.125 494.196 105.52V104C494.622 103.819 495.108 103.675 495.652 103.568C496.196 103.461 496.729 103.408 497.252 103.408C499.438 103.408 500.532 104.368 500.532 106.288V112H499.236ZM496.644 110.72C497.038 110.72 497.412 110.619 497.764 110.416C498.116 110.203 498.404 109.909 498.628 109.536V107.952H497.236C495.945 107.952 495.3 108.421 495.3 109.36C495.3 109.787 495.417 110.123 495.652 110.368C495.886 110.603 496.217 110.72 496.644 110.72ZM502.706 112V103.584H504.002L504.29 104.896C504.621 104.427 505.026 104.064 505.506 103.808C505.986 103.541 506.503 103.408 507.058 103.408C508.253 103.408 509.074 103.899 509.522 104.88C509.842 104.421 510.247 104.064 510.738 103.808C511.229 103.541 511.762 103.408 512.338 103.408C513.255 103.408 513.954 103.701 514.434 104.288C514.925 104.864 515.17 105.707 515.17 106.816V112H513.218V106.88C513.218 105.643 512.738 105.024 511.778 105.024C511.33 105.024 510.941 105.157 510.61 105.424C510.29 105.68 510.055 106.043 509.906 106.512V112H507.986V106.88C507.986 105.643 507.501 105.024 506.53 105.024C506.093 105.024 505.709 105.163 505.378 105.44C505.047 105.717 504.807 106.091 504.658 106.56V112H502.706ZM524.019 111.6C523.667 111.781 523.24 111.925 522.739 112.032C522.237 112.139 521.704 112.192 521.139 112.192C519.752 112.192 518.691 111.813 517.955 111.056C517.229 110.299 516.867 109.195 516.867 107.744C516.867 106.357 517.213 105.291 517.907 104.544C518.611 103.787 519.597 103.408 520.867 103.408C522.04 103.408 522.925 103.744 523.523 104.416C524.12 105.077 524.419 106.027 524.419 107.264V108.352H518.803C518.877 109.152 519.117 109.733 519.523 110.096C519.939 110.459 520.541 110.64 521.331 110.64C521.8 110.64 522.243 110.597 522.659 110.512C523.075 110.416 523.528 110.267 524.019 110.064V111.6ZM520.851 104.88C519.571 104.88 518.883 105.579 518.787 106.976H522.627C522.616 105.579 522.024 104.88 520.851 104.88ZM526.128 112V103.584H527.424L527.728 104.976C527.994 104.528 528.33 104.181 528.736 103.936C529.141 103.68 529.616 103.552 530.16 103.552C530.362 103.552 530.549 103.568 530.72 103.6V105.344H530.256C529.669 105.344 529.189 105.509 528.816 105.84C528.442 106.16 528.197 106.587 528.08 107.12V112H526.128ZM537.314 112L537.042 110.752C536.732 111.211 536.343 111.568 535.874 111.824C535.404 112.069 534.887 112.192 534.322 112.192C533.458 112.192 532.77 111.952 532.258 111.472C531.756 110.992 531.506 110.341 531.506 109.52C531.506 108.645 531.826 107.957 532.466 107.456C533.106 106.955 533.98 106.704 535.09 106.704H536.674V106.304C536.674 105.771 536.562 105.408 536.338 105.216C536.114 105.024 535.719 104.928 535.154 104.928C534.311 104.928 533.351 105.125 532.274 105.52V104C532.7 103.819 533.186 103.675 533.73 103.568C534.274 103.461 534.807 103.408 535.33 103.408C537.516 103.408 538.61 104.368 538.61 106.288V112H537.314ZM534.722 110.72C535.116 110.72 535.49 110.619 535.842 110.416C536.194 110.203 536.482 109.909 536.706 109.536V107.952H535.314C534.023 107.952 533.378 108.421 533.378 109.36C533.378 109.787 533.495 110.123 533.73 110.368C533.964 110.603 534.295 110.72 534.722 110.72Z" fill="#F1EFED"/>
<g clip-path="url(#clip1_88_6049)">
<path d="M651.139 345.269C648.178 341.319 644.181 338.404 639.713 336.703C636.458 335.425 632.921 334.935 629.446 335.033C628.802 335.063 628.305 335.609 628.336 336.251C628.366 336.895 628.912 337.45 629.554 337.361C633.52 337.238 637.503 338.054 641.052 339.837C646.965 342.971 650.243 347.227 653.41 353.667H645.833C643.904 353.667 642.333 355.237 642.333 357.167C642.333 359.096 643.904 360.667 645.833 360.667H656.641C657.843 363.525 658.667 365.863 658.667 366.607C658.667 366.927 658.543 367.667 657.393 367.667H655.162C654.611 367.667 654.14 368.052 654.026 368.591L652.623 375.194C651.828 378.944 648.47 381.664 644.634 381.664H641.167C640.523 381.664 640 382.187 640 382.831V385.164C640 387.094 638.43 388.664 636.5 388.664H633V357.167C633 355.237 631.43 353.667 629.5 353.667H627.167C626.525 353.667 626 353.142 626 352.5V343.167C626 341.237 624.43 339.667 622.5 339.667H616.548C616.006 337.007 613.65 335 610.833 335C607.616 335 605 337.616 605 340.833C605 344.051 607.616 346.667 610.833 346.667C613.652 346.667 616.006 344.66 616.548 342H622.5C623.142 342 623.667 342.525 623.667 343.167V352.5C623.667 354.43 625.237 356 627.167 356H629.5C630.142 356 630.667 356.525 630.667 357.167V388.667H622.5C620.885 388.667 619 387.75 619 385.167V377.765C619 376.207 618.393 374.744 617.292 373.64L613.027 369.375C612.376 368.724 612.002 367.821 612.002 366.899V362.881C614.662 362.34 616.669 359.983 616.669 357.167C616.669 353.949 614.053 351.333 610.836 351.333C607.618 351.333 605.002 353.949 605.002 357.167C605.002 359.985 607.009 362.34 609.669 362.881V366.899C609.669 368.458 610.276 369.921 611.377 371.024L615.642 375.29C616.293 375.941 616.667 376.844 616.667 377.765V385.167C616.667 388.601 619.065 391 622.5 391H636.5C639.718 391 642.333 388.384 642.333 385.167V384H644.634C649.564 384 653.883 380.5 654.905 375.679L656.112 370H657.393C660.039 370 661 367.972 661 366.607C661 363.611 654.345 349.231 651.139 345.269ZM645.833 358.333C645.192 358.333 644.667 357.808 644.667 357.167C644.667 356.525 645.192 356 645.833 356H654.553C654.924 356.784 655.281 357.563 655.626 358.333H645.833ZM610.833 344.333C608.904 344.333 607.333 342.763 607.333 340.833C607.333 338.904 608.904 337.333 610.833 337.333C612.763 337.333 614.333 338.904 614.333 340.833C614.333 342.763 612.763 344.333 610.833 344.333ZM610.833 360.667C608.904 360.667 607.333 359.096 607.333 357.167C607.333 355.237 608.904 353.667 610.833 353.667C612.763 353.667 614.333 355.237 614.333 357.167C614.333 359.096 612.763 360.667 610.833 360.667Z" fill="#F1EFED"/>
</g>
<path d="M574.127 424.208C572.421 424.208 571.109 423.685 570.191 422.64C569.274 421.595 568.815 420.107 568.815 418.176C568.815 416.256 569.274 414.773 570.191 413.728C571.119 412.683 572.431 412.16 574.127 412.16C575.823 412.16 577.13 412.683 578.047 413.728C578.975 414.773 579.439 416.256 579.439 418.176C579.439 420.107 578.981 421.595 578.063 422.64C577.146 423.685 575.834 424.208 574.127 424.208ZM574.127 422.496C576.314 422.496 577.407 421.056 577.407 418.176C577.407 416.757 577.13 415.685 576.575 414.96C576.021 414.235 575.205 413.872 574.127 413.872C573.05 413.872 572.234 414.235 571.679 414.96C571.125 415.685 570.847 416.757 570.847 418.176C570.847 421.056 571.941 422.496 574.127 422.496ZM589.835 421.792V423.488C589.387 423.723 588.885 423.899 588.331 424.016C587.776 424.144 587.184 424.208 586.555 424.208C584.763 424.208 583.387 423.68 582.427 422.624C581.477 421.568 581.003 420.043 581.003 418.048C581.003 416.821 581.227 415.771 581.675 414.896C582.133 414.021 582.784 413.349 583.627 412.88C584.48 412.4 585.488 412.16 586.651 412.16C587.163 412.16 587.669 412.219 588.171 412.336C588.672 412.453 589.104 412.619 589.467 412.832V414.512C588.912 414.288 588.427 414.128 588.011 414.032C587.595 413.936 587.184 413.888 586.779 413.888C585.584 413.888 584.661 414.256 584.011 414.992C583.36 415.717 583.035 416.736 583.035 418.048C583.035 419.467 583.355 420.56 583.995 421.328C584.645 422.085 585.573 422.464 586.779 422.464C587.248 422.464 587.723 422.411 588.203 422.304C588.693 422.197 589.237 422.027 589.835 421.792ZM591.575 424V412.368H593.575V424H591.575ZM605.039 419.008V417.856H609.135V423.424C608.612 423.68 608.02 423.872 607.359 424C606.697 424.139 606.02 424.208 605.327 424.208C603.417 424.208 601.967 423.691 600.975 422.656C599.993 421.611 599.503 420.075 599.503 418.048C599.503 416.811 599.743 415.755 600.223 414.88C600.703 414.005 601.391 413.333 602.287 412.864C603.193 412.395 604.281 412.16 605.551 412.16C606.073 412.16 606.575 412.208 607.055 412.304C607.545 412.389 607.993 412.523 608.399 412.704V414.4C607.865 414.219 607.38 414.091 606.943 414.016C606.505 413.931 606.068 413.888 605.631 413.888C604.319 413.888 603.305 414.251 602.591 414.976C601.887 415.691 601.535 416.715 601.535 418.048C601.535 420.992 602.815 422.464 605.375 422.464C605.993 422.464 606.617 422.4 607.247 422.272V419.6L605.039 419.008ZM617.87 423.6C617.518 423.781 617.091 423.925 616.59 424.032C616.089 424.139 615.555 424.192 614.99 424.192C613.603 424.192 612.542 423.813 611.806 423.056C611.081 422.299 610.718 421.195 610.718 419.744C610.718 418.357 611.065 417.291 611.758 416.544C612.462 415.787 613.449 415.408 614.718 415.408C615.891 415.408 616.777 415.744 617.374 416.416C617.971 417.077 618.27 418.027 618.27 419.264V420.352H612.654C612.729 421.152 612.969 421.733 613.374 422.096C613.79 422.459 614.393 422.64 615.182 422.64C615.651 422.64 616.094 422.597 616.51 422.512C616.926 422.416 617.379 422.267 617.87 422.064V423.6ZM614.702 416.88C613.422 416.88 612.734 417.579 612.638 418.976H616.478C616.467 417.579 615.875 416.88 614.702 416.88ZM619.979 424V415.584H621.275L621.563 416.944C621.937 416.453 622.374 416.075 622.875 415.808C623.387 415.541 623.958 415.408 624.587 415.408C625.558 415.408 626.299 415.701 626.811 416.288C627.323 416.864 627.579 417.707 627.579 418.816V424H625.627V418.88C625.627 417.643 625.099 417.024 624.043 417.024C623.585 417.024 623.163 417.163 622.779 417.44C622.406 417.717 622.123 418.091 621.931 418.56V424H619.979ZM636.433 423.6C636.081 423.781 635.654 423.925 635.153 424.032C634.651 424.139 634.118 424.192 633.553 424.192C632.166 424.192 631.105 423.813 630.369 423.056C629.643 422.299 629.281 421.195 629.281 419.744C629.281 418.357 629.627 417.291 630.321 416.544C631.025 415.787 632.011 415.408 633.281 415.408C634.454 415.408 635.339 415.744 635.937 416.416C636.534 417.077 636.833 418.027 636.833 419.264V420.352H631.217C631.291 421.152 631.531 421.733 631.937 422.096C632.353 422.459 632.955 422.64 633.745 422.64C634.214 422.64 634.657 422.597 635.073 422.512C635.489 422.416 635.942 422.267 636.433 422.064V423.6ZM633.265 416.88C631.985 416.88 631.297 417.579 631.201 418.976H635.041C635.03 417.579 634.438 416.88 633.265 416.88ZM638.542 424V415.584H639.838L640.142 416.976C640.409 416.528 640.745 416.181 641.15 415.936C641.555 415.68 642.03 415.552 642.574 415.552C642.777 415.552 642.963 415.568 643.134 415.6V417.344H642.67C642.083 417.344 641.603 417.509 641.23 417.84C640.857 418.16 640.611 418.587 640.494 419.12V424H638.542ZM649.728 424L649.456 422.752C649.146 423.211 648.757 423.568 648.288 423.824C647.818 424.069 647.301 424.192 646.736 424.192C645.872 424.192 645.184 423.952 644.672 423.472C644.17 422.992 643.92 422.341 643.92 421.52C643.92 420.645 644.24 419.957 644.88 419.456C645.52 418.955 646.394 418.704 647.504 418.704H649.088V418.304C649.088 417.771 648.976 417.408 648.752 417.216C648.528 417.024 648.133 416.928 647.568 416.928C646.725 416.928 645.765 417.125 644.688 417.52V416C645.114 415.819 645.6 415.675 646.144 415.568C646.688 415.461 647.221 415.408 647.744 415.408C649.93 415.408 651.024 416.368 651.024 418.288V424H649.728ZM647.136 422.72C647.53 422.72 647.904 422.619 648.256 422.416C648.608 422.203 648.896 421.909 649.12 421.536V419.952H647.728C646.437 419.952 645.792 420.421 645.792 421.36C645.792 421.787 645.909 422.123 646.144 422.368C646.378 422.603 646.709 422.72 647.136 422.72ZM653.534 421.264V417.104H652.078V416.128L653.582 415.552L654.238 413.216H655.486V415.584H657.294V417.104H655.486V421.248C655.486 421.696 655.587 422.021 655.79 422.224C655.993 422.416 656.291 422.512 656.686 422.512C656.803 422.512 656.926 422.512 657.054 422.512C657.193 422.501 657.305 422.491 657.39 422.48V424.016C657.177 424.048 656.979 424.069 656.798 424.08C656.627 424.091 656.435 424.096 656.222 424.096C655.315 424.096 654.638 423.867 654.19 423.408C653.753 422.949 653.534 422.235 653.534 421.264ZM658.96 413.888V412.288H661.184V413.888H658.96ZM659.248 424V417.008L658.4 416.384V415.584H661.2V424H659.248ZM665.801 424L662.505 415.584H664.569L666.649 421.6L668.729 415.584H670.713L667.417 424H665.801ZM678.464 423.6C678.112 423.781 677.685 423.925 677.184 424.032C676.683 424.139 676.149 424.192 675.584 424.192C674.197 424.192 673.136 423.813 672.4 423.056C671.675 422.299 671.312 421.195 671.312 419.744C671.312 418.357 671.659 417.291 672.352 416.544C673.056 415.787 674.043 415.408 675.312 415.408C676.485 415.408 677.371 415.744 677.968 416.416C678.565 417.077 678.864 418.027 678.864 419.264V420.352H673.248C673.323 421.152 673.563 421.733 673.968 422.096C674.384 422.459 674.987 422.64 675.776 422.64C676.245 422.64 676.688 422.597 677.104 422.512C677.52 422.416 677.973 422.267 678.464 422.064V423.6ZM675.296 416.88C674.016 416.88 673.328 417.579 673.232 418.976H677.072C677.061 417.579 676.469 416.88 675.296 416.88ZM683.503 424L687.951 412.368H689.919L694.399 424H692.175L691.279 421.376H686.543L685.647 424H683.503ZM687.119 419.68H690.703L688.895 414.416L687.119 419.68ZM695.747 424V412.368H697.747V424H695.747Z" fill="#F1EFED"/>
<path d="M899.736 219C899.736 233.768 887.767 245.737 872.999 245.737C862.17 245.737 853.391 236.958 853.391 226.129C853.391 223.612 853.866 221.209 854.729 219C857.578 211.698 864.687 206.525 872.999 206.525C866.109 206.525 860.52 212.11 860.52 219C860.52 225.889 866.109 231.478 872.999 231.478C881.311 231.478 888.419 226.306 891.268 219C892.131 216.79 892.607 214.387 892.607 211.87C892.607 211.58 892.607 211.294 892.586 211.008C892.56 210.414 892.51 209.833 892.434 209.257C892.396 208.971 892.35 208.684 892.299 208.402C892.249 208.112 892.19 207.826 892.127 207.544C892.102 207.43 892.076 207.321 892.047 207.211C892.026 207.119 892.005 207.03 891.98 206.942C891.942 206.795 891.904 206.647 891.862 206.504C891.815 206.344 891.773 206.193 891.723 206.041C891.677 205.894 891.63 205.747 891.58 205.599C891.5 205.351 891.411 205.107 891.315 204.867C891.264 204.728 891.209 204.594 891.155 204.459C890.969 203.996 890.763 203.541 890.536 203.1C890.485 202.994 890.431 202.889 890.376 202.788C890.334 202.7 890.288 202.611 890.237 202.527C890.161 202.388 890.086 202.249 890.006 202.111C889.93 201.976 889.85 201.841 889.766 201.707C889.728 201.635 889.686 201.568 889.64 201.5C889.576 201.399 889.513 201.302 889.45 201.206C888.524 199.771 887.413 198.466 886.146 197.33C885.978 197.174 885.805 197.027 885.633 196.879C884.901 196.261 884.126 195.692 883.306 195.187C883.045 195.027 882.779 194.872 882.514 194.724C882.38 194.649 882.245 194.577 882.11 194.506C881.976 194.434 881.837 194.362 881.698 194.295C881.437 194.165 881.168 194.038 880.898 193.921C880.709 193.836 880.519 193.756 880.326 193.681C880.221 193.634 880.115 193.596 880.006 193.554C879.863 193.5 879.72 193.445 879.572 193.394C879.425 193.34 879.278 193.289 879.131 193.243C878.983 193.192 878.836 193.146 878.684 193.1C878.575 193.066 878.466 193.033 878.356 193.003C878.205 192.961 878.053 192.919 877.897 192.881C877.83 192.86 877.759 192.843 877.691 192.831C877.569 192.797 877.447 192.767 877.325 192.742C876.862 192.637 876.395 192.549 875.924 192.481C875.768 192.456 875.608 192.435 875.452 192.414C875.292 192.393 875.132 192.376 874.972 192.359C874.653 192.33 874.333 192.304 874.009 192.288C888.305 192.818 899.736 204.573 899.736 219Z" stroke="#F1EFED" stroke-width="2" stroke-miterlimit="10"/>
<path d="M892.607 211.871C892.607 214.387 892.132 216.791 891.269 219C888.42 226.306 881.311 231.479 872.999 231.479C879.889 231.479 885.478 225.894 885.478 219C885.478 212.106 879.889 206.526 872.999 206.526C864.687 206.526 857.579 211.698 854.729 219C853.867 221.21 853.391 223.613 853.391 226.13C853.391 236.958 862.17 245.738 872.999 245.738C858.231 245.738 846.262 233.768 846.262 219C846.262 204.232 857.692 192.818 871.989 192.288C872.326 192.271 872.662 192.263 872.999 192.263C873.336 192.263 873.673 192.271 874.009 192.288C874.333 192.305 874.653 192.33 874.973 192.359C875.133 192.376 875.293 192.393 875.453 192.414C875.608 192.435 875.768 192.456 875.924 192.482C876.395 192.549 876.863 192.637 877.326 192.742C877.448 192.768 877.57 192.797 877.692 192.831C877.759 192.843 877.831 192.86 877.898 192.881C878.054 192.919 878.205 192.961 878.357 193.003C878.466 193.033 878.576 193.067 878.685 193.1C878.836 193.147 878.984 193.193 879.131 193.243C879.278 193.29 879.426 193.34 879.573 193.395C879.72 193.445 879.863 193.5 880.006 193.555C880.116 193.597 880.221 193.635 880.326 193.681C880.52 193.757 880.709 193.837 880.899 193.921C881.168 194.039 881.437 194.165 881.698 194.295C881.837 194.363 881.976 194.434 882.111 194.506C882.245 194.577 882.38 194.649 882.515 194.725C882.78 194.872 883.045 195.028 883.306 195.188C884.127 195.693 884.901 196.261 885.633 196.88C885.806 197.027 885.979 197.174 886.147 197.33C887.414 198.466 888.525 199.771 889.451 201.206C889.514 201.303 889.577 201.4 889.64 201.501C889.686 201.568 889.728 201.635 889.766 201.707C889.85 201.842 889.93 201.976 890.006 202.111C890.086 202.25 890.162 202.389 890.238 202.528C890.288 202.612 890.334 202.7 890.377 202.788C890.431 202.889 890.486 202.995 890.536 203.1C890.764 203.542 890.97 203.996 891.155 204.459C891.21 204.594 891.265 204.729 891.315 204.868C891.412 205.107 891.5 205.352 891.58 205.6C891.631 205.747 891.677 205.894 891.723 206.042C891.774 206.193 891.816 206.345 891.862 206.5C891.904 206.648 891.942 206.795 891.98 206.942C892.005 207.031 892.026 207.119 892.047 207.212C892.077 207.321 892.102 207.431 892.127 207.544C892.19 207.826 892.249 208.112 892.3 208.403C892.35 208.685 892.397 208.971 892.435 209.257C892.51 209.834 892.561 210.415 892.586 211.008C892.603 211.294 892.607 211.58 892.607 211.871Z" stroke="#F1EFED" stroke-width="2" stroke-miterlimit="10"/>
<path d="M762.443 280V268.368H764.315L769.899 276.72V268.368H771.883V280H770.011L764.427 271.664V280H762.443ZM776.59 280L773.294 271.584H775.358L777.438 277.6L779.518 271.584H781.502L778.206 280H776.59ZM782.968 269.888V268.288H785.192V269.888H782.968ZM783.256 280V273.008L782.408 272.384V271.584H785.208V280H783.256ZM793.536 280L793.248 278.704C792.918 279.173 792.512 279.536 792.032 279.792C791.563 280.048 791.056 280.176 790.512 280.176C789.403 280.176 788.534 279.792 787.904 279.024C787.275 278.245 786.96 277.163 786.96 275.776C786.96 274.389 787.27 273.317 787.888 272.56C788.518 271.792 789.392 271.408 790.512 271.408C791.43 271.408 792.219 271.723 792.88 272.352V267.984H794.832V280H793.536ZM788.928 275.792C788.928 276.699 789.094 277.397 789.424 277.888C789.766 278.368 790.251 278.608 790.88 278.608C791.286 278.608 791.664 278.501 792.016 278.288C792.379 278.064 792.672 277.771 792.896 277.408V273.904C792.363 273.275 791.691 272.96 790.88 272.96C790.251 272.96 789.766 273.205 789.424 273.696C789.094 274.176 788.928 274.875 788.928 275.792ZM796.905 269.888V268.288H799.129V269.888H796.905ZM797.193 280V273.008L796.345 272.384V271.584H799.145V280H797.193ZM806.642 280L806.37 278.752C806.06 279.211 805.671 279.568 805.202 279.824C804.732 280.069 804.215 280.192 803.65 280.192C802.786 280.192 802.098 279.952 801.586 279.472C801.084 278.992 800.834 278.341 800.834 277.52C800.834 276.645 801.154 275.957 801.794 275.456C802.434 274.955 803.308 274.704 804.418 274.704H806.002V274.304C806.002 273.771 805.89 273.408 805.666 273.216C805.442 273.024 805.047 272.928 804.482 272.928C803.639 272.928 802.679 273.125 801.602 273.52V272C802.028 271.819 802.514 271.675 803.058 271.568C803.602 271.461 804.135 271.408 804.658 271.408C806.844 271.408 807.938 272.368 807.938 274.288V280H806.642ZM804.05 278.72C804.444 278.72 804.818 278.619 805.17 278.416C805.522 278.203 805.81 277.909 806.034 277.536V275.952H804.642C803.351 275.952 802.706 276.421 802.706 277.36C802.706 277.787 802.823 278.123 803.058 278.368C803.292 278.603 803.623 278.72 804.05 278.72ZM819.01 280.208C817.303 280.208 815.991 279.685 815.074 278.64C814.157 277.595 813.698 276.107 813.698 274.176C813.698 272.256 814.157 270.773 815.074 269.728C816.002 268.683 817.314 268.16 819.01 268.16C820.706 268.16 822.013 268.683 822.93 269.728C823.858 270.773 824.322 272.256 824.322 274.176C824.322 276.107 823.863 277.595 822.946 278.64C822.029 279.685 820.717 280.208 819.01 280.208ZM819.01 278.496C821.197 278.496 822.29 277.056 822.29 274.176C822.29 272.757 822.013 271.685 821.458 270.96C820.903 270.235 820.087 269.872 819.01 269.872C817.933 269.872 817.117 270.235 816.562 270.96C816.007 271.685 815.73 272.757 815.73 274.176C815.73 277.056 816.823 278.496 819.01 278.496ZM826.222 280V271.584H827.518L827.806 272.896C828.136 272.427 828.542 272.064 829.022 271.808C829.502 271.541 830.019 271.408 830.574 271.408C831.768 271.408 832.59 271.899 833.038 272.88C833.358 272.421 833.763 272.064 834.254 271.808C834.744 271.541 835.278 271.408 835.854 271.408C836.771 271.408 837.47 271.701 837.95 272.288C838.44 272.864 838.686 273.707 838.686 274.816V280H836.734V274.88C836.734 273.643 836.254 273.024 835.294 273.024C834.846 273.024 834.456 273.157 834.126 273.424C833.806 273.68 833.571 274.043 833.422 274.512V280H831.502V274.88C831.502 273.643 831.016 273.024 830.046 273.024C829.608 273.024 829.224 273.163 828.894 273.44C828.563 273.717 828.323 274.091 828.174 274.56V280H826.222ZM840.862 280V271.584H842.158L842.446 272.944C842.82 272.453 843.257 272.075 843.758 271.808C844.27 271.541 844.841 271.408 845.47 271.408C846.441 271.408 847.182 271.701 847.694 272.288C848.206 272.864 848.462 273.707 848.462 274.816V280H846.51V274.88C846.51 273.643 845.982 273.024 844.926 273.024C844.468 273.024 844.046 273.163 843.662 273.44C843.289 273.717 843.006 274.091 842.814 274.56V280H840.862ZM850.483 269.888V268.288H852.707V269.888H850.483ZM850.771 280V273.008L849.923 272.384V271.584H852.723V280H850.771ZM857.324 280L854.028 271.584H856.092L858.172 277.6L860.252 271.584H862.236L858.94 280H857.324ZM869.987 279.6C869.635 279.781 869.209 279.925 868.707 280.032C868.206 280.139 867.673 280.192 867.107 280.192C865.721 280.192 864.659 279.813 863.923 279.056C863.198 278.299 862.835 277.195 862.835 275.744C862.835 274.357 863.182 273.291 863.875 272.544C864.579 271.787 865.566 271.408 866.835 271.408C868.009 271.408 868.894 271.744 869.491 272.416C870.089 273.077 870.387 274.027 870.387 275.264V276.352H864.771C864.846 277.152 865.086 277.733 865.491 278.096C865.907 278.459 866.51 278.64 867.299 278.64C867.769 278.64 868.211 278.597 868.627 278.512C869.043 278.416 869.497 278.267 869.987 278.064V279.6ZM866.819 272.88C865.539 272.88 864.851 273.579 864.755 274.976H868.595C868.585 273.579 867.993 272.88 866.819 272.88ZM872.097 280V271.584H873.393L873.697 272.976C873.963 272.528 874.299 272.181 874.705 271.936C875.11 271.68 875.585 271.552 876.129 271.552C876.331 271.552 876.518 271.568 876.689 271.6V273.344H876.225C875.638 273.344 875.158 273.509 874.785 273.84C874.411 274.16 874.166 274.587 874.049 275.12V280H872.097ZM877.947 279.616V278.032C878.48 278.245 878.96 278.4 879.387 278.496C879.814 278.581 880.262 278.624 880.731 278.624C881.872 278.624 882.443 278.299 882.443 277.648C882.443 277.403 882.347 277.205 882.155 277.056C881.974 276.896 881.654 276.752 881.195 276.624L879.947 276.288C879.19 276.075 878.635 275.781 878.283 275.408C877.931 275.024 877.755 274.533 877.755 273.936C877.755 273.147 878.059 272.528 878.667 272.08C879.275 271.632 880.102 271.408 881.147 271.408C881.648 271.408 882.134 271.451 882.603 271.536C883.072 271.621 883.472 271.739 883.803 271.888V273.44C882.939 273.109 882.08 272.944 881.227 272.944C880.192 272.944 879.675 273.232 879.675 273.808C879.675 274.032 879.766 274.219 879.947 274.368C880.128 274.507 880.432 274.635 880.859 274.752L882.107 275.104C882.928 275.339 883.51 275.643 883.851 276.016C884.192 276.379 884.363 276.891 884.363 277.552C884.363 278.395 884.054 279.045 883.435 279.504C882.816 279.963 881.936 280.192 880.795 280.192C880.272 280.192 879.75 280.139 879.227 280.032C878.704 279.925 878.278 279.787 877.947 279.616ZM892.597 279.6C892.245 279.781 891.818 279.925 891.317 280.032C890.815 280.139 890.282 280.192 889.717 280.192C888.33 280.192 887.269 279.813 886.533 279.056C885.807 278.299 885.445 277.195 885.445 275.744C885.445 274.357 885.791 273.291 886.485 272.544C887.189 271.787 888.175 271.408 889.445 271.408C890.618 271.408 891.503 271.744 892.101 272.416C892.698 273.077 892.997 274.027 892.997 275.264V276.352H887.381C887.455 277.152 887.695 277.733 888.101 278.096C888.517 278.459 889.119 278.64 889.909 278.64C890.378 278.64 890.821 278.597 891.237 278.512C891.653 278.416 892.106 278.267 892.597 278.064V279.6ZM889.429 272.88C888.149 272.88 887.461 273.579 887.365 274.976H891.205C891.194 273.579 890.602 272.88 889.429 272.88ZM897.636 280L902.084 268.368H904.052L908.532 280H906.308L905.412 277.376H900.676L899.78 280H897.636ZM901.252 275.68H904.836L903.028 270.416L901.252 275.68ZM909.486 276.768V271.584H911.438V276.704C911.438 277.941 911.928 278.56 912.91 278.56C913.347 278.56 913.752 278.421 914.126 278.144C914.51 277.867 914.798 277.493 914.99 277.024V271.584H916.942V280H915.646L915.342 278.64C914.99 279.131 914.558 279.509 914.046 279.776C913.544 280.043 912.995 280.176 912.398 280.176C911.459 280.176 910.739 279.883 910.238 279.296C909.736 278.709 909.486 277.867 909.486 276.768ZM925.271 280L924.983 278.704C924.652 279.173 924.247 279.536 923.767 279.792C923.297 280.048 922.791 280.176 922.247 280.176C921.137 280.176 920.268 279.792 919.639 279.024C919.009 278.245 918.695 277.163 918.695 275.776C918.695 274.389 919.004 273.317 919.623 272.56C920.252 271.792 921.127 271.408 922.247 271.408C923.164 271.408 923.953 271.723 924.615 272.352V267.984H926.567V280H925.271ZM920.663 275.792C920.663 276.699 920.828 277.397 921.159 277.888C921.5 278.368 921.985 278.608 922.615 278.608C923.02 278.608 923.399 278.501 923.751 278.288C924.113 278.064 924.407 277.771 924.631 277.408V273.904C924.097 273.275 923.425 272.96 922.615 272.96C921.985 272.96 921.5 273.205 921.159 273.696C920.828 274.176 920.663 274.875 920.663 275.792ZM928.64 269.888V268.288H930.864V269.888H928.64ZM928.928 280V273.008L928.08 272.384V271.584H930.88V280H928.928ZM936.728 280.176C935.438 280.176 934.43 279.792 933.704 279.024C932.99 278.256 932.632 277.179 932.632 275.792C932.632 274.405 932.99 273.328 933.704 272.56C934.43 271.792 935.438 271.408 936.728 271.408C938.03 271.408 939.038 271.792 939.752 272.56C940.467 273.328 940.824 274.405 940.824 275.792C940.824 277.179 940.467 278.256 939.752 279.024C939.038 279.792 938.03 280.176 936.728 280.176ZM936.728 278.656C938.147 278.656 938.856 277.701 938.856 275.792C938.856 273.883 938.147 272.928 936.728 272.928C935.31 272.928 934.6 273.883 934.6 275.792C934.6 277.701 935.31 278.656 936.728 278.656ZM941.733 280V278.656L944.789 275.328C945.376 274.688 945.84 274.149 946.181 273.712C946.533 273.275 946.784 272.901 946.933 272.592C947.082 272.272 947.157 271.973 947.157 271.696C947.157 270.565 946.48 270 945.125 270C944.186 270 943.173 270.299 942.085 270.896V269.184C942.544 268.917 943.066 268.709 943.653 268.56C944.24 268.4 944.81 268.32 945.365 268.32C946.549 268.32 947.466 268.603 948.117 269.168C948.778 269.723 949.109 270.512 949.109 271.536C949.109 271.952 949.013 272.379 948.821 272.816C948.64 273.253 948.346 273.744 947.941 274.288C947.536 274.832 946.997 275.472 946.325 276.208L944.341 278.368H949.141V280H941.733ZM951.036 280V268.368H958.268V270.064H953.036V273.552H957.708V275.248H953.036V280H951.036ZM964.861 280L964.589 278.752C964.279 279.211 963.89 279.568 963.421 279.824C962.951 280.069 962.434 280.192 961.869 280.192C961.005 280.192 960.317 279.952 959.805 279.472C959.303 278.992 959.053 278.341 959.053 277.52C959.053 276.645 959.373 275.957 960.013 275.456C960.653 274.955 961.527 274.704 962.637 274.704H964.221V274.304C964.221 273.771 964.109 273.408 963.885 273.216C963.661 273.024 963.266 272.928 962.701 272.928C961.858 272.928 960.898 273.125 959.821 273.52V272C960.247 271.819 960.733 271.675 961.277 271.568C961.821 271.461 962.354 271.408 962.877 271.408C965.063 271.408 966.157 272.368 966.157 274.288V280H964.861ZM962.269 278.72C962.663 278.72 963.037 278.619 963.389 278.416C963.741 278.203 964.029 277.909 964.253 277.536V275.952H962.861C961.57 275.952 960.925 276.421 960.925 277.36C960.925 277.787 961.042 278.123 961.277 278.368C961.511 278.603 961.842 278.72 962.269 278.72ZM974.443 278.096V279.68C974.112 279.84 973.723 279.963 973.275 280.048C972.827 280.144 972.358 280.192 971.867 280.192C969.19 280.192 967.851 278.693 967.851 275.696C967.851 274.331 968.208 273.275 968.923 272.528C969.648 271.781 970.667 271.408 971.979 271.408C972.822 271.408 973.563 271.552 974.203 271.84V273.408C973.595 273.099 972.976 272.944 972.347 272.944C970.662 272.944 969.819 273.861 969.819 275.696C969.819 276.699 970.011 277.44 970.395 277.92C970.79 278.4 971.387 278.64 972.187 278.64C972.827 278.64 973.579 278.459 974.443 278.096ZM982.784 279.6C982.432 279.781 982.006 279.925 981.504 280.032C981.003 280.139 980.47 280.192 979.904 280.192C978.518 280.192 977.456 279.813 976.72 279.056C975.995 278.299 975.632 277.195 975.632 275.744C975.632 274.357 975.979 273.291 976.672 272.544C977.376 271.787 978.363 271.408 979.632 271.408C980.806 271.408 981.691 271.744 982.288 272.416C982.886 273.077 983.184 274.027 983.184 275.264V276.352H977.568C977.643 277.152 977.883 277.733 978.288 278.096C978.704 278.459 979.307 278.64 980.096 278.64C980.566 278.64 981.008 278.597 981.424 278.512C981.84 278.416 982.294 278.267 982.784 278.064V279.6ZM979.616 272.88C978.336 272.88 977.648 273.579 977.552 274.976H981.392C981.382 273.579 980.79 272.88 979.616 272.88Z" fill="#F1EFED"/>
<path d="M206.549 280.208C204.842 280.208 203.53 279.685 202.613 278.64C201.696 277.595 201.237 276.107 201.237 274.176C201.237 272.256 201.696 270.773 202.613 269.728C203.541 268.683 204.853 268.16 206.549 268.16C208.245 268.16 209.552 268.683 210.469 269.728C211.397 270.773 211.861 272.256 211.861 274.176C211.861 276.107 211.402 277.595 210.485 278.64C209.568 279.685 208.256 280.208 206.549 280.208ZM206.549 278.496C208.736 278.496 209.829 277.056 209.829 274.176C209.829 272.757 209.552 271.685 208.997 270.96C208.442 270.235 207.626 269.872 206.549 269.872C205.472 269.872 204.656 270.235 204.101 270.96C203.546 271.685 203.269 272.757 203.269 274.176C203.269 277.056 204.362 278.496 206.549 278.496ZM222.257 277.792V279.488C221.809 279.723 221.307 279.899 220.753 280.016C220.198 280.144 219.606 280.208 218.977 280.208C217.185 280.208 215.809 279.68 214.849 278.624C213.899 277.568 213.425 276.043 213.425 274.048C213.425 272.821 213.649 271.771 214.097 270.896C214.555 270.021 215.206 269.349 216.049 268.88C216.902 268.4 217.91 268.16 219.073 268.16C219.585 268.16 220.091 268.219 220.593 268.336C221.094 268.453 221.526 268.619 221.889 268.832V270.512C221.334 270.288 220.849 270.128 220.433 270.032C220.017 269.936 219.606 269.888 219.201 269.888C218.006 269.888 217.083 270.256 216.433 270.992C215.782 271.717 215.457 272.736 215.457 274.048C215.457 275.467 215.777 276.56 216.417 277.328C217.067 278.085 217.995 278.464 219.201 278.464C219.67 278.464 220.145 278.411 220.625 278.304C221.115 278.197 221.659 278.027 222.257 277.792ZM223.997 280V268.368H225.997V280H223.997ZM231.957 279.536V277.76C233.151 278.229 234.303 278.464 235.413 278.464C236.191 278.464 236.799 278.32 237.237 278.032C237.685 277.744 237.909 277.349 237.909 276.848C237.909 276.475 237.77 276.171 237.493 275.936C237.215 275.691 236.698 275.435 235.941 275.168L234.725 274.72C233.69 274.336 232.949 273.888 232.501 273.376C232.063 272.853 231.845 272.219 231.845 271.472C231.845 270.448 232.229 269.643 232.997 269.056C233.765 268.459 234.81 268.16 236.133 268.16C236.687 268.16 237.242 268.219 237.797 268.336C238.362 268.453 238.853 268.613 239.269 268.816V270.592C238.17 270.133 237.13 269.904 236.149 269.904C234.623 269.904 233.861 270.395 233.861 271.376C233.861 271.728 233.999 272.016 234.277 272.24C234.554 272.464 235.061 272.715 235.797 272.992L237.029 273.44C238.106 273.835 238.858 274.288 239.285 274.8C239.722 275.312 239.941 275.973 239.941 276.784C239.941 277.851 239.562 278.688 238.805 279.296C238.047 279.904 236.986 280.208 235.621 280.208C235.183 280.208 234.73 280.176 234.261 280.112C233.802 280.059 233.37 279.984 232.965 279.888C232.559 279.781 232.223 279.664 231.957 279.536ZM241.604 283.216V271.584H242.9L243.188 272.88C243.519 272.411 243.919 272.048 244.388 271.792C244.868 271.536 245.38 271.408 245.924 271.408C247.034 271.408 247.903 271.797 248.532 272.576C249.162 273.344 249.476 274.421 249.476 275.808C249.476 277.195 249.162 278.272 248.532 279.04C247.914 279.797 247.044 280.176 245.924 280.176C245.007 280.176 244.218 279.861 243.556 279.232V283.216H241.604ZM245.556 272.976C245.151 272.976 244.767 273.088 244.404 273.312C244.052 273.525 243.764 273.813 243.54 274.176V277.68C244.074 278.309 244.746 278.624 245.556 278.624C246.186 278.624 246.666 278.384 246.996 277.904C247.338 277.413 247.508 276.709 247.508 275.792C247.508 274.875 247.338 274.176 246.996 273.696C246.666 273.216 246.186 272.976 245.556 272.976ZM257.901 279.6C257.549 279.781 257.123 279.925 256.621 280.032C256.12 280.139 255.587 280.192 255.021 280.192C253.635 280.192 252.573 279.813 251.837 279.056C251.112 278.299 250.749 277.195 250.749 275.744C250.749 274.357 251.096 273.291 251.789 272.544C252.493 271.787 253.48 271.408 254.749 271.408C255.923 271.408 256.808 271.744 257.405 272.416C258.003 273.077 258.301 274.027 258.301 275.264V276.352H252.685C252.76 277.152 253 277.733 253.405 278.096C253.821 278.459 254.424 278.64 255.213 278.64C255.683 278.64 256.125 278.597 256.541 278.512C256.957 278.416 257.411 278.267 257.901 278.064V279.6ZM254.733 272.88C253.453 272.88 252.765 273.579 252.669 274.976H256.509C256.499 273.579 255.907 272.88 254.733 272.88ZM266.839 279.6C266.487 279.781 266.06 279.925 265.559 280.032C265.058 280.139 264.524 280.192 263.959 280.192C262.572 280.192 261.511 279.813 260.775 279.056C260.05 278.299 259.687 277.195 259.687 275.744C259.687 274.357 260.034 273.291 260.727 272.544C261.431 271.787 262.418 271.408 263.687 271.408C264.86 271.408 265.746 271.744 266.343 272.416C266.94 273.077 267.239 274.027 267.239 275.264V276.352H261.623C261.698 277.152 261.938 277.733 262.343 278.096C262.759 278.459 263.362 278.64 264.151 278.64C264.62 278.64 265.063 278.597 265.479 278.512C265.895 278.416 266.348 278.267 266.839 278.064V279.6ZM263.671 272.88C262.391 272.88 261.703 273.579 261.607 274.976H265.447C265.436 273.579 264.844 272.88 263.671 272.88ZM275.216 278.096V279.68C274.886 279.84 274.496 279.963 274.048 280.048C273.6 280.144 273.131 280.192 272.64 280.192C269.963 280.192 268.624 278.693 268.624 275.696C268.624 274.331 268.982 273.275 269.696 272.528C270.422 271.781 271.44 271.408 272.752 271.408C273.595 271.408 274.336 271.552 274.976 271.84V273.408C274.368 273.099 273.75 272.944 273.12 272.944C271.435 272.944 270.592 273.861 270.592 275.696C270.592 276.699 270.784 277.44 271.168 277.92C271.563 278.4 272.16 278.64 272.96 278.64C273.6 278.64 274.352 278.459 275.216 278.096ZM276.886 280V267.984H278.838V272.64C279.168 272.245 279.552 271.941 279.99 271.728C280.438 271.515 280.939 271.408 281.494 271.408C282.464 271.408 283.206 271.701 283.718 272.288C284.23 272.864 284.486 273.707 284.486 274.816V280H282.534V274.88C282.534 273.643 282.006 273.024 280.95 273.024C280.491 273.024 280.07 273.163 279.686 273.44C279.312 273.717 279.03 274.091 278.838 274.56V280H276.886Z" fill="#F1EFED"/>
<g clip-path="url(#clip2_88_6049)">
<path d="M245.333 214.333C245.333 215.621 244.288 216.667 243 216.667C241.712 216.667 240.666 215.621 240.666 214.333C240.666 213.045 241.712 212 243 212C244.288 212 245.333 213.045 245.333 214.333ZM254.666 212C253.378 212 252.333 213.045 252.333 214.333C252.333 215.621 253.378 216.667 254.666 216.667C255.954 216.667 257 215.621 257 214.333C257 213.045 255.954 212 254.666 212ZM231.333 212C230.045 212 229 213.045 229 214.333C229 215.621 230.045 216.667 231.333 216.667C232.621 216.667 233.666 215.621 233.666 214.333C233.666 213.045 232.621 212 231.333 212ZM271 199.167V229.5C271 234.003 267.336 237.667 262.833 237.667H254.592L245.293 245.355C244.652 245.927 243.833 246.214 243.011 246.214C242.181 246.214 241.341 245.92 240.676 245.329L231.58 237.667H223.169C218.665 237.667 215.002 234.003 215.002 229.5V199.167C215 194.663 218.663 191 223.166 191H262.833C267.336 191 271 194.663 271 199.167ZM268.666 199.167C268.666 195.951 266.051 193.333 262.833 193.333H223.166C219.949 193.333 217.333 195.951 217.333 199.167V229.5C217.333 232.715 219.949 235.333 223.166 235.333H232.005C232.28 235.333 232.546 235.431 232.756 235.609L242.202 243.565C242.666 243.981 243.333 243.976 243.774 243.584L253.43 235.602C253.64 235.429 253.901 235.333 254.172 235.333H262.833C266.051 235.333 268.666 232.715 268.666 229.5V199.167Z" fill="#F1EFED"/>
</g>
<path d="M411.588 280.208C409.882 280.208 408.57 279.685 407.652 278.64C406.735 277.595 406.276 276.107 406.276 274.176C406.276 272.256 406.735 270.773 407.652 269.728C408.58 268.683 409.892 268.16 411.588 268.16C413.284 268.16 414.591 268.683 415.508 269.728C416.436 270.773 416.9 272.256 416.9 274.176C416.9 276.107 416.442 277.595 415.524 278.64C414.607 279.685 413.295 280.208 411.588 280.208ZM411.588 278.496C413.775 278.496 414.868 277.056 414.868 274.176C414.868 272.757 414.591 271.685 414.036 270.96C413.482 270.235 412.666 269.872 411.588 269.872C410.511 269.872 409.695 270.235 409.14 270.96C408.586 271.685 408.308 272.757 408.308 274.176C408.308 277.056 409.402 278.496 411.588 278.496ZM427.296 277.792V279.488C426.848 279.723 426.346 279.899 425.792 280.016C425.237 280.144 424.645 280.208 424.016 280.208C422.224 280.208 420.848 279.68 419.888 278.624C418.938 277.568 418.464 276.043 418.464 274.048C418.464 272.821 418.688 271.771 419.136 270.896C419.594 270.021 420.245 269.349 421.088 268.88C421.941 268.4 422.949 268.16 424.112 268.16C424.624 268.16 425.13 268.219 425.632 268.336C426.133 268.453 426.565 268.619 426.928 268.832V270.512C426.373 270.288 425.888 270.128 425.472 270.032C425.056 269.936 424.645 269.888 424.24 269.888C423.045 269.888 422.122 270.256 421.472 270.992C420.821 271.717 420.496 272.736 420.496 274.048C420.496 275.467 420.816 276.56 421.456 277.328C422.106 278.085 423.034 278.464 424.24 278.464C424.709 278.464 425.184 278.411 425.664 278.304C426.154 278.197 426.698 278.027 427.296 277.792ZM429.036 280V268.368H431.036V280H429.036ZM440.628 280L436.308 268.368H438.548L441.652 277.52L444.756 268.368H446.916L442.596 280H440.628ZM447.999 269.888V268.288H450.223V269.888H447.999ZM448.287 280V273.008L447.439 272.384V271.584H450.239V280H448.287ZM452.088 279.616V278.032C452.621 278.245 453.101 278.4 453.528 278.496C453.954 278.581 454.402 278.624 454.872 278.624C456.013 278.624 456.584 278.299 456.584 277.648C456.584 277.403 456.488 277.205 456.296 277.056C456.114 276.896 455.794 276.752 455.336 276.624L454.088 276.288C453.33 276.075 452.776 275.781 452.424 275.408C452.072 275.024 451.896 274.533 451.896 273.936C451.896 273.147 452.2 272.528 452.808 272.08C453.416 271.632 454.242 271.408 455.288 271.408C455.789 271.408 456.274 271.451 456.744 271.536C457.213 271.621 457.613 271.739 457.944 271.888V273.44C457.08 273.109 456.221 272.944 455.368 272.944C454.333 272.944 453.816 273.232 453.816 273.808C453.816 274.032 453.906 274.219 454.088 274.368C454.269 274.507 454.573 274.635 455 274.752L456.248 275.104C457.069 275.339 457.65 275.643 457.992 276.016C458.333 276.379 458.504 276.891 458.504 277.552C458.504 278.395 458.194 279.045 457.576 279.504C456.957 279.963 456.077 280.192 454.936 280.192C454.413 280.192 453.89 280.139 453.368 280.032C452.845 279.925 452.418 279.787 452.088 279.616ZM459.905 269.888V268.288H462.129V269.888H459.905ZM460.193 280V273.008L459.345 272.384V271.584H462.145V280H460.193ZM467.994 280.176C466.703 280.176 465.695 279.792 464.97 279.024C464.255 278.256 463.898 277.179 463.898 275.792C463.898 274.405 464.255 273.328 464.97 272.56C465.695 271.792 466.703 271.408 467.994 271.408C469.295 271.408 470.303 271.792 471.018 272.56C471.732 273.328 472.09 274.405 472.09 275.792C472.09 277.179 471.732 278.256 471.018 279.024C470.303 279.792 469.295 280.176 467.994 280.176ZM467.994 278.656C469.412 278.656 470.122 277.701 470.122 275.792C470.122 273.883 469.412 272.928 467.994 272.928C466.575 272.928 465.866 273.883 465.866 275.792C465.866 277.701 466.575 278.656 467.994 278.656ZM473.847 280V271.584H475.143L475.431 272.944C475.804 272.453 476.241 272.075 476.743 271.808C477.255 271.541 477.825 271.408 478.455 271.408C479.425 271.408 480.167 271.701 480.679 272.288C481.191 272.864 481.447 273.707 481.447 274.816V280H479.495V274.88C479.495 273.643 478.967 273.024 477.911 273.024C477.452 273.024 477.031 273.163 476.647 273.44C476.273 273.717 475.991 274.091 475.799 274.56V280H473.847Z" fill="#F1EFED"/>
<g clip-path="url(#clip3_88_6049)">
<path d="M465.481 223.937C467.935 221.121 467.935 216.877 465.481 214.063C463.147 211.389 454.703 202.667 444.002 202.667C433.302 202.667 424.855 211.389 422.522 214.06C420.062 216.877 420.062 221.121 422.522 223.935C424.855 226.609 433.299 235.331 444 235.331C454.701 235.331 463.147 226.609 465.481 223.935V223.937ZM444 233C436.279 233 428.752 227.526 424.279 222.402C422.585 220.463 422.585 217.537 424.279 215.596C428.749 210.474 436.277 205 443.998 205C451.719 205 459.248 210.474 463.719 215.596C465.413 217.537 465.413 220.463 463.719 222.404C459.246 227.526 451.719 233 443.998 233H444ZM444 212C440.141 212 437 215.141 437 219C437 222.859 440.141 226 444 226C447.859 226 451 222.859 451 219C451 215.141 447.859 212 444 212ZM444 223.667C441.426 223.667 439.333 221.574 439.333 219C439.333 216.426 441.426 214.333 444 214.333C446.574 214.333 448.667 216.426 448.667 219C448.667 221.574 446.574 223.667 444 223.667ZM416 206.167V201.5C416 195.711 420.711 191 426.5 191H431.167C431.811 191 432.333 191.523 432.333 192.167C432.333 192.811 431.811 193.333 431.167 193.333H426.5C421.997 193.333 418.333 196.997 418.333 201.5V206.167C418.333 206.811 417.811 207.333 417.167 207.333C416.523 207.333 416 206.811 416 206.167ZM432.333 245.833C432.333 246.477 431.811 247 431.167 247H426.5C420.711 247 416 242.289 416 236.5V231.833C416 231.189 416.523 230.667 417.167 230.667C417.811 230.667 418.333 231.189 418.333 231.833V236.5C418.333 241.003 421.997 244.667 426.5 244.667H431.167C431.811 244.667 432.333 245.189 432.333 245.833ZM472 231.833V236.5C472 242.289 467.289 247 461.5 247H456.833C456.189 247 455.667 246.477 455.667 245.833C455.667 245.189 456.189 244.667 456.833 244.667H461.5C466.003 244.667 469.667 241.003 469.667 236.5V231.833C469.667 231.189 470.189 230.667 470.833 230.667C471.477 230.667 472 231.189 472 231.833ZM472 201.5V206.167C472 206.811 471.477 207.333 470.833 207.333C470.189 207.333 469.667 206.811 469.667 206.167V201.5C469.667 196.997 466.003 193.333 461.5 193.333H456.833C456.189 193.333 455.667 192.811 455.667 192.167C455.667 191.523 456.189 191 456.833 191H461.5C467.289 191 472 195.711 472 201.5Z" fill="#F1EFED"/>
</g>
<path d="M601.845 91.176C600.555 91.176 599.547 90.792 598.821 90.024C598.107 89.256 597.749 88.1787 597.749 86.792C597.749 85.4053 598.107 84.328 598.821 83.56C599.547 82.792 600.555 82.408 601.845 82.408C603.147 82.408 604.155 82.792 604.869 83.56C605.584 84.328 605.941 85.4053 605.941 86.792C605.941 88.1787 605.584 89.256 604.869 90.024C604.155 90.792 603.147 91.176 601.845 91.176ZM601.845 89.656C603.264 89.656 603.973 88.7013 603.973 86.792C603.973 84.8827 603.264 83.928 601.845 83.928C600.427 83.928 599.717 84.8827 599.717 86.792C599.717 88.7013 600.427 89.656 601.845 89.656ZM607.698 91V82.584H608.994L609.298 83.976C609.565 83.528 609.901 83.1813 610.306 82.936C610.711 82.68 611.186 82.552 611.73 82.552C611.933 82.552 612.119 82.568 612.29 82.6V84.344H611.826C611.239 84.344 610.759 84.5093 610.386 84.84C610.013 85.16 609.767 85.5867 609.65 86.12V91H607.698ZM616.91 91L620.574 85L617.086 79.368H619.342L622.014 83.784L624.686 79.368H626.862L623.374 85.048L627.038 91H624.782L621.918 86.248L619.086 91H616.91ZM628.435 91V79.368H632.643C634.008 79.368 635.048 79.672 635.763 80.28C636.477 80.888 636.835 81.768 636.835 82.92C636.835 83.7733 636.611 84.4827 636.163 85.048C635.725 85.6133 635.091 86.008 634.259 86.232L637.331 91H635.107L632.387 86.616L630.419 86.216V91H628.435ZM630.419 84.904H631.907C632.643 84.904 633.224 84.84 633.651 84.712C634.077 84.584 634.381 84.3813 634.563 84.104C634.744 83.816 634.835 83.432 634.835 82.952C634.835 82.4613 634.744 82.072 634.563 81.784C634.381 81.496 634.077 81.2933 633.651 81.176C633.224 81.048 632.643 80.984 631.907 80.984H630.419V84.904ZM642.638 91V79.368H644.638V84.216H650.078V79.368H652.078V91H650.078V85.912H644.638V91H642.638ZM661.089 90.6C660.737 90.7813 660.31 90.9253 659.809 91.032C659.308 91.1387 658.774 91.192 658.209 91.192C656.822 91.192 655.761 90.8133 655.025 90.056C654.3 89.2987 653.937 88.1947 653.937 86.744C653.937 85.3573 654.284 84.2907 654.977 83.544C655.681 82.7867 656.668 82.408 657.937 82.408C659.11 82.408 659.996 82.744 660.593 83.416C661.19 84.0773 661.489 85.0267 661.489 86.264V87.352H655.873C655.948 88.152 656.188 88.7333 656.593 89.096C657.009 89.4587 657.612 89.64 658.401 89.64C658.87 89.64 659.313 89.5973 659.729 89.512C660.145 89.416 660.598 89.2667 661.089 89.064V90.6ZM657.921 83.88C656.641 83.88 655.953 84.5787 655.857 85.976H659.697C659.686 84.5787 659.094 83.88 657.921 83.88ZM668.462 91L668.19 89.752C667.881 90.2107 667.491 90.568 667.022 90.824C666.553 91.0693 666.035 91.192 665.47 91.192C664.606 91.192 663.918 90.952 663.406 90.472C662.905 89.992 662.654 89.3413 662.654 88.52C662.654 87.6453 662.974 86.9573 663.614 86.456C664.254 85.9547 665.129 85.704 666.238 85.704H667.822V85.304C667.822 84.7707 667.71 84.408 667.486 84.216C667.262 84.024 666.867 83.928 666.302 83.928C665.459 83.928 664.499 84.1253 663.422 84.52V83C663.849 82.8187 664.334 82.6747 664.878 82.568C665.422 82.4613 665.955 82.408 666.478 82.408C668.665 82.408 669.758 83.368 669.758 85.288V91H668.462ZM665.87 89.72C666.265 89.72 666.638 89.6187 666.99 89.416C667.342 89.2027 667.63 88.9093 667.854 88.536V86.952H666.462C665.171 86.952 664.526 87.4213 664.526 88.36C664.526 88.7867 664.643 89.1227 664.878 89.368C665.113 89.6027 665.443 89.72 665.87 89.72ZM678.029 91L677.741 89.704C677.41 90.1733 677.005 90.536 676.525 90.792C676.055 91.048 675.549 91.176 675.005 91.176C673.895 91.176 673.026 90.792 672.397 90.024C671.767 89.2453 671.453 88.1627 671.453 86.776C671.453 85.3893 671.762 84.3173 672.381 83.56C673.01 82.792 673.885 82.408 675.005 82.408C675.922 82.408 676.711 82.7227 677.373 83.352V78.984H679.325V91H678.029ZM673.421 86.792C673.421 87.6987 673.586 88.3973 673.917 88.888C674.258 89.368 674.743 89.608 675.373 89.608C675.778 89.608 676.157 89.5013 676.509 89.288C676.871 89.064 677.165 88.7707 677.389 88.408V84.904C676.855 84.2747 676.183 83.96 675.373 83.96C674.743 83.96 674.258 84.2053 673.917 84.696C673.586 85.176 673.421 85.8747 673.421 86.792ZM681.174 90.616V89.032C681.707 89.2453 682.187 89.4 682.614 89.496C683.04 89.5813 683.488 89.624 683.958 89.624C685.099 89.624 685.67 89.2987 685.67 88.648C685.67 88.4027 685.574 88.2053 685.382 88.056C685.2 87.896 684.88 87.752 684.422 87.624L683.174 87.288C682.416 87.0747 681.862 86.7813 681.51 86.408C681.158 86.024 680.982 85.5333 680.982 84.936C680.982 84.1467 681.286 83.528 681.894 83.08C682.502 82.632 683.328 82.408 684.374 82.408C684.875 82.408 685.36 82.4507 685.83 82.536C686.299 82.6213 686.699 82.7387 687.03 82.888V84.44C686.166 84.1093 685.307 83.944 684.454 83.944C683.419 83.944 682.902 84.232 682.902 84.808C682.902 85.032 682.992 85.2187 683.174 85.368C683.355 85.5067 683.659 85.6347 684.086 85.752L685.334 86.104C686.155 86.3387 686.736 86.6427 687.078 87.016C687.419 87.3787 687.59 87.8907 687.59 88.552C687.59 89.3947 687.28 90.0453 686.662 90.504C686.043 90.9627 685.163 91.192 684.022 91.192C683.499 91.192 682.976 91.1387 682.454 91.032C681.931 90.9253 681.504 90.7867 681.174 90.616ZM695.823 90.6C695.471 90.7813 695.045 90.9253 694.543 91.032C694.042 91.1387 693.509 91.192 692.943 91.192C691.557 91.192 690.495 90.8133 689.759 90.056C689.034 89.2987 688.671 88.1947 688.671 86.744C688.671 85.3573 689.018 84.2907 689.711 83.544C690.415 82.7867 691.402 82.408 692.671 82.408C693.845 82.408 694.73 82.744 695.327 83.416C695.925 84.0773 696.223 85.0267 696.223 86.264V87.352H690.607C690.682 88.152 690.922 88.7333 691.327 89.096C691.743 89.4587 692.346 89.64 693.135 89.64C693.605 89.64 694.047 89.5973 694.463 89.512C694.879 89.416 695.333 89.2667 695.823 89.064V90.6ZM692.655 83.88C691.375 83.88 690.687 84.5787 690.591 85.976H694.431C694.421 84.5787 693.829 83.88 692.655 83.88ZM698.425 88.264V84.104H696.969V83.128L698.473 82.552L699.129 80.216H700.377V82.584H702.185V84.104H700.377V88.248C700.377 88.696 700.478 89.0213 700.681 89.224C700.883 89.416 701.182 89.512 701.577 89.512C701.694 89.512 701.817 89.512 701.945 89.512C702.083 89.5013 702.195 89.4907 702.281 89.48V91.016C702.067 91.048 701.87 91.0693 701.689 91.08C701.518 91.0907 701.326 91.096 701.113 91.096C700.206 91.096 699.529 90.8667 699.081 90.408C698.643 89.9493 698.425 89.2347 698.425 88.264Z" fill="#F1EFED"/>
<g clip-path="url(#clip4_88_6049)">
<path d="M672.167 16H670.566C669.775 14.4717 668.623 12.8617 668.142 12.269C662.477 4.70666 653.113 0.87299 643.742 2.29866C632.5 3.99032 623.025 14.341 622.173 25.8677C621.709 32.163 623.295 38.0197 626.767 42.8053C628.228 44.8167 629 47.0217 629 49.18V51.7607C629 55.3167 631.509 58 634.834 58H653.5C656.718 58 659.334 55.3843 659.334 52.1667V48.6667H661.798C666.915 48.6667 671.266 45.008 672.141 39.9657L672.419 38.365C672.531 37.7303 672.104 37.126 671.472 37.0163C670.844 36.8857 670.233 37.3267 670.123 37.9637L669.845 39.5643C669.161 43.4867 665.78 46.331 661.8 46.331H658.169C657.525 46.331 657.003 46.8537 657.003 47.4977V52.1643C657.003 54.094 655.432 55.6643 653.503 55.6643H634.834C632.806 55.6643 631.334 54.0217 631.334 51.7583V49.1777C631.334 46.5223 630.407 43.8437 628.657 41.431C625.514 37.1003 624.079 31.7757 624.504 26.038C624.523 25.8023 624.544 25.5667 624.569 25.331H647.751C648.318 29.2837 651.727 32.331 655.834 32.331H672.167C675.385 32.331 678 29.7153 678 26.4977V21.831C678 18.6133 675.385 16 672.167 16ZM644.09 4.60399C652.623 3.33232 661.126 6.79266 666.301 13.7017C666.579 14.0447 667.26 14.9757 667.885 15.9977H655.836C651.729 15.9977 648.32 19.045 647.753 22.9977H624.95C626.977 13.788 634.88 5.98999 644.09 4.60399ZM675.667 26.5C675.667 28.4297 674.097 30 672.167 30H655.834C652.616 30 650 27.3843 650 24.1667C650 20.949 652.616 18.3333 655.834 18.3333H672.167C674.097 18.3333 675.667 19.9037 675.667 21.8333V26.5Z" fill="#F1EFED"/>
</g>
<path d="M200.404 91V79.368H202.404V84.216H207.844V79.368H209.844V91H207.844V85.912H202.404V91H200.404ZM215.799 91.176C214.508 91.176 213.5 90.792 212.775 90.024C212.06 89.256 211.703 88.1787 211.703 86.792C211.703 85.4053 212.06 84.328 212.775 83.56C213.5 82.792 214.508 82.408 215.799 82.408C217.1 82.408 218.108 82.792 218.823 83.56C219.537 84.328 219.895 85.4053 219.895 86.792C219.895 88.1787 219.537 89.256 218.823 90.024C218.108 90.792 217.1 91.176 215.799 91.176ZM215.799 89.656C217.217 89.656 217.927 88.7013 217.927 86.792C217.927 84.8827 217.217 83.928 215.799 83.928C214.38 83.928 213.671 84.8827 213.671 86.792C213.671 88.7013 214.38 89.656 215.799 89.656ZM221.495 91V80.408L220.647 79.784V78.984H223.447V91H221.495ZM229.299 91.176C228.008 91.176 227 90.792 226.275 90.024C225.56 89.256 225.203 88.1787 225.203 86.792C225.203 85.4053 225.56 84.328 226.275 83.56C227 82.792 228.008 82.408 229.299 82.408C230.6 82.408 231.608 82.792 232.323 83.56C233.037 84.328 233.395 85.4053 233.395 86.792C233.395 88.1787 233.037 89.256 232.323 90.024C231.608 90.792 230.6 91.176 229.299 91.176ZM229.299 89.656C230.717 89.656 231.427 88.7013 231.427 86.792C231.427 84.8827 230.717 83.928 229.299 83.928C227.88 83.928 227.171 84.8827 227.171 86.792C227.171 88.7013 227.88 89.656 229.299 89.656ZM234.867 90.072L234.579 89.096L235.907 87.144C235.384 86.6533 235.123 86.0187 235.123 85.24C235.123 84.3547 235.432 83.6613 236.051 83.16C236.68 82.6587 237.555 82.408 238.675 82.408C239.24 82.408 239.763 82.488 240.243 82.648L243.059 82.632V83.608L242.067 83.96C242.408 84.3333 242.579 84.808 242.579 85.384C242.579 86.2267 242.248 86.888 241.587 87.368C240.926 87.848 240.014 88.088 238.851 88.088C238.211 88.088 237.64 88.008 237.139 87.848L236.483 88.824L240.419 89.336C241.326 89.4427 241.992 89.6933 242.419 90.088C242.856 90.472 243.075 91.0107 243.075 91.704C243.075 92.536 242.696 93.192 241.939 93.672C241.182 94.1627 240.152 94.408 238.851 94.408C237.518 94.408 236.494 94.2 235.779 93.784C235.075 93.3787 234.723 92.792 234.723 92.024C234.723 91.3307 235.043 90.7227 235.683 90.2L234.867 90.072ZM236.931 85.24C236.931 86.2213 237.571 86.712 238.851 86.712C240.131 86.712 240.771 86.2213 240.771 85.24C240.771 84.2693 240.131 83.784 238.851 83.784C237.571 83.784 236.931 84.2693 236.931 85.24ZM236.579 91.64C236.579 92.504 237.336 92.936 238.851 92.936C239.587 92.936 240.158 92.8347 240.563 92.632C240.979 92.4293 241.187 92.1467 241.187 91.784C241.187 91.5067 241.102 91.2987 240.931 91.16C240.771 91.032 240.478 90.936 240.051 90.872L237.123 90.424C236.76 90.776 236.579 91.1813 236.579 91.64ZM244.542 91V82.584H245.838L246.142 83.976C246.409 83.528 246.745 83.1813 247.15 82.936C247.555 82.68 248.03 82.552 248.574 82.552C248.777 82.552 248.963 82.568 249.134 82.6V84.344H248.67C248.083 84.344 247.603 84.5093 247.23 84.84C246.857 85.16 246.611 85.5867 246.494 86.12V91H244.542ZM255.728 91L255.456 89.752C255.146 90.2107 254.757 90.568 254.288 90.824C253.818 91.0693 253.301 91.192 252.736 91.192C251.872 91.192 251.184 90.952 250.672 90.472C250.17 89.992 249.92 89.3413 249.92 88.52C249.92 87.6453 250.24 86.9573 250.88 86.456C251.52 85.9547 252.394 85.704 253.504 85.704H255.088V85.304C255.088 84.7707 254.976 84.408 254.752 84.216C254.528 84.024 254.133 83.928 253.568 83.928C252.725 83.928 251.765 84.1253 250.688 84.52V83C251.114 82.8187 251.6 82.6747 252.144 82.568C252.688 82.4613 253.221 82.408 253.744 82.408C255.93 82.408 257.024 83.368 257.024 85.288V91H255.728ZM253.136 89.72C253.53 89.72 253.904 89.6187 254.256 89.416C254.608 89.2027 254.896 88.9093 255.12 88.536V86.952H253.728C252.437 86.952 251.792 87.4213 251.792 88.36C251.792 88.7867 251.909 89.1227 252.144 89.368C252.378 89.6027 252.709 89.72 253.136 89.72ZM259.198 91V82.584H260.494L260.782 83.896C261.113 83.4267 261.518 83.064 261.998 82.808C262.478 82.5413 262.995 82.408 263.55 82.408C264.745 82.408 265.566 82.8987 266.014 83.88C266.334 83.4213 266.739 83.064 267.23 82.808C267.721 82.5413 268.254 82.408 268.83 82.408C269.747 82.408 270.446 82.7013 270.926 83.288C271.417 83.864 271.662 84.7067 271.662 85.816V91H269.71V85.88C269.71 84.6427 269.23 84.024 268.27 84.024C267.822 84.024 267.433 84.1573 267.102 84.424C266.782 84.68 266.547 85.0427 266.398 85.512V91H264.478V85.88C264.478 84.6427 263.993 84.024 263.022 84.024C262.585 84.024 262.201 84.1627 261.87 84.44C261.539 84.7173 261.299 85.0907 261.15 85.56V91H259.198ZM277.857 91V79.368H285.089V81.064H279.857V84.552H284.529V86.248H279.857V91H277.857ZM291.681 91L291.409 89.752C291.1 90.2107 290.71 90.568 290.241 90.824C289.772 91.0693 289.254 91.192 288.689 91.192C287.825 91.192 287.137 90.952 286.625 90.472C286.124 89.992 285.873 89.3413 285.873 88.52C285.873 87.6453 286.193 86.9573 286.833 86.456C287.473 85.9547 288.348 85.704 289.457 85.704H291.041V85.304C291.041 84.7707 290.929 84.408 290.705 84.216C290.481 84.024 290.086 83.928 289.521 83.928C288.678 83.928 287.718 84.1253 286.641 84.52V83C287.068 82.8187 287.553 82.6747 288.097 82.568C288.641 82.4613 289.174 82.408 289.697 82.408C291.884 82.408 292.977 83.368 292.977 85.288V91H291.681ZM289.089 89.72C289.484 89.72 289.857 89.6187 290.209 89.416C290.561 89.2027 290.849 88.9093 291.073 88.536V86.952H289.681C288.39 86.952 287.745 87.4213 287.745 88.36C287.745 88.7867 287.862 89.1227 288.097 89.368C288.332 89.6027 288.662 89.72 289.089 89.72ZM295.151 91V82.584H296.447L296.735 83.944C297.109 83.4533 297.546 83.0747 298.047 82.808C298.559 82.5413 299.13 82.408 299.759 82.408C300.73 82.408 301.471 82.7013 301.983 83.288C302.495 83.864 302.751 84.7067 302.751 85.816V91H300.799V85.88C300.799 84.6427 300.271 84.024 299.215 84.024C298.757 84.024 298.335 84.1627 297.951 84.44C297.578 84.7173 297.295 85.0907 297.103 85.56V91H295.151Z" fill="#F1EFED"/>
<g clip-path="url(#clip5_88_6049)">
<path d="M238.217 25.821L242.093 20.396C244.06 17.6427 247.252 16 250.637 16H253.363C256.748 16 259.94 17.6427 261.907 20.3983L265.783 25.821C266.156 26.346 266.035 27.074 265.512 27.4497C265.305 27.5943 265.069 27.6667 264.833 27.6667C264.472 27.6667 264.11 27.4987 263.884 27.179L260.008 21.754C258.482 19.612 255.995 18.3333 253.363 18.3333H250.637C248.005 18.3333 245.52 19.612 243.992 21.7517L240.116 27.179C239.741 27.7017 239.013 27.8207 238.488 27.4497C237.963 27.074 237.844 26.3437 238.217 25.821ZM280 11.3333C280 11.8093 279.711 12.241 279.267 12.416L273.898 14.565L271.749 19.934C271.574 20.3773 271.143 20.6667 270.667 20.6667C270.191 20.6667 269.759 20.3773 269.584 19.934L267.43 14.5533L262.045 12.283C261.606 12.0963 261.322 11.6623 261.331 11.1863C261.34 10.708 261.639 10.2833 262.085 10.1153L267.437 8.09L269.582 2.73267C269.932 1.84367 271.395 1.84367 271.747 2.73267L273.896 8.10167L279.265 10.2507C279.708 10.4257 280 10.8573 280 11.3333ZM275.69 11.3333L272.566 10.0827C272.27 9.96367 272.034 9.73033 271.917 9.434L270.667 6.30967L269.416 9.434C269.295 9.73733 269.052 9.97533 268.746 10.092L265.643 11.268L268.788 12.591C269.075 12.7123 269.304 12.9433 269.418 13.2327L270.669 16.357L271.92 13.2327C272.039 12.9363 272.272 12.7007 272.568 12.584L275.69 11.3333ZM246.167 7.83333C246.167 4.61567 248.782 2 252 2C255.218 2 257.833 4.61567 257.833 7.83333C257.833 11.051 255.218 13.6667 252 13.6667C248.782 13.6667 246.167 11.051 246.167 7.83333ZM248.5 7.83333C248.5 9.763 250.07 11.3333 252 11.3333C253.93 11.3333 255.5 9.763 255.5 7.83333C255.5 5.90367 253.93 4.33333 252 4.33333C250.07 4.33333 248.5 5.90367 248.5 7.83333ZM269.5 55.6667H234.5C233.856 55.6667 233.333 56.1893 233.333 56.8333C233.333 57.4773 233.856 58 234.5 58H269.5C270.144 58 270.667 57.4773 270.667 56.8333C270.667 56.1893 270.144 55.6667 269.5 55.6667ZM243.833 46.3333C243.189 46.3333 242.667 46.856 242.667 47.5C242.667 48.144 243.189 48.6667 243.833 48.6667H260.167C260.811 48.6667 261.333 48.144 261.333 47.5C261.333 46.856 260.811 46.3333 260.167 46.3333H243.833ZM263.667 35.8333C263.667 35.1893 263.144 34.6667 262.5 34.6667H241.5C240.856 34.6667 240.333 35.1893 240.333 35.8333C240.333 36.4773 240.856 37 241.5 37H262.5C263.144 37 263.667 36.4773 263.667 35.8333ZM237.137 42.7027L233.133 43.7807L232.132 47.7823C232.001 48.3027 231.534 48.6667 231 48.6667C230.466 48.6667 229.997 48.3027 229.868 47.7823L228.872 43.7947L224.884 42.7983C224.364 42.6677 224 42.201 224 41.6667C224 41.1323 224.364 40.6633 224.884 40.535L228.872 39.5387L229.868 35.551C229.999 35.0307 230.466 34.6667 231 34.6667C231.534 34.6667 232.003 35.0307 232.132 35.551L233.123 39.5247L237.095 40.4417C237.617 40.563 237.991 41.0227 238 41.5593C238.009 42.096 237.655 42.565 237.137 42.7027Z" fill="#F1EFED"/>
</g>
<path d="M579.143 280.208C577.436 280.208 576.124 279.685 575.207 278.64C574.29 277.595 573.831 276.107 573.831 274.176C573.831 272.256 574.29 270.773 575.207 269.728C576.135 268.683 577.447 268.16 579.143 268.16C580.839 268.16 582.146 268.683 583.063 269.728C583.991 270.773 584.455 272.256 584.455 274.176C584.455 276.107 583.996 277.595 583.079 278.64C582.162 279.685 580.85 280.208 579.143 280.208ZM579.143 278.496C581.33 278.496 582.423 277.056 582.423 274.176C582.423 272.757 582.146 271.685 581.591 270.96C581.036 270.235 580.22 269.872 579.143 269.872C578.066 269.872 577.25 270.235 576.695 270.96C576.14 271.685 575.863 272.757 575.863 274.176C575.863 277.056 576.956 278.496 579.143 278.496ZM586.354 280V271.584H587.65L587.954 272.976C588.221 272.528 588.557 272.181 588.962 271.936C589.368 271.68 589.842 271.552 590.386 271.552C590.589 271.552 590.776 271.568 590.946 271.6V273.344H590.482C589.896 273.344 589.416 273.509 589.042 273.84C588.669 274.16 588.424 274.587 588.306 275.12V280H586.354ZM597.54 280L597.268 278.752C596.959 279.211 596.57 279.568 596.1 279.824C595.631 280.069 595.114 280.192 594.548 280.192C593.684 280.192 592.996 279.952 592.484 279.472C591.983 278.992 591.732 278.341 591.732 277.52C591.732 276.645 592.052 275.957 592.692 275.456C593.332 274.955 594.207 274.704 595.316 274.704H596.9V274.304C596.9 273.771 596.788 273.408 596.564 273.216C596.34 273.024 595.946 272.928 595.38 272.928C594.538 272.928 593.578 273.125 592.5 273.52V272C592.927 271.819 593.412 271.675 593.956 271.568C594.5 271.461 595.034 271.408 595.556 271.408C597.743 271.408 598.836 272.368 598.836 274.288V280H597.54ZM594.948 278.72C595.343 278.72 595.716 278.619 596.068 278.416C596.42 278.203 596.708 277.909 596.932 277.536V275.952H595.54C594.25 275.952 593.604 276.421 593.604 277.36C593.604 277.787 593.722 278.123 593.956 278.368C594.191 278.603 594.522 278.72 594.948 278.72ZM607.123 278.096V279.68C606.792 279.84 606.403 279.963 605.955 280.048C605.507 280.144 605.037 280.192 604.547 280.192C601.869 280.192 600.531 278.693 600.531 275.696C600.531 274.331 600.888 273.275 601.603 272.528C602.328 271.781 603.347 271.408 604.659 271.408C605.501 271.408 606.243 271.552 606.883 271.84V273.408C606.275 273.099 605.656 272.944 605.027 272.944C603.341 272.944 602.499 273.861 602.499 275.696C602.499 276.699 602.691 277.44 603.075 277.92C603.469 278.4 604.067 278.64 604.867 278.64C605.507 278.64 606.259 278.459 607.123 278.096ZM608.792 280V269.408L607.944 268.784V267.984H610.744V280H608.792ZM619.651 279.6C619.299 279.781 618.873 279.925 618.371 280.032C617.87 280.139 617.337 280.192 616.771 280.192C615.385 280.192 614.323 279.813 613.587 279.056C612.862 278.299 612.499 277.195 612.499 275.744C612.499 274.357 612.846 273.291 613.539 272.544C614.243 271.787 615.23 271.408 616.499 271.408C617.673 271.408 618.558 271.744 619.155 272.416C619.753 273.077 620.051 274.027 620.051 275.264V276.352H614.435C614.51 277.152 614.75 277.733 615.155 278.096C615.571 278.459 616.174 278.64 616.963 278.64C617.433 278.64 617.875 278.597 618.291 278.512C618.707 278.416 619.161 278.267 619.651 278.064V279.6ZM616.483 272.88C615.203 272.88 614.515 273.579 614.419 274.976H618.259C618.249 273.579 617.657 272.88 616.483 272.88ZM625.779 280V268.368H629.475C631.363 268.368 632.787 268.859 633.747 269.84C634.717 270.821 635.203 272.272 635.203 274.192C635.203 276.101 634.717 277.547 633.747 278.528C632.787 279.509 631.363 280 629.475 280H625.779ZM629.443 270.016H627.779V278.352H629.443C630.68 278.352 631.603 278.011 632.211 277.328C632.829 276.645 633.139 275.6 633.139 274.192C633.139 272.784 632.835 271.739 632.227 271.056C631.619 270.363 630.691 270.016 629.443 270.016ZM642.275 280L642.003 278.752C641.693 279.211 641.304 279.568 640.835 279.824C640.365 280.069 639.848 280.192 639.283 280.192C638.419 280.192 637.731 279.952 637.219 279.472C636.717 278.992 636.467 278.341 636.467 277.52C636.467 276.645 636.787 275.957 637.427 275.456C638.067 274.955 638.941 274.704 640.051 274.704H641.635V274.304C641.635 273.771 641.523 273.408 641.299 273.216C641.075 273.024 640.68 272.928 640.115 272.928C639.272 272.928 638.312 273.125 637.235 273.52V272C637.661 271.819 638.147 271.675 638.691 271.568C639.235 271.461 639.768 271.408 640.291 271.408C642.477 271.408 643.571 272.368 643.571 274.288V280H642.275ZM639.683 278.72C640.077 278.72 640.451 278.619 640.803 278.416C641.155 278.203 641.443 277.909 641.667 277.536V275.952H640.275C638.984 275.952 638.339 276.421 638.339 277.36C638.339 277.787 638.456 278.123 638.691 278.368C638.925 278.603 639.256 278.72 639.683 278.72ZM646.081 277.264V273.104H644.625V272.128L646.129 271.552L646.785 269.216H648.033V271.584H649.841V273.104H648.033V277.248C648.033 277.696 648.134 278.021 648.337 278.224C648.54 278.416 648.838 278.512 649.233 278.512C649.35 278.512 649.473 278.512 649.601 278.512C649.74 278.501 649.852 278.491 649.937 278.48V280.016C649.724 280.048 649.526 280.069 649.345 280.08C649.174 280.091 648.982 280.096 648.769 280.096C647.862 280.096 647.185 279.867 646.737 279.408C646.3 278.949 646.081 278.235 646.081 277.264ZM657.087 280L656.815 278.752C656.506 279.211 656.116 279.568 655.647 279.824C655.178 280.069 654.66 280.192 654.095 280.192C653.231 280.192 652.543 279.952 652.031 279.472C651.53 278.992 651.279 278.341 651.279 277.52C651.279 276.645 651.599 275.957 652.239 275.456C652.879 274.955 653.754 274.704 654.863 274.704H656.447V274.304C656.447 273.771 656.335 273.408 656.111 273.216C655.887 273.024 655.492 272.928 654.927 272.928C654.084 272.928 653.124 273.125 652.047 273.52V272C652.474 271.819 652.959 271.675 653.503 271.568C654.047 271.461 654.58 271.408 655.103 271.408C657.29 271.408 658.383 272.368 658.383 274.288V280H657.087ZM654.495 278.72C654.89 278.72 655.263 278.619 655.615 278.416C655.967 278.203 656.255 277.909 656.479 277.536V275.952H655.087C653.796 275.952 653.151 276.421 653.151 277.36C653.151 277.787 653.268 278.123 653.503 278.368C653.738 278.603 654.068 278.72 654.495 278.72ZM660.51 279.6V267.984H662.462V272.336C663.112 271.717 663.88 271.408 664.766 271.408C665.875 271.408 666.723 271.776 667.31 272.512C667.907 273.248 668.206 274.304 668.206 275.68C668.206 277.077 667.806 278.181 667.006 278.992C666.216 279.792 665.123 280.192 663.726 280.192C663.192 280.192 662.622 280.133 662.014 280.016C661.416 279.909 660.915 279.771 660.51 279.6ZM664.318 272.864C663.603 272.864 662.979 273.184 662.446 273.824V278.496C662.819 278.613 663.235 278.672 663.694 278.672C665.39 278.672 666.238 277.669 666.238 275.664C666.238 274.757 666.072 274.064 665.742 273.584C665.411 273.104 664.936 272.864 664.318 272.864ZM675.228 280L674.956 278.752C674.646 279.211 674.257 279.568 673.788 279.824C673.318 280.069 672.801 280.192 672.236 280.192C671.372 280.192 670.684 279.952 670.172 279.472C669.67 278.992 669.42 278.341 669.42 277.52C669.42 276.645 669.74 275.957 670.38 275.456C671.02 274.955 671.894 274.704 673.004 274.704H674.588V274.304C674.588 273.771 674.476 273.408 674.252 273.216C674.028 273.024 673.633 272.928 673.068 272.928C672.225 272.928 671.265 273.125 670.188 273.52V272C670.614 271.819 671.1 271.675 671.644 271.568C672.188 271.461 672.721 271.408 673.244 271.408C675.43 271.408 676.524 272.368 676.524 274.288V280H675.228ZM672.636 278.72C673.03 278.72 673.404 278.619 673.756 278.416C674.108 278.203 674.396 277.909 674.62 277.536V275.952H673.228C671.937 275.952 671.292 276.421 671.292 277.36C671.292 277.787 671.409 278.123 671.644 278.368C671.878 278.603 672.209 278.72 672.636 278.72ZM678.314 279.616V278.032C678.847 278.245 679.327 278.4 679.754 278.496C680.181 278.581 680.629 278.624 681.098 278.624C682.239 278.624 682.81 278.299 682.81 277.648C682.81 277.403 682.714 277.205 682.522 277.056C682.341 276.896 682.021 276.752 681.562 276.624L680.314 276.288C679.557 276.075 679.002 275.781 678.65 275.408C678.298 275.024 678.122 274.533 678.122 273.936C678.122 273.147 678.426 272.528 679.034 272.08C679.642 271.632 680.469 271.408 681.514 271.408C682.015 271.408 682.501 271.451 682.97 271.536C683.439 271.621 683.839 271.739 684.17 271.888V273.44C683.306 273.109 682.447 272.944 681.594 272.944C680.559 272.944 680.042 273.232 680.042 273.808C680.042 274.032 680.133 274.219 680.314 274.368C680.495 274.507 680.799 274.635 681.226 274.752L682.474 275.104C683.295 275.339 683.877 275.643 684.218 276.016C684.559 276.379 684.73 276.891 684.73 277.552C684.73 278.395 684.421 279.045 683.802 279.504C683.183 279.963 682.303 280.192 681.162 280.192C680.639 280.192 680.117 280.139 679.594 280.032C679.071 279.925 678.645 279.787 678.314 279.616ZM692.964 279.6C692.612 279.781 692.185 279.925 691.684 280.032C691.183 280.139 690.649 280.192 690.084 280.192C688.697 280.192 687.636 279.813 686.9 279.056C686.175 278.299 685.812 277.195 685.812 275.744C685.812 274.357 686.159 273.291 686.852 272.544C687.556 271.787 688.543 271.408 689.812 271.408C690.985 271.408 691.871 271.744 692.468 272.416C693.065 273.077 693.364 274.027 693.364 275.264V276.352H687.748C687.823 277.152 688.063 277.733 688.468 278.096C688.884 278.459 689.487 278.64 690.276 278.64C690.745 278.64 691.188 278.597 691.604 278.512C692.02 278.416 692.473 278.267 692.964 278.064V279.6ZM689.796 272.88C688.516 272.88 687.828 273.579 687.732 274.976H691.572C691.561 273.579 690.969 272.88 689.796 272.88Z" fill="#F1EFED"/>
<path d="M645.667 226C643.093 226 641 228.093 641 230.667C641 233.24 643.093 235.333 645.667 235.333C648.24 235.333 650.333 233.24 650.333 230.667C650.333 228.093 648.24 226 645.667 226ZM645.667 233C644.381 233 643.333 231.955 643.333 230.667C643.333 229.379 644.381 228.333 645.667 228.333C646.952 228.333 648 229.379 648 230.667C648 231.955 646.952 233 645.667 233ZM658.514 234.115L657.007 233.236C657.226 232.335 657.333 231.49 657.333 230.667C657.333 229.843 657.226 228.998 657.007 228.098L658.514 227.218C659.321 226.747 659.898 225.991 660.136 225.085C660.374 224.18 660.243 223.237 659.772 222.43C658.799 220.764 656.652 220.197 654.984 221.172L653.49 222.045C652.237 220.906 650.767 220.059 649.167 219.553V217.831C649.167 215.901 647.596 214.331 645.667 214.331C643.737 214.331 642.167 215.901 642.167 217.831V219.553C640.564 220.059 639.096 220.906 637.843 222.045L636.347 221.172C634.677 220.199 632.532 220.764 631.562 222.43C631.09 223.237 630.962 224.18 631.198 225.085C631.436 225.991 632.012 226.747 632.819 227.218L634.327 228.098C634.107 228.998 634 229.843 634 230.667C634 231.49 634.107 232.335 634.327 233.236L632.819 234.115C632.012 234.587 631.436 235.343 631.198 236.248C630.96 237.153 631.09 238.096 631.562 238.903C632.532 240.572 634.679 241.136 636.35 240.161L637.843 239.288C639.096 240.427 640.566 241.276 642.167 241.778V243.5C642.167 245.43 643.737 247 645.667 247C647.596 247 649.167 245.43 649.167 243.5V241.778C650.767 241.274 652.237 240.427 653.49 239.288L654.986 240.161C656.654 241.136 658.801 240.569 659.772 238.903C660.243 238.096 660.371 237.153 660.136 236.248C659.898 235.343 659.321 234.587 658.514 234.115ZM657.758 237.727C657.431 238.28 656.715 238.467 656.162 238.147L653.896 236.824C653.427 236.551 652.828 236.638 652.457 237.034C651.173 238.402 649.542 239.342 647.741 239.753C647.209 239.874 646.833 240.345 646.833 240.889V243.502C646.833 244.144 646.311 244.669 645.667 244.669C645.023 244.669 644.5 244.144 644.5 243.502V240.889C644.5 240.345 644.122 239.872 643.592 239.753C641.791 239.342 640.16 238.402 638.877 237.034C638.65 236.792 638.34 236.666 638.025 236.666C637.824 236.666 637.619 236.717 637.437 236.824L635.174 238.147C634.618 238.469 633.902 238.285 633.578 237.727C633.251 237.191 633.449 236.435 633.998 236.129L636.282 234.797C636.753 234.524 636.97 233.961 636.807 233.441C636.485 232.414 636.336 231.532 636.336 230.669C636.336 229.806 636.485 228.924 636.807 227.897C636.97 227.377 636.753 226.814 636.282 226.541L633.998 225.209C633.449 224.903 633.251 224.147 633.578 223.611C633.9 223.055 634.616 222.869 635.174 223.191L637.439 224.514C637.906 224.789 638.508 224.7 638.879 224.304C640.16 222.936 641.793 221.998 643.595 221.585C644.127 221.464 644.502 220.993 644.502 220.449V217.836C644.502 217.192 645.025 216.669 645.669 216.669C646.313 216.669 646.836 217.192 646.836 217.836V220.449C646.836 220.993 647.211 221.466 647.743 221.585C649.547 221.998 651.178 222.936 652.459 224.304C652.832 224.7 653.432 224.789 653.899 224.514L656.162 223.191C656.715 222.869 657.434 223.051 657.758 223.611C658.085 224.147 657.886 224.903 657.338 225.209L655.054 226.541C654.582 226.814 654.365 227.377 654.529 227.897C654.851 228.924 655 229.806 655 230.669C655 231.532 654.851 232.414 654.529 233.441C654.365 233.961 654.582 234.524 655.054 234.797L657.338 236.129C657.886 236.435 658.085 237.191 657.758 237.727ZM630.353 244.384C628.883 244.573 627.362 244.669 625.833 244.669C616.348 244.669 608.333 240.929 608.333 236.502V229.85C611.644 233.142 618.164 235.336 625.833 235.336C626.477 235.336 627 234.813 627 234.169C627 233.525 626.477 233.002 625.833 233.002C616.348 233.002 608.333 229.262 608.333 224.836V218.183C611.644 221.476 618.164 223.669 625.833 223.669C626.477 223.669 627 223.146 627 222.502C627 221.858 626.477 221.336 625.833 221.336C616.348 221.336 608.333 217.595 608.333 213.169V206.517C611.644 209.809 618.164 212.002 625.833 212.002C633.503 212.002 640.022 209.809 643.333 206.517V208.502C643.333 209.146 643.856 209.669 644.5 209.669C645.144 209.669 645.667 209.146 645.667 208.502V201.502C645.667 195.613 636.956 191 625.833 191C614.71 191 606 195.613 606 201.5V236.5C606 242.387 614.71 247 625.833 247C627.46 247 629.079 246.897 630.647 246.697C631.286 246.615 631.739 246.029 631.657 245.39C631.576 244.751 630.995 244.3 630.351 244.38L630.353 244.384ZM625.833 193.333C635.318 193.333 643.333 197.074 643.333 201.5C643.333 205.926 635.318 209.667 625.833 209.667C616.348 209.667 608.333 205.926 608.333 201.5C608.333 197.074 616.348 193.333 625.833 193.333Z" fill="#F1EFED"/>
<g style="mix-blend-mode:multiply">
<path d="M321.939 34.9393C321.354 35.5251 321.354 36.4749 321.939 37.0607L331.485 46.6066C332.071 47.1924 333.021 47.1924 333.607 46.6066C334.192 46.0208 334.192 45.0711 333.607 44.4853L325.121 36L333.607 27.5147C334.192 26.9289 334.192 25.9792 333.607 25.3934C333.021 24.8076 332.071 24.8076 331.485 25.3934L321.939 34.9393ZM415 37.5C415.828 37.5 416.5 36.8284 416.5 36C416.5 35.1716 415.828 34.5 415 34.5V37.5ZM323 37.5H415V34.5H323V37.5Z" fill="#A1AAB6"/>
</g>
<g style="mix-blend-mode:multiply">
<path d="M243 177V163.805C243 158.282 247.477 153.805 253 153.805H548C553.523 153.805 558 149.328 558 143.805V130" stroke="#A1AAB6" stroke-width="3" stroke-linecap="round"/>
<path d="M444 177V163.805C444 158.282 448.477 153.805 454 153.805H548C553.523 153.805 558 149.328 558 143.805V130" stroke="#A1AAB6" stroke-width="3" stroke-linecap="round"/>
<path d="M873 177V163.805C873 158.282 868.523 153.805 863 153.805H568C562.477 153.805 558 149.328 558 143.805V130" stroke="#A1AAB6" stroke-width="3" stroke-linecap="round"/>
<path d="M634 177V163.805C634 158.282 629.523 153.805 624 153.805H568C562.477 153.805 558 149.328 558 143.805V130" stroke="#A1AAB6" stroke-width="3" stroke-linecap="round"/>
<path d="M634.5 295.5V320.5" stroke="#A1AAB6" stroke-width="3" stroke-linecap="round"/>
</g>
<defs>
<clipPath id="clip0_88_6049">
<rect width="56" height="56" fill="white" transform="translate(467 2)"/>
</clipPath>
<clipPath id="clip1_88_6049">
<rect width="56" height="56" fill="white" transform="translate(605 335)"/>
</clipPath>
<clipPath id="clip2_88_6049">
<rect width="56" height="56" fill="white" transform="translate(215 191)"/>
</clipPath>
<clipPath id="clip3_88_6049">
<rect width="56" height="56" fill="white" transform="translate(416 191)"/>
</clipPath>
<clipPath id="clip4_88_6049">
<rect width="56" height="56" fill="white" transform="translate(622 2)"/>
</clipPath>
<clipPath id="clip5_88_6049">
<rect width="56" height="56" fill="white" transform="translate(224 2)"/>
</clipPath>
</defs>
</svg>
