<?xml version="1.0" encoding="UTF-8"?>
<svg id="Logo" xmlns="http://www.w3.org/2000/svg" viewBox="0 0 369.08 122.75">
  <defs>
    <style>
      .cls-1 {
        fill: #f1efed;
        stroke-width: 0px;
      }
    </style>
  </defs>
  <path class="cls-1" d="M159.33,31.23h24.38l-12.88-20.79-23.65,37.55h-10.8L165.17,2.93c1.23-1.83,3.34-2.93,5.64-2.93s4.33,1.07,5.56,2.85l28.88,45.14h-10.77l-5.08-8.39h-24.69l-5.38-8.36ZM271.21,39.6V.46h-9.16v42.99c0,1.17.49,2.32,1.35,3.15.87.9,2.07,1.4,3.33,1.4h41.64l5.43-8.39h-42.6ZM120,32.6c8.9,0,16.06-7.2,16.06-16.08S128.9.46,120,.46h-39.99v47.53h9.14V8.86h30.24c4.24,0,7.68,3.43,7.68,7.67s-3.44,7.72-7.68,7.72l-25.78-.02,27.3,23.77h13.26l-18.34-15.39h4.16ZM23.78,47.99h27.63c13.14,0,23.73-10.62,23.73-23.75S64.55.46,51.41.46h-27.63C10.65.46,0,11.1,0,24.24s10.65,23.75,23.78,23.75ZM50.78,39.63h-26.39c-8.49,0-15.37-6.9-15.37-15.38s6.88-15.38,15.37-15.38h26.39c8.52,0,15.4,6.87,15.4,15.38s-6.87,15.38-15.4,15.38ZM224.34,47.99h28.21l5.34-8.36h-32.92c-8.53,0-15.41-6.9-15.41-15.38s6.87-15.38,15.41-15.38h26.8l5.4-8.4h-32.83c-13.14,0-23.81,10.64-23.81,23.79s10.67,23.75,23.81,23.75ZM336.12,39.63c-7.04,0-12.98-4.73-14.81-11.19h39.06l5.38-8.38h-44.44c1.83-6.48,7.77-11.19,14.81-11.19h26.82l5.36-8.4h-32.79c-13.11,0-23.76,10.64-23.76,23.79s10.64,23.75,23.76,23.75h28.21l5.36-8.36h-32.96Z"/>
  <g>
    <path class="cls-1" d="M4.58,121.98v-50.89h15.26c8.21,0,14.41,2.15,18.58,6.44,4.18,4.29,6.26,10.64,6.26,19.04s-2.09,14.74-6.26,19c-4.18,4.27-10.37,6.41-18.58,6.41H4.58ZM19.7,76.62h-8.61v39.83h8.61c6.16,0,10.76-1.63,13.79-4.9,3.03-3.27,4.55-8.26,4.55-14.98,0-13.3-6.11-19.95-18.34-19.95Z"/>
    <path class="cls-1" d="M86.9,121.98l-1.05-5.88c-2.99,4.43-7.05,6.65-12.18,6.65-3.69,0-6.64-1.04-8.85-3.12-2.22-2.08-3.33-4.84-3.33-8.29,0-3.83,1.32-6.8,3.96-8.92,2.64-2.12,6.31-3.18,11.02-3.18h8.4v-2.31c0-2.61-.57-4.46-1.71-5.53-1.14-1.07-3.09-1.61-5.85-1.61-1.77,0-3.66.2-5.67.59-2.01.4-4.27,1.04-6.79,1.92v-5.11c1.77-.79,3.8-1.41,6.09-1.86,2.29-.44,4.43-.67,6.44-.67,9.19,0,13.79,4.08,13.79,12.25v25.06h-4.27ZM74.44,117.71c2.15,0,4.15-.62,6.02-1.85,1.87-1.24,3.36-2.93,4.48-5.08v-6.93h-7.84c-3.17,0-5.52.57-7.04,1.71-1.52,1.14-2.28,2.91-2.28,5.29,0,2.1.6,3.77,1.79,5s2.81,1.85,4.87,1.85Z"/>
    <path class="cls-1" d="M113.36,110.85v-20.23h-6.3v-3.22l6.3-2.1,2.52-9.94h3.78v10.08h7.91v5.18h-7.91v20.16c0,4.01,1.73,6.02,5.18,6.02.56,0,1.11-.03,1.65-.1.54-.07,1.04-.13,1.5-.17v5.46c-.65.14-1.32.23-1.99.28-.68.05-1.39.07-2.13.07-3.59,0-6.24-.93-7.95-2.8-1.7-1.87-2.55-4.76-2.55-8.68Z"/>
    <path class="cls-1" d="M170.2,121.98l-1.05-5.88c-2.99,4.43-7.05,6.65-12.18,6.65-3.69,0-6.64-1.04-8.85-3.12-2.22-2.08-3.33-4.84-3.33-8.29,0-3.83,1.32-6.8,3.96-8.92,2.64-2.12,6.31-3.18,11.02-3.18h8.4v-2.31c0-2.61-.57-4.46-1.71-5.53-1.14-1.07-3.09-1.61-5.85-1.61-1.77,0-3.66.2-5.67.59-2.01.4-4.27,1.04-6.79,1.92v-5.11c1.77-.79,3.8-1.41,6.09-1.86,2.29-.44,4.43-.67,6.44-.67,9.19,0,13.79,4.08,13.79,12.25v25.06h-4.27ZM157.74,117.71c2.15,0,4.15-.62,6.02-1.85,1.87-1.24,3.36-2.93,4.48-5.08v-6.93h-7.84c-3.17,0-5.52.57-7.04,1.71-1.52,1.14-2.28,2.91-2.28,5.29,0,2.1.6,3.77,1.79,5s2.81,1.85,4.87,1.85Z"/>
    <path class="cls-1" d="M195.26,120.3v-50.89h6.3v19.88c3.08-3.08,6.7-4.62,10.85-4.62,4.85,0,8.59,1.61,11.2,4.83,2.61,3.22,3.92,7.84,3.92,13.86s-1.66,10.81-4.97,14.25c-3.31,3.43-7.93,5.14-13.86,5.14-2.29,0-4.69-.22-7.21-.67-2.52-.44-4.6-1.04-6.23-1.79ZM211.22,89.71c-1.68,0-3.37.42-5.08,1.26-1.7.84-3.23,2.03-4.58,3.57v22.12c.93.28,1.98.5,3.15.67,1.17.16,2.45.25,3.85.25,8.35,0,12.53-4.76,12.53-14.28,0-4.43-.83-7.8-2.49-10.12-1.66-2.31-4.12-3.46-7.38-3.46Z"/>
    <path class="cls-1" d="M269.39,121.98l-1.05-5.88c-2.99,4.43-7.05,6.65-12.18,6.65-3.69,0-6.64-1.04-8.86-3.12-2.22-2.08-3.32-4.84-3.32-8.29,0-3.83,1.32-6.8,3.96-8.92,2.63-2.12,6.31-3.18,11.02-3.18h8.4v-2.31c0-2.61-.57-4.46-1.71-5.53-1.14-1.07-3.09-1.61-5.84-1.61-1.77,0-3.66.2-5.67.59-2.01.4-4.27,1.04-6.79,1.92v-5.11c1.77-.79,3.8-1.41,6.09-1.86,2.29-.44,4.43-.67,6.44-.67,9.19,0,13.79,4.08,13.79,12.25v25.06h-4.27ZM256.93,117.71c2.15,0,4.15-.62,6.02-1.85,1.87-1.24,3.36-2.93,4.48-5.08v-6.93h-7.84c-3.17,0-5.52.57-7.04,1.71-1.52,1.14-2.28,2.91-2.28,5.29,0,2.1.6,3.77,1.79,5,1.19,1.24,2.81,1.85,4.87,1.85Z"/>
    <path class="cls-1" d="M292.7,120.16v-5.32c2.19.93,4.19,1.61,5.99,2.03,1.8.42,3.7.63,5.71.63,6.07,0,9.1-1.82,9.1-5.46,0-1.45-.45-2.58-1.33-3.39-.89-.82-2.45-1.53-4.69-2.14l-5.74-1.54c-3.36-.93-5.81-2.21-7.35-3.82s-2.31-3.67-2.31-6.2c0-3.17,1.25-5.68,3.74-7.52s5.87-2.77,10.12-2.77c2.33,0,4.46.19,6.37.56,1.91.37,3.57.89,4.97,1.54v5.32c-3.59-1.45-7.23-2.17-10.92-2.17-5.32,0-7.98,1.54-7.98,4.62,0,1.31.41,2.34,1.23,3.12.82.77,2.25,1.43,4.31,2l5.81,1.54c3.55.93,6.11,2.23,7.7,3.88,1.59,1.66,2.38,3.88,2.38,6.68,0,3.41-1.33,6.09-3.99,8.05-2.66,1.96-6.35,2.94-11.06,2.94-2.24,0-4.43-.23-6.58-.7-2.15-.47-3.97-1.1-5.46-1.89Z"/>
    <path class="cls-1" d="M365.71,120.16c-1.31.79-3.04,1.42-5.21,1.89-2.17.47-4.54.7-7.11.7-5.79,0-10.16-1.64-13.12-4.93-2.96-3.29-4.45-8.11-4.45-14.46s1.41-10.76,4.24-13.93,6.87-4.76,12.15-4.76c10.17,0,15.26,5.62,15.26,16.87v4.06h-25.27c.28,4.11,1.38,7.1,3.29,9,1.91,1.89,4.76,2.83,8.54,2.83,2.1,0,4.08-.21,5.95-.63,1.87-.42,3.78-1.07,5.74-1.96v5.32ZM352.2,89.85c-3.08,0-5.47.92-7.18,2.76-1.7,1.84-2.65,4.51-2.83,8.01h19.18c0-3.83-.71-6.58-2.13-8.26-1.42-1.68-3.77-2.52-7.04-2.52Z"/>
  </g>
</svg>