<?xml version="1.0" encoding="UTF-8"?>
<svg id="Layer_1" data-name="Layer 1" xmlns="http://www.w3.org/2000/svg" viewBox="0 0 48 48">
  <defs>
    <style>
      .cls-1 {
        fill: #f1b03d;
        stroke-width: 0px;
      }
    </style>
  </defs>
  <path class="cls-1" d="M24,0C10.77,0,0,10.77,0,24s10.77,24,24,24,24-10.77,24-24S37.23,0,24,0ZM24,46c-12.13,0-22-9.87-22-22S11.87,2,24,2s22,9.87,22,22-9.87,22-22,22ZM36,24c0,6.28-4.85,11.45-11,11.96v3.04c0,.55-.45,1-1,1s-1-.45-1-1v-3.04c-6.15-.51-11-5.68-11-11.96,0-.55.45-1,1-1s1,.45,1,1c0,5.51,4.49,10,10,10s10-4.49,10-10c0-.55.45-1,1-1s1,.45,1,1ZM24.01,29.97c3.31,0,6-2.69,6-6v-10c0-3.31-2.69-6-6-6s-6,2.69-6,6v10c0,3.31,2.69,6,6,6ZM20.01,13.97c0-2.21,1.79-4,4-4s4,1.79,4,4v10c0,2.21-1.79,4-4,4s-4-1.79-4-4v-10Z"/>
</svg>