<svg width="308" height="537" viewBox="0 0 308 537" fill="none" xmlns="http://www.w3.org/2000/svg">
<g clip-path="url(#clip0_44_4135)">
<path d="M189.198 22.3533C189.546 22.5346 189.908 23.4746 190.142 22.9307C190.843 21.2989 192.741 20.6309 193.185 18.8608C193.6 17.2004 194.558 16.0744 196.304 15.7309C197.353 15.5257 197.739 14.5953 198.312 13.8701H204.507C204.984 16.1651 204.45 17.9543 202.399 19.4047C200.529 20.7263 200.081 22.9736 199.871 25.1159C199.633 27.511 198.388 28.9281 196.17 29.472C193.91 30.0254 192.021 29.1428 190.838 27.2581C190.066 26.0272 189.717 26.0749 188.396 26.6617C185.754 27.8355 183.136 28.6418 181.042 31.0179C179.463 32.8118 176.673 31.6954 175.133 29.2334C174.67 28.4891 174.403 27.5874 173.206 28.0024C171.971 28.4319 172.438 29.3432 172.519 30.1829C172.887 33.9283 170.764 37.5544 167.383 38.9953C164.073 40.4076 160.167 39.4629 157.663 36.6383C157.205 36.1231 156.948 35.3597 156.07 35.374C155.188 35.0352 154.84 34.5152 155.483 33.6563C155.979 33.2078 155.813 32.6544 155.755 32.1057C155.15 26.2037 160.234 21.7283 166.047 23.1358C167.373 23.4555 168.132 23.5223 168.866 22.0527C170.607 18.5698 174.475 18.4982 176.616 21.7712C177.761 23.5175 181.624 23.6129 182.821 21.9239C185.005 21.1987 187.118 21.5565 189.198 22.3581V22.3533Z" fill="#60A0B8"/>
<path d="M312.811 17.2909C314.437 21.1699 313.965 24.0803 311.385 26.0842C309.11 27.8543 305.986 27.9116 303.668 26.2321C301.26 24.4858 300.401 21.771 301.403 18.9178C301.98 17.2765 302.657 15.6639 302.228 13.8604H309.854C310.789 15.0436 312.701 15.3871 312.811 17.2861V17.2909Z" fill="#C64733"/>
<path d="M247.087 526.794C246.801 522.772 249.276 519.418 252.934 518.879C255.977 518.431 258.767 520.616 259.587 524.003C260.026 525.816 259.482 527.439 258.853 529.07H247.888C247.063 528.507 246.758 527.763 247.087 526.794Z" fill="#C64733"/>
<path d="M202.123 529.07C201.923 528.555 201.694 528.054 201.531 527.529C200.978 525.74 201.393 524.218 202.977 523.183C204.603 522.119 206.129 522.548 207.507 523.76C209.544 525.549 211.003 525.32 212.434 522.987C213.622 521.05 215.701 521.079 216.946 522.987C218.157 524.848 219.426 526.656 218.806 529.066H209.272C208.638 528.565 207.999 528.698 207.364 529.066H202.123V529.07Z" fill="#C64733"/>
<path d="M222.145 529.07C223.365 528.154 225.206 528.24 225.86 526.298C226.146 525.449 227.543 525.763 228.03 526.613C228.702 527.791 229.504 528.497 230.868 528.135C232.294 527.758 231.473 526.541 231.616 525.711C231.836 524.423 232.584 523.669 233.791 523.54C235.026 523.411 236.438 524.275 236.271 525.243C235.813 527.92 237.702 528.287 239.309 529.075H222.149L222.145 529.07Z" fill="#5F9EB6"/>
<path d="M232.633 13.8652C233.315 14.7908 233.462 15.7355 232.528 16.561C231.841 17.1669 230.992 17.4436 230.191 16.8138C229.165 16.0027 229.251 14.9435 229.771 13.87H232.633V13.8652Z" fill="#5D9BB2"/>
<path d="M247.087 526.794C247.416 527.534 247.908 528.211 247.889 529.07H245.504C245.881 528.207 246.348 527.405 247.087 526.794Z" fill="#5F98AD"/>
<path d="M207.363 529.07C207.998 528.331 208.637 527.997 209.271 529.07H207.363Z" fill="#613831"/>
<path d="M195.427 86.4546C194.873 87.3086 194.325 88.1627 193.767 89.0167C191.048 93.1629 186.408 94.9712 181.81 93.6782C176.912 92.3041 173.788 88.4442 173.598 83.5346C173.421 79.0115 176.278 74.5599 180.341 73.0188C185.211 71.1724 189.994 72.4272 193.175 76.3539C193.714 77.0171 194.039 77.8902 194.897 78.2719C195.818 80.9486 196.528 83.6443 195.427 86.4546Z" fill="#D29E5C"/>
<path d="M195.425 86.4543C194.715 83.7633 194.166 81.058 194.896 78.2716C196.904 73.3048 200.929 70.5041 205.636 70.8047C210.134 71.0909 214.102 74.3258 215.342 78.7249C216.572 83.0858 214.798 87.8904 211.011 90.4478C205.808 93.9546 199.665 92.3801 195.425 86.4543Z" fill="#C64733"/>
<path d="M281.849 17.9016C281.449 16.3796 281.139 14.8528 281.549 13.2783C282.684 10.4728 284.959 8.88875 287.615 9.06052C290.157 9.22274 292.399 11.0501 293.1 13.5359C293.796 16.0026 292.795 18.7175 290.653 20.1584C287.716 22.1384 284.244 21.251 281.849 17.9016Z" fill="#C64733"/>
<path d="M310.814 160.861C305.544 160.885 301.409 156.787 301.428 151.562C301.447 146.328 305.591 142.187 310.799 142.201C315.965 142.211 320.185 146.29 320.181 151.276C320.181 156.782 316.213 160.838 310.814 160.861Z" fill="#C64733"/>
<path d="M187.376 56.1858C187.405 51.0901 191.201 47.2493 196.218 47.2398C200.983 47.2302 205.094 51.4432 205.046 56.2955C204.999 61.415 201.236 65.1414 196.132 65.127C191.01 65.1127 187.343 61.3673 187.371 56.1858H187.376Z" fill="#D29E5C"/>
<path d="M100.509 77.0407C97.275 78.2335 94.3133 77.8662 91.6568 75.5521C88.0512 72.4127 87.6649 67.4888 90.7554 63.6384C93.3594 60.3987 98.7105 59.7833 102.121 62.3263C106.031 65.2415 106.856 69.8934 104.167 73.8392C103.809 74.3593 103.446 74.8746 103.089 75.3947C102.85 76.9167 102.02 77.5131 100.509 77.0455V77.0407Z" fill="#60A0B8"/>
<path d="M106.912 163.39C106.935 168.19 103.516 171.735 98.7848 171.816C94.4018 171.887 90.3574 167.889 90.3908 163.519C90.4242 158.881 94.0823 155.074 98.5654 155.007C103.397 154.935 106.883 158.442 106.912 163.395V163.39Z" fill="#D29E5C"/>
<path d="M139.224 200.062C139.128 204.699 135.623 208.115 131.011 208.063C126.318 208.01 122.841 204.356 122.989 199.623C123.132 195.057 126.742 191.645 131.34 191.731C135.871 191.817 139.319 195.462 139.228 200.062H139.224Z" fill="#D29E5C"/>
<path d="M112.912 194.165C117.304 194.184 120.719 197.629 120.719 202.042C120.719 206.584 117.276 210.01 112.735 209.991C108.357 209.972 104.88 206.484 104.895 202.128C104.909 197.648 108.438 194.146 112.916 194.165H112.912Z" fill="#C64733"/>
<path d="M111.614 224.051C111.657 228.45 108.39 231.857 104.093 231.9C99.8388 231.943 96.3763 228.522 96.3286 224.233C96.2809 220.067 99.629 216.618 103.788 216.546C108.19 216.47 111.571 219.71 111.614 224.051Z" fill="#60A0B8"/>
<path d="M292.962 173.591C292.947 169.34 296.186 166.005 300.378 165.952C304.742 165.895 308.128 169.173 308.157 173.472C308.185 177.78 304.833 181.263 300.612 181.306C296.405 181.354 292.976 177.895 292.957 173.591H292.962Z" fill="#D29E5C"/>
<path d="M11.2266 291.054C12.9101 292.041 14.8035 292.7 15.8432 294.594C16.8734 296.474 17.4314 298.349 16.8019 300.491C16.406 301.841 16.0912 303.149 16.4489 304.661C16.8639 306.412 14.5078 307.958 12.934 306.956C11.57 306.088 10.2012 305.921 8.68456 305.806C4.33497 305.487 1.23017 300.429 2.77542 296.345C3.37635 294.751 4.3922 293.458 5.58452 292.285C7.34439 291.311 9.01363 289.928 11.2313 291.058L11.2266 291.054Z" fill="#60A0B8"/>
<path d="M11.2255 291.053C9.40842 291.75 7.69148 292.938 5.57869 292.28C4.82991 291.836 4.06206 291.426 3.33713 290.948C0.861874 289.321 -0.463985 286.234 0.141713 283.563C0.857105 280.39 3.19882 278.214 6.33224 277.808C9.36073 277.417 12.1508 278.901 13.5863 281.687C13.8772 282.25 14.1014 282.842 14.3542 283.424C16.1808 286.048 15.1077 289.193 11.9504 290.481C11.7072 290.672 11.4688 290.863 11.2255 291.053Z" fill="#C64733"/>
<path d="M250.312 114.567C250.245 118.46 246.94 121.7 243.105 121.633C239.242 121.566 236.028 118.24 236.071 114.357C236.114 110.42 239.366 107.276 243.306 107.376C247.336 107.477 250.379 110.597 250.312 114.567Z" fill="#C64733"/>
<path d="M97.2409 131.309C97.2027 135.383 94.1408 138.422 90.1585 138.327C85.952 138.227 82.9998 135.226 82.9903 131.046C82.9807 127.463 86.4718 124.018 90.0488 124.075C94.2696 124.142 97.2838 127.167 97.2456 131.309H97.2409Z" fill="#60A0B8"/>
<path d="M223.635 55.8758C223.597 59.5973 220.092 63.023 216.391 62.9562C212.556 62.8894 209.452 59.7691 209.418 55.9569C209.385 51.7248 212.561 48.6092 216.82 48.6951C220.454 48.7667 223.669 52.159 223.635 55.8758Z" fill="#60A0B8"/>
<path d="M287.568 104.952C291.079 104.938 294.479 108.321 294.489 111.832C294.498 115.854 291.422 119.166 287.592 119.252C283.696 119.337 280.581 116.184 280.534 112.099C280.486 108.087 283.553 104.971 287.564 104.952H287.568Z" fill="#60A0B8"/>
<path d="M116.304 55.3463C115.846 55.79 115.799 56.248 116.104 56.8349C116.915 58.3903 116.485 59.9362 115.903 61.4296C114.668 64.5977 112.05 66.6016 109.584 66.3392C106.575 66.0147 103.398 62.5938 103.041 59.2968C102.74 56.5057 104.657 53.5475 107.538 52.4168C110.624 51.2049 113.061 52.5885 115.369 54.4398C115.965 54.4445 116.481 54.54 116.304 55.3463Z" fill="#C64733"/>
<path d="M13.7936 247.073C16.4119 247.03 18.0669 248.223 18.7298 250.618C19.3784 252.951 18.5438 255.05 16.3404 256.219C15.1004 256.877 14.2085 257.779 13.4216 258.915C11.8477 261.186 9.82078 261.548 7.45522 260.141C6.1389 259.358 5.10396 258.266 4.09288 257.149C3.33933 256.319 3.14379 255.36 3.55395 254.282C5.19935 249.974 9.21508 247.139 13.7936 247.068V247.073Z" fill="#60A0B8"/>
<path d="M46.634 163.605C45.1269 162.908 44.4878 164.197 43.5912 165.075C41.631 166.997 38.5691 167.04 36.7044 165.241C34.83 163.438 34.7633 160.251 36.5422 158.342C37.8204 156.973 39.4085 156.773 41.1398 157.092C42.1699 157.288 43.0856 157.407 43.9537 156.458C46.014 154.196 48.0075 153.757 49.9773 154.936C51.9947 156.143 52.9008 158.357 52.2236 160.442C51.4987 162.679 49.5289 163.815 46.634 163.605Z" fill="#C64733"/>
<path d="M311.448 107.3C315.521 107.347 318.229 110.062 318.158 114.018C318.091 117.773 314.972 120.774 311.233 120.678C307.36 120.583 304.79 117.763 304.809 113.622C304.823 110.067 307.78 107.252 311.448 107.295V107.3Z" fill="#60A0B8"/>
<path d="M79.1131 87.8907C76.9764 85.2952 77.0623 78.7968 79.2991 76.4637C81.2402 74.4359 83.5819 73.8109 86.2527 74.746C89.0046 75.7098 90.9647 78.3578 90.9266 81.3112C90.8884 84.3457 88.8472 85.9393 86.3147 87.0558C85.9522 87.1846 85.5754 87.4613 85.213 87.3229C83.4913 86.6788 81.9174 86.7647 80.4437 87.9766C80.0717 88.2819 79.5518 88.1006 79.1178 87.8859L79.1131 87.8907Z" fill="#C64733"/>
<path d="M165.117 79.1639C169.033 79.1258 171.689 81.7452 171.713 85.6671C171.732 89.1453 168.904 92.0415 165.442 92.0892C161.621 92.1464 158.85 89.4316 158.779 85.5669C158.707 81.6784 161.159 79.2021 165.117 79.1592V79.1639Z" fill="#60A0B8"/>
<path d="M147.829 177.804C147.839 181.368 144.915 184.531 141.539 184.608C138.105 184.684 134.9 181.406 134.914 177.842C134.928 174.392 138.09 171.282 141.515 171.344C144.934 171.401 147.82 174.354 147.829 177.809V177.804Z" fill="#60A0B8"/>
<path d="M256.086 292.423C256.124 295.792 253.3 298.626 249.895 298.649C246.294 298.673 243.628 296.149 243.542 292.633C243.466 289.494 246.604 286.263 249.719 286.273C252.995 286.287 256.052 289.236 256.086 292.423Z" fill="#D29E5C"/>
<path d="M281.906 131.91C281.887 135.288 279.031 137.96 275.53 137.879C272.144 137.798 269.544 135.164 269.506 131.772C269.463 128.265 272.349 125.426 275.883 125.497C279.193 125.564 281.93 128.475 281.906 131.905V131.91Z" fill="#D29E5C"/>
<path d="M269.412 152.851C269.397 155.399 267.241 157.412 264.604 157.35C262.053 157.293 260.092 155.303 260.059 152.746C260.026 150.103 262.2 147.965 264.866 148.018C267.361 148.07 269.426 150.265 269.412 152.851Z" fill="#C64733"/>
<path d="M30.4648 181.311C30.5363 183.873 29.5205 185.581 26.8163 185.958C24.6034 186.268 24.3077 188.091 23.8307 189.756C23.2298 191.855 21.8753 193.225 19.753 193.602C17.8644 193.936 16.3764 192.991 15.2508 191.526C13.1809 188.835 14.607 184.951 17.9264 184.255C20.6401 183.682 23.0867 182.895 24.9849 180.528C26.9642 178.057 28.7574 180.314 30.4934 181.363L30.4648 181.316V181.311Z" fill="#5FA0B8"/>
<path d="M50.4405 121.933C50.4787 121.384 50.5645 121.127 50.5025 120.912C49.5916 117.753 50.3213 115.406 53.5978 114.099C54.1224 113.889 54.4419 112.982 54.7042 112.333C55.3147 110.821 56.3592 109.986 57.995 110.229C59.6214 110.477 60.7422 111.446 61.0188 113.125C61.2811 114.724 60.6134 116.127 59.1301 116.57C56.8361 117.262 56.9792 118.493 57.8949 120.13C58.9203 121.962 59.1206 123.765 57.5277 125.354C56.1875 126.695 54.4896 127.143 52.7298 126.342C50.7457 125.435 50.078 123.741 50.4405 121.928V121.933Z" fill="#D29E5C"/>
<path d="M226.021 114.538C225.983 118.021 223.436 120.459 219.916 120.373C216.635 120.292 214.122 117.687 214.141 114.38C214.16 111.222 216.94 108.436 220.074 108.436C223.393 108.436 226.059 111.169 226.021 114.543V114.538Z" fill="#C64733"/>
<path d="M195.221 148.284C198.455 148.323 201.249 151.109 201.149 154.191C201.039 157.55 198.292 160.198 194.959 160.155C191.725 160.112 189.278 157.488 189.283 154.072C189.283 150.828 191.94 148.242 195.221 148.28V148.284Z" fill="#5FA0B8"/>
<path d="M104.676 120.144C108.311 120.258 110.409 122.692 110.29 126.637C110.199 129.715 107.452 132.143 104.219 132.015C100.871 131.876 98.443 129.276 98.567 125.955C98.7006 122.353 101.142 120.034 104.676 120.144Z" fill="#D29E5C"/>
<path d="M89.2146 189.904C85.7568 189.827 83.2959 187.251 83.3627 183.778C83.4199 180.729 86.1765 178.043 89.2241 178.062C92.3241 178.081 95.3192 180.986 95.2906 183.949C95.262 187.284 92.5101 189.98 89.2146 189.904Z" fill="#60A0B8"/>
<path d="M271.835 196.602C271.835 199.494 269.122 202.29 266.274 202.323C262.993 202.361 260.451 199.79 260.441 196.435C260.432 193.716 263.441 190.834 266.227 190.896C269.098 190.958 271.835 193.744 271.84 196.607L271.835 196.602Z" fill="#5FA0B8"/>
<path d="M123.009 109.299C123.042 112.424 120.61 114.924 117.5 114.957C114.505 114.991 111.978 112.405 111.982 109.308C111.982 106.193 114.4 103.659 117.453 103.569C120.214 103.487 122.98 106.336 123.014 109.299H123.009Z" fill="#5FA0B8"/>
<path d="M153.052 89.527C153.086 92.6998 150.911 94.9041 147.706 94.9328C144.491 94.9662 142.174 92.8048 142.107 89.713C142.04 86.5211 144.41 84.0019 147.51 83.9637C150.687 83.9303 153.019 86.2682 153.057 89.5222L153.052 89.527Z" fill="#5FA0B8"/>
<path d="M221.074 80.8386C221.103 77.7468 223.435 75.428 226.53 75.4185C229.53 75.4089 232.044 77.8709 232.063 80.8338C232.082 83.8922 229.468 86.4591 226.406 86.3875C223.344 86.3159 221.046 83.9208 221.079 80.8386H221.074Z" fill="#C64733"/>
<path d="M117.777 48.547C119.027 48.0508 120.262 47.5165 121.526 47.0632C123.653 46.295 125.613 46.6099 127.235 48.2321C128.932 49.9307 129.233 51.9775 128.322 54.158C127.435 56.2812 125.813 57.3642 123.472 57.264C122.041 57.202 120.62 57.0923 119.346 56.3241C116.041 54.1246 116.218 51.2094 117.777 48.547Z" fill="#60A0B8"/>
<path d="M130.673 88.2147C133.783 88.1766 136.277 90.4667 136.33 93.401C136.382 96.364 133.964 98.7257 130.845 98.74C127.979 98.7543 125.456 96.3401 125.413 93.5442C125.37 90.6862 127.778 88.2481 130.673 88.21V88.2147Z" fill="#D29E5C"/>
<path d="M246.647 2.25223C248.674 2.22838 250.3 3.72177 250.334 5.63503C250.367 7.56737 248.789 9.10847 246.757 9.11801C244.887 9.12755 243.242 7.55305 243.213 5.73045C243.185 3.86491 244.754 2.27609 246.642 2.25223H246.647Z" fill="#D29E5C"/>
<path d="M74.8388 246.82C74.8006 243.971 77.2711 241.457 80.0707 241.49C82.9465 241.523 85.2835 243.952 85.2596 246.872C85.2358 249.868 82.8607 252.149 79.7273 252.187C77.1042 252.221 74.8721 249.768 74.834 246.815L74.8388 246.82Z" fill="#D19E5C"/>
<path d="M7.22597 265.661C7.93659 265.699 8.65199 265.694 9.35784 265.79C11.2226 266.043 12.3768 267.14 12.7106 268.972C13.054 270.847 12.5676 272.455 10.7695 273.4C10.0017 273.801 9.17661 274.101 8.35629 274.392C6.18627 275.16 4.11163 275.122 2.46623 273.285C1.11653 271.773 0.959139 269.984 1.85099 268.199C2.9527 265.995 4.86995 265.322 7.2212 265.661H7.22597Z" fill="#D29E5C"/>
<path d="M158.316 157.975C158.331 160.737 156.018 163.004 153.113 163.061C150.652 163.109 147.905 160.341 147.891 157.798C147.876 155.069 150.309 152.684 153.113 152.679C156.122 152.669 158.302 154.888 158.316 157.975Z" fill="#C64733"/>
<path d="M290.502 201.884C287.536 201.908 285.361 199.766 285.352 196.808C285.342 193.945 287.65 191.583 290.45 191.593C293.297 191.602 295.596 193.897 295.615 196.746C295.634 199.618 293.402 201.86 290.498 201.884H290.502Z" fill="#C64733"/>
<path d="M84.3873 149.005C84.3873 152.12 82.5941 154.058 79.6801 154.105C76.8853 154.148 74.3385 151.748 74.3814 149.105C74.4195 146.767 76.9759 144.167 79.289 144.11C81.8501 144.048 84.3921 146.486 84.3873 149V149.005Z" fill="#5FA0B8"/>
<path d="M216.497 36.5282C216.464 39.0331 214.117 41.4092 211.647 41.4426C209 41.4807 206.487 38.8757 206.572 36.1895C206.654 33.6607 209.005 31.4612 211.609 31.4851C214.356 31.5089 216.535 33.7609 216.497 36.5282Z" fill="#D19E5B"/>
<path d="M115.306 155.532C118.211 155.513 120.114 157.364 120.147 160.241C120.181 163.123 118.321 165.036 115.44 165.084C112.574 165.132 110.632 163.247 110.594 160.375C110.556 157.512 112.464 155.551 115.302 155.532H115.306Z" fill="#5FA0B8"/>
<path d="M24.2938 164.931C24.7469 163.223 25.0665 161.248 25.8009 159.44C26.6737 157.297 29.1537 156.625 30.9613 157.774C33.1838 159.187 33.5844 161.334 32.1489 163.443C30.7228 165.542 29.8978 168.09 27.413 169.378C26.9074 169.64 26.5163 170.251 26.1396 169.459C25.4671 168.052 24.2557 166.859 24.2938 164.936V164.931Z" fill="#D19E5C"/>
<path d="M155.478 33.6514C155.673 34.2239 155.869 34.7965 156.065 35.369C156.022 39.8015 153.656 41.9056 149.388 41.3187C149.311 41.2949 149.187 41.2901 149.173 41.2472C148.362 38.7661 146.884 36.6238 145.648 34.3623C148.61 29.8201 151.949 29.5768 155.483 33.6514H155.478Z" fill="#C64733"/>
<path d="M58.6528 166.014C61.4238 166.038 63.4221 167.98 63.3744 170.595C63.3267 173.066 61.0327 175.485 58.7291 175.49C56.2729 175.495 53.8835 173.052 53.8692 170.523C53.8549 167.918 55.8962 165.99 58.6528 166.009V166.014Z" fill="#D19E5B"/>
<path d="M68.9121 95.4243C70.505 95.5293 71.912 96.4167 72.4986 98.2966C73.09 100.186 72.4843 101.732 70.8103 102.796C69.8707 103.392 68.8787 103.888 68.5115 105.067C68.0488 106.556 66.9662 107.018 65.545 106.622C63.8757 106.16 63.5228 104.776 63.9663 103.411C64.4099 102.037 64.6865 100.782 64.5625 99.2985C64.3956 97.2708 66.5084 95.4339 68.9169 95.4243H68.9121Z" fill="#5FA0B8"/>
<path d="M274.305 243.823C274.319 246.6 272.459 248.566 269.827 248.566C267.189 248.566 265.215 246.557 265.238 243.89C265.262 241.309 267.103 239.544 269.817 239.51C272.645 239.477 274.295 241.061 274.31 243.823H274.305Z" fill="#D29E5C"/>
<path d="M44.6152 284.894C47.2002 284.961 49.1126 286.965 49.0077 289.498C48.9028 292.056 46.8472 293.964 44.3243 293.845C41.8776 293.73 40.0272 291.779 40.051 289.346C40.0749 286.788 42.0827 284.832 44.6104 284.894H44.6152Z" fill="#D09E5D"/>
<path d="M181.676 58.471C181.652 60.9425 179.702 62.9751 177.389 62.9274C174.985 62.8796 172.7 60.642 172.753 58.3852C172.805 56.1475 175.204 53.8859 177.498 53.9193C179.888 53.9527 181.7 55.928 181.671 58.4663L181.676 58.471Z" fill="#C64733"/>
<path d="M53.6115 133.494C53.602 136.042 50.8692 137.583 48.6849 136.08C47.4019 135.197 46.3861 135.016 45.0125 135.679C43.3528 136.485 42.3179 135.383 41.469 134.171C40.6153 132.95 40.8776 131.7 41.8696 130.726C42.9951 129.624 44.4211 129.271 45.7088 130.354C46.8106 131.275 47.7119 131.189 48.9329 130.645C51.2841 129.591 53.6163 131.08 53.6068 133.494H53.6115Z" fill="#5FA0B8"/>
<path d="M126.911 136.452C129.372 136.605 131.213 138.599 131.084 140.975C130.955 143.342 128.661 145.226 126.153 145.031C123.868 144.849 122.008 142.822 122.084 140.589C122.165 138.179 124.364 136.295 126.911 136.452Z" fill="#5FA0B8"/>
<path d="M88.719 109.49C86.4011 109.499 84.4219 107.429 84.4219 104.991C84.4219 102.514 86.115 100.754 88.5425 100.701C91.1561 100.649 93.2832 102.614 93.2307 105.029C93.183 107.123 90.7984 109.475 88.719 109.485V109.49Z" fill="#D19E5C"/>
<path d="M202.207 244.525C202.255 246.872 200.405 248.824 198.115 248.838C196.098 248.848 194.009 246.81 193.933 244.744C193.847 242.478 195.564 240.569 197.772 240.479C200.524 240.364 202.155 241.853 202.207 244.525Z" fill="#D19E5D"/>
<path d="M74.7905 168.968C74.8239 171.062 72.8542 173.105 70.7223 173.186C68.4903 173.267 66.2773 171.229 66.2773 169.092C66.2773 167.069 68.3424 165.122 70.5363 165.084C72.8828 165.046 74.7571 166.759 74.7953 168.968H74.7905Z" fill="#5FA0B7"/>
<path d="M202.209 114.609C202.218 117.109 200.735 118.708 198.35 118.775C195.904 118.841 194.091 117.095 194.106 114.676C194.12 112.314 195.77 110.692 198.174 110.678C200.678 110.664 202.199 112.147 202.209 114.605V114.609Z" fill="#5FA0B8"/>
<path d="M102.31 287.785C103.808 289.245 104.471 290.925 103.412 292.9C102.611 294.393 101.347 295.395 99.5871 295.19C97.6889 294.966 96.4728 293.787 95.9529 291.912C95.6811 290.929 96.0722 290.042 96.2343 289.116C97.894 286.998 99.9734 286.821 102.306 287.785H102.31Z" fill="#D19E5B"/>
<path d="M138.848 126.394C136.726 126.437 134.951 124.648 134.961 122.472C134.971 120.492 136.873 118.46 138.815 118.355C140.87 118.245 142.983 120.249 143.012 122.334C143.035 124.333 140.965 126.351 138.848 126.394Z" fill="#5FA0B7"/>
<path d="M118.655 84.5031C118.607 86.6979 116.699 88.3439 114.305 88.2628C112.006 88.1865 110.504 86.5499 110.604 84.2216C110.7 81.9028 112.283 80.5144 114.706 80.6193C117.033 80.7243 118.707 82.3656 118.66 84.5031H118.655Z" fill="#5FA0B7"/>
<path d="M79.9814 201.355C82.1085 201.307 83.7921 202.886 83.8779 205C83.9638 207.199 82.2469 208.974 80.0482 208.96C77.9259 208.946 76.2996 207.314 76.2853 205.191C76.2709 203.063 77.8734 201.402 79.9814 201.355Z" fill="#5FA0B7"/>
<path d="M189.198 22.3529C186.999 23.2594 184.858 23.3501 182.821 21.9187C182.721 21.141 182.578 20.3633 182.526 19.5856C182.411 17.9252 183.126 16.6847 184.6 15.9308C186.098 15.1627 187.557 15.4203 188.759 16.5034C189.956 17.5817 190.371 18.9844 189.823 20.578C189.617 21.1696 189.408 21.7613 189.198 22.3529Z" fill="#C54733"/>
<path d="M8.37063 233.355C10.2879 233.403 11.8999 235.264 11.8713 237.392C11.8379 239.701 10.3976 241.056 8.10355 240.946C5.92876 240.841 4.24043 239.186 4.30244 237.225C4.36444 235.273 6.42953 233.308 8.37063 233.355Z" fill="#5F9FB7"/>
<path d="M255.895 99.2078C253.663 99.265 251.903 97.5808 251.908 95.3765C251.908 93.2771 253.558 91.6311 255.69 91.6025C257.87 91.5738 259.386 93.072 259.453 95.324C259.52 97.5999 258.103 99.1505 255.895 99.2078Z" fill="#5FA0B8"/>
<path d="M295.958 8.07788C293.726 8.13514 291.966 6.4509 291.971 4.2466C291.971 2.14727 293.621 0.501198 295.753 0.472571C297.932 0.443944 299.449 1.9421 299.516 4.19412C299.582 6.46999 298.166 8.02063 295.958 8.07788Z" fill="#5FA0B8"/>
<path d="M65.8259 202.304C67.9959 202.266 69.5889 203.841 69.5841 206.035C69.5841 208.097 68.0341 209.814 66.1168 209.881C64.171 209.948 62.082 207.987 61.9866 205.993C61.8865 203.979 63.5891 202.347 65.8259 202.304Z" fill="#5FA0B7"/>
<path d="M193.489 34.3672C195.511 34.391 196.999 36.123 196.937 38.3798C196.88 40.4409 195.368 41.9343 193.303 41.963C191.114 41.9916 189.363 40.1928 189.459 38.0124C189.54 36.1564 191.543 34.3481 193.489 34.372V34.3672Z" fill="#5FA0B8"/>
<path d="M125.246 264.845C127.153 264.907 128.856 266.754 128.737 268.638C128.608 270.747 126.996 272.417 125.136 272.364C123.3 272.312 121.578 270.446 121.602 268.533C121.626 266.582 123.4 264.788 125.241 264.845H125.246Z" fill="#5F9FB7"/>
<path d="M43.7349 142.225C43.7015 143.866 41.6173 145.913 39.9767 145.908C38.3503 145.908 36.2614 143.833 36.2423 142.196C36.2232 140.426 38.3599 138.332 40.115 138.403C41.7556 138.47 43.7635 140.588 43.7349 142.22V142.225Z" fill="#5F9FB7"/>
<path d="M142.512 69.7169C138.816 67.589 138.74 65.0936 142.298 63.0134C143.314 62.7128 144.329 62.4647 145.317 63.1183C148.054 65.8284 148.03 66.8208 145.154 69.6835C144.277 70.0223 143.395 70.0366 142.512 69.7169Z" fill="#C64733"/>
<path d="M292.48 84.4316C290.415 84.4554 288.737 82.8523 288.784 80.9104C288.822 79.3121 290.73 77.4084 292.371 77.332C294.178 77.2461 295.8 79.0687 295.776 81.1585C295.752 83.1195 294.455 84.4077 292.48 84.4316Z" fill="#D19D5B"/>
<path d="M310.032 67.4695C310.027 69.3494 308.401 71.0002 306.545 71.0098C304.724 71.0193 303.073 69.3351 303.078 67.4743C303.088 65.5515 304.657 63.9579 306.541 63.9531C308.405 63.9531 310.037 65.5944 310.032 67.4695Z" fill="#5F9FB7"/>
<path d="M79.1115 87.8906C82.6408 84.7559 82.8697 84.7273 86.3084 87.0556C86.3084 87.2894 86.3084 87.528 86.2988 87.7618C86.2034 90.7533 85.116 92.261 83.0032 92.3708C81.2625 92.4614 78.9303 90.51 79.1115 87.8906Z" fill="#5F9FB7"/>
<path d="M145.645 34.3574C148.778 35.66 150.018 37.9835 149.384 41.3138C148.191 41.7528 146.989 42.2204 145.692 41.8244C144.29 41.395 143.331 40.4455 143.069 39.0189C142.659 36.8146 143.942 35.45 145.645 34.3622V34.3574Z" fill="#609FB6"/>
<path d="M138.681 39.1095C140.798 39.1238 142.115 40.3595 142.048 42.2728C141.986 44.0477 140.288 45.7749 138.705 45.6842C137.197 45.5983 135.438 43.8473 135.409 42.4112C135.371 40.4884 136.754 39.0952 138.681 39.1095Z" fill="#D09D5B"/>
<path d="M77.6589 268.953C77.6256 270.752 76.3331 271.959 74.4254 271.964C72.4461 271.969 71.0296 270.623 71.0773 268.786C71.125 266.983 72.6321 265.685 74.5923 265.757C76.4142 265.824 77.6923 267.159 77.6637 268.958L77.6589 268.953Z" fill="#5F9FB6"/>
<path d="M12.7152 222.319C11.2796 222.128 10.0396 221.36 10.0158 219.409C9.99671 217.853 11.6803 216.207 13.2064 216.193C14.828 216.174 16.2158 217.748 16.1395 219.523C16.0632 221.279 14.8423 222.381 12.7152 222.319Z" fill="#CF9C5B"/>
<path d="M11.9531 290.476C13.4507 288.362 14.6096 286.129 14.3568 283.419C16.6032 283.687 18.096 284.937 18.363 287.151C18.5538 288.749 17.6858 290.08 16.131 290.753C14.7145 291.364 13.3219 290.905 11.9531 290.476Z" fill="#5F9EB6"/>
<path d="M176.683 119.309C175.143 119.161 173.974 118.255 173.931 116.341C173.883 114.414 175.033 113.407 176.85 113.245C178.438 113.102 179.902 114.609 179.945 116.241C179.988 117.935 178.681 119.285 176.683 119.314V119.309Z" fill="#C34734"/>
<path d="M283.992 7.18546C282.451 7.03756 281.283 6.13103 281.24 4.21777C281.192 2.2902 282.341 1.28347 284.159 1.12125C285.747 0.978116 287.211 2.48582 287.254 4.11757C287.297 5.81136 285.99 7.16161 283.992 7.19024V7.18546Z" fill="#C34734"/>
<path d="M95.886 249.511C94.3646 249.301 93.0102 248.475 93.0579 246.576C93.1008 244.801 94.2836 243.656 96.0577 243.461C97.5315 243.299 99.215 245.236 99.1244 246.777C99.0338 248.351 97.727 249.544 95.886 249.511Z" fill="#5F9EB6"/>
<path d="M34.8977 285.834C36.3666 285.886 38.1122 287.571 37.9214 288.949C37.6782 290.7 36.6098 291.936 34.7832 291.912C32.9375 291.889 31.9121 290.734 31.9121 288.835C31.9121 287.074 33.2332 285.777 34.9024 285.834H34.8977Z" fill="#5F9FB6"/>
<path d="M7.60167 315.587C7.58736 313.545 8.97999 312.056 10.5252 312.113C11.9513 312.166 13.6682 313.898 13.63 315.248C13.5871 316.699 11.8845 318.326 10.4012 318.187C8.66999 318.025 7.69229 317.023 7.60644 315.587H7.60167Z" fill="#CF9D5B"/>
<path d="M60.1735 224.304C61.6663 224.557 62.7108 225.516 62.8395 227.238C62.9492 228.689 61.218 230.406 59.8349 230.383C58.4566 230.359 56.7635 228.632 56.7539 227.238C56.7444 225.874 58.509 224.261 60.1735 224.304Z" fill="#5F9EB6"/>
<path d="M132.825 248.609C131.198 248.59 129.796 247.144 129.853 245.541C129.915 243.885 131.365 242.483 132.991 242.654C134.699 242.836 135.734 243.852 135.815 245.603C135.891 247.297 134.513 248.623 132.825 248.604V248.609Z" fill="#C44733"/>
<path d="M15.1859 228.732C14.9952 230.264 14.1462 231.351 12.3148 231.38C10.5693 231.409 9.34833 230.106 9.51525 228.303C9.64879 226.833 9.99695 225.406 11.9667 225.459C13.8505 225.507 15.2432 226.843 15.1907 228.737L15.1859 228.732Z" fill="#5F9FB7"/>
<path d="M43.8339 192.323C43.5763 193.969 42.7941 195.233 40.9246 195.047C39.2553 194.88 38.0439 193.854 38.1966 192.051C38.3444 190.29 39.594 189.427 41.3252 189.451C43.1328 189.475 43.7623 190.653 43.8339 192.328V192.323Z" fill="#5F9FB6"/>
<path d="M278.87 56.7773C277.224 56.5388 275.951 55.8469 275.922 53.9766C275.894 52.1445 277.005 51.2093 278.736 51.0996C280.248 51.0042 281.87 52.6836 281.77 54.1627C281.65 55.9233 280.429 56.534 278.87 56.7773Z" fill="#5F9FB6"/>
<path d="M156.408 244.711C156.317 246.581 155.449 247.564 153.766 247.588C152.006 247.612 150.856 246.591 150.832 244.878C150.809 243.194 151.901 242.001 153.632 241.996C155.378 241.991 156.26 243.17 156.412 244.711H156.408Z" fill="#5F9EB6"/>
<path d="M14.8897 210.721C15.152 211.99 15.6289 213.579 13.3683 213.669C12.2093 213.717 11.4367 212.954 11.513 211.703C11.6084 210.158 9.95345 208.168 12.4049 207.199C13.602 206.727 14.5749 207.4 14.8658 208.693C14.9994 209.289 14.8897 209.938 14.8897 210.716V210.721Z" fill="#C34633"/>
<path d="M267.685 16.6899C269.326 16.8474 270.318 17.6824 270.375 19.3714C270.427 21.0079 269.488 21.9001 267.924 21.8906C266.378 21.881 265.086 21.1797 265.048 19.4382C265.014 17.7826 266.064 16.9046 267.685 16.6947V16.6899Z" fill="#5F9FB7"/>
<path d="M54.3016 140.975C54.4161 139.458 55.141 138.37 56.7674 138.441C58.2649 138.503 59.3666 139.496 59.3666 140.989C59.3666 142.478 58.3269 143.494 56.7817 143.532C55.1792 143.57 54.3684 142.597 54.2969 140.975H54.3016Z" fill="#5E9DB5"/>
<path d="M17.1118 325.363C16.1437 326.905 14.8512 327.983 13.0579 326.905C11.2408 325.812 11.7082 324.152 12.5333 322.582C12.9625 322.391 13.3918 322.2 13.8162 322.009C15.9386 322.119 17.0117 323.264 17.1118 325.363Z" fill="#5F9EB6"/>
<path d="M224.122 244.334C223.998 245.975 223.035 246.7 221.447 246.648C219.797 246.595 218.943 245.608 219.043 244.043C219.143 242.506 220.169 241.476 221.704 241.586C223.178 241.691 224.103 242.697 224.122 244.329V244.334Z" fill="#5E9EB5"/>
<path d="M147.8 48.8812C147.576 50.4652 146.684 51.4386 145.163 51.3956C143.78 51.3574 142.707 50.4366 142.721 49.0148C142.735 47.5596 143.684 46.4288 145.215 46.3906C146.765 46.3524 147.543 47.4498 147.805 48.8812H147.8Z" fill="#5E9DB4"/>
<path d="M159.733 119.376C159.685 120.831 158.869 121.637 157.348 121.623C155.822 121.604 154.987 120.735 155.006 119.223C155.025 117.72 155.86 116.871 157.405 116.895C158.941 116.918 159.718 117.739 159.733 119.376Z" fill="#5E9EB5"/>
<path d="M100.508 77.041C101.366 76.4923 102.23 75.9436 103.088 75.3901C103.555 75.8148 104.023 76.2442 104.49 76.664C105.358 77.4465 105.606 78.3817 105.082 79.4361C104.609 80.3856 103.775 80.7959 102.74 80.6957C101.533 80.586 100.975 79.7367 100.699 78.6823C100.56 78.1527 100.57 77.5849 100.513 77.0362L100.508 77.041Z" fill="#C34733"/>
<path d="M134.349 44.9017C134.359 45.4504 134.459 46.0181 134.354 46.543C134.13 47.6642 133.376 48.3703 132.246 48.461C131.13 48.5516 130.233 48.0173 129.814 46.9581C129.361 45.813 129.671 44.8062 130.648 44.0142C131.316 43.4703 132.093 43.456 132.885 43.4703C133.92 43.3892 134.049 44.2289 134.349 44.9017Z" fill="#C34734"/>
<path d="M175.963 155.642C175.839 157.102 175.057 158.089 173.621 158.104C172.157 158.118 171.275 157.068 171.289 155.661C171.299 154.287 172.076 153.199 173.602 153.218C175.076 153.237 175.825 154.196 175.963 155.642Z" fill="#5E9EB5"/>
<path d="M33.2045 252.311C31.9311 251.997 31.0488 251.238 30.9963 249.888C30.9439 248.418 31.8405 247.349 33.2283 247.283C34.6734 247.216 35.5748 248.356 35.6178 249.754C35.6607 251.233 34.5685 251.954 33.2045 252.311Z" fill="#CD9B5A"/>
<path d="M30.4895 181.358C30.48 180.886 30.4514 180.409 30.4609 179.937C30.5038 178.219 31.534 177.389 33.0792 177.708C34.3479 177.971 35.4162 178.925 35.0346 180.476C34.6388 182.079 33.4322 182.556 31.906 182.117C31.3909 181.969 30.9426 181.587 30.4609 181.316L30.4895 181.363V181.358Z" fill="#C14633"/>
<path d="M117.778 48.5469C117.449 51.3142 118.159 53.8668 119.347 56.324C118.197 56.4146 117.277 55.8039 116.304 55.3459C115.994 55.0453 115.684 54.7399 115.369 54.4393C115.469 52.1873 115.107 49.7492 117.773 48.5469H117.778Z" fill="#C14835"/>
<path d="M244.187 196.579C244.149 197.901 243.625 198.931 242.118 198.898C240.792 198.869 239.762 198.13 239.742 196.732C239.723 195.233 240.792 194.375 242.184 194.332C243.496 194.293 244.111 195.257 244.187 196.584V196.579Z" fill="#5E9EB5"/>
<path d="M256.95 50.0975C258.252 50.2168 258.963 50.923 258.91 52.2446C258.863 53.4565 258.104 54.1722 256.955 54.1865C255.701 54.2008 254.842 53.466 254.852 52.1444C254.861 50.8562 255.61 50.1405 256.95 50.0928V50.0975Z" fill="#5E9DB4"/>
<path d="M269.349 -0.000111599C270.651 0.119169 271.361 0.825308 271.309 2.14693C271.261 3.35882 270.503 4.0745 269.353 4.08882C268.099 4.10313 267.241 3.36836 267.25 2.04674C267.26 0.758511 268.008 0.0428293 269.349 -0.00488281V-0.000111599Z" fill="#5E9DB4"/>
<path d="M173.325 197.046C174.456 197.175 175.362 197.676 175.386 198.917C175.41 200.133 174.627 200.811 173.416 200.84C172.209 200.868 171.384 200.214 171.341 199.012C171.299 197.795 172.133 197.19 173.325 197.046Z" fill="#5D9BB2"/>
<path d="M190.257 268.357C190.272 269.407 189.776 270.027 188.707 270.032C187.658 270.032 186.761 269.602 186.742 268.438C186.728 267.364 187.467 266.63 188.517 266.563C189.661 266.487 190.2 267.25 190.253 268.362L190.257 268.357Z" fill="#5E9DB4"/>
<path d="M162.989 219.915C164.105 219.991 164.744 220.602 164.754 221.565C164.768 222.658 164.048 223.297 162.932 223.307C161.873 223.316 161.291 222.653 161.281 221.675C161.267 220.568 161.935 219.948 162.994 219.915H162.989Z" fill="#C04634"/>
<path d="M128.871 72.4746C127.869 72.298 127.054 71.9164 126.992 70.9049C126.934 69.9077 127.616 69.2922 128.58 69.2254C129.658 69.1538 130.464 69.7645 130.497 70.8381C130.526 71.8257 129.677 72.2503 128.871 72.4746Z" fill="#5C99AF"/>
<path d="M250.125 30.7172C251.098 30.8603 251.332 31.5712 251.312 32.43C251.293 33.3079 250.759 33.7421 249.939 33.7087C249.099 33.6753 248.642 33.1266 248.661 32.2964C248.685 31.4042 249.128 30.8031 250.12 30.7124L250.125 30.7172Z" fill="#5C98AE"/>
<path d="M242.704 65.7092C242.742 66.5442 242.327 67.1024 241.53 67.174C240.562 67.2598 239.842 66.7684 239.79 65.7378C239.747 64.9219 240.276 64.4496 241.096 64.4162C241.988 64.378 242.589 64.755 242.704 65.7092Z" fill="#5D9BB1"/>
<path d="M50.4686 191.741C49.6674 191.65 49.138 191.288 49.1141 190.429C49.0903 189.584 49.572 189.074 50.3589 189.021C51.2651 188.959 51.8803 189.46 51.8278 190.414C51.7849 191.192 51.2746 191.664 50.4686 191.741Z" fill="#5994A9"/>
<path d="M26.7222 289.589C25.9687 289.574 25.425 289.283 25.3582 288.558C25.2819 287.685 25.8733 287.308 26.6554 287.284C27.3851 287.26 27.8668 287.723 27.8668 288.415C27.8668 289.102 27.3804 289.512 26.7222 289.593V289.589Z" fill="#5892A6"/>
<path d="M298.615 293.821C297.761 293.721 297.365 293.305 297.356 292.58C297.342 291.769 297.714 291.168 298.582 291.249C299.216 291.306 299.76 291.712 299.798 292.451C299.845 293.339 299.202 293.611 298.62 293.821H298.615Z" fill="#5C99B0"/>
<path d="M118.13 65.5898C117.968 66.2721 117.572 66.7206 116.852 66.711C116.141 66.7015 115.631 66.3293 115.693 65.5707C115.75 64.8884 116.15 64.4209 116.918 64.4447C117.653 64.4686 118.044 64.8741 118.13 65.5898Z" fill="#5790A4"/>
<path d="M289.881 26.2705C289.809 27.1293 289.385 27.5635 288.679 27.5492C287.959 27.5396 287.539 27.0482 287.568 26.3325C287.596 25.6216 288.049 25.1779 288.765 25.1827C289.514 25.1827 289.843 25.6741 289.881 26.2705Z" fill="#B94634"/>
<path d="M22.2627 215.463C22.2341 216.112 21.9146 216.532 21.2612 216.532C20.6555 216.532 20.1976 216.217 20.0975 215.578C19.9973 214.924 20.3359 214.485 20.9559 214.385C21.7381 214.261 22.0624 214.814 22.2627 215.458V215.463Z" fill="#578FA3"/>
<path d="M240.733 151.758C241.468 151.777 241.973 152.02 242.012 152.683C242.059 153.466 241.468 153.814 240.824 153.929C240.18 154.043 239.77 153.662 239.718 152.998C239.66 152.211 240.142 151.872 240.729 151.758H240.733Z" fill="#5B97AD"/>
<path d="M35.8744 152.698C36.6232 152.722 37.0524 153.013 37.0667 153.662C37.081 154.277 36.7519 154.716 36.0986 154.726C35.4595 154.735 35.0875 154.301 35.0064 153.724C34.9062 153.032 35.4404 152.827 35.8744 152.698Z" fill="#5890A4"/>
<path d="M275.04 292.604C274.978 293.224 274.72 293.702 274.091 293.807C273.328 293.931 273.137 293.396 273.151 292.79C273.161 292.242 273.175 291.617 273.962 291.602C274.62 291.593 274.935 292.008 275.04 292.604Z" fill="#AE4F42"/>
<path d="M67.5612 138.542C67.4944 139.062 67.2321 139.415 66.6884 139.458C66.0255 139.51 65.6678 139.109 65.5724 138.523C65.4627 137.855 65.8729 137.487 66.5024 137.497C67.1272 137.506 67.4277 137.964 67.5612 138.542Z" fill="#578EA2"/>
<path d="M246.452 243.871C246.481 244.577 246.147 244.983 245.518 245.059C244.979 245.126 244.616 244.811 244.511 244.277C244.382 243.633 244.692 243.141 245.298 243.022C245.923 242.898 246.338 243.27 246.452 243.871Z" fill="#5A96AC"/>
<path d="M271.74 33.5845C271.687 34.2382 271.344 34.6103 270.686 34.5722C270.17 34.5435 269.803 34.2382 269.779 33.6895C269.751 33.0692 270.023 32.5969 270.69 32.5683C271.344 32.5396 271.663 32.9643 271.74 33.5845Z" fill="#5C99AF"/>
<path d="M26.27 250.36C26.2366 250.961 25.9219 251.343 25.2637 251.333C24.7296 251.324 24.3862 251.028 24.3719 250.479C24.3528 249.83 24.6914 249.448 25.3543 249.463C25.8837 249.472 26.2128 249.768 26.2748 250.36H26.27Z" fill="#5A96AB"/>
<path d="M48.9658 228.264C48.9277 228.899 48.57 229.304 47.9691 229.314C47.4444 229.319 47.1821 228.884 47.1917 228.369C47.2012 227.849 47.4635 227.482 48.0167 227.458C48.5509 227.439 48.8657 227.744 48.9658 228.269V228.264Z" fill="#5891A5"/>
<path d="M134.351 44.902C133.864 44.4249 133.373 43.9478 132.887 43.4707C133.345 43.0126 133.731 42.1013 134.523 42.7788C135.295 43.4373 134.484 44.1911 134.346 44.902H134.351Z" fill="#5D91A4"/>
<path d="M295.098 44.6252C294.602 44.5775 294.211 44.3723 294.149 43.8189C294.082 43.232 294.411 42.9648 294.965 42.9744C295.465 42.9839 295.895 43.1652 295.957 43.7282C296.019 44.3151 295.618 44.5298 295.098 44.6204V44.6252Z" fill="#5994A9"/>
<path d="M218.333 153.06C218.333 153.509 218.142 153.852 217.684 153.886C217.25 153.914 216.94 153.652 216.897 153.194C216.854 152.726 217.131 152.426 217.56 152.369C218.018 152.311 218.275 152.598 218.333 153.056V153.06Z" fill="#54889B"/>
<path d="M21.9241 316.308C21.8954 316.818 22.0671 317.558 21.8001 317.787C21.3327 318.192 20.8891 317.586 20.498 317.267C20.975 316.947 21.4519 316.627 21.9288 316.312L21.9241 316.308Z" fill="#2D3535"/>
<path d="M145.316 63.1182C144.31 63.0848 143.303 63.0466 142.297 63.0132C143.327 62.3214 144.338 62.1639 145.316 63.1182Z" fill="#826869"/>
<path d="M142.512 69.717C143.394 69.7074 144.272 69.6931 145.154 69.6836C144.281 70.2943 143.404 70.3563 142.512 69.717Z" fill="#626970"/>
<path d="M161.031 501.23C160.582 502.476 161.236 503.406 162.113 504.313C163.668 505.916 164.088 507.714 162.805 509.694C161.241 512.113 157.959 513.76 155.994 513.139C153.009 512.195 151.936 507.629 154.244 505.515C155.665 504.212 154.382 503.187 153.934 502.142C153.18 500.367 153.481 498.902 154.859 497.619C156.242 496.33 157.788 496.555 159.276 497.323C160.792 498.11 161.279 499.484 161.031 501.23Z" fill="#60A0B8"/>
<path d="M198.55 519.542C199.208 523.445 198.054 525.072 194.281 525.582C193.585 525.678 192.889 525.831 192.212 526.007C189.426 526.747 187.271 525.659 186.617 523.168C186.045 520.993 187.657 518.822 190.294 518.259C190.91 518.13 191.549 518.116 192.178 518.044C194.782 516.159 197.448 516.784 198.555 519.537L198.55 519.542Z" fill="#D29E5C"/>
<path d="M92.9727 465.981C92.9917 464.153 94.0553 463.046 95.591 462.345C97.1362 461.639 98.5623 462.273 99.4112 463.442C100.389 464.788 101.295 464.998 102.812 464.54C104.538 464.02 105.664 465.084 106.365 466.587C107.142 468.247 106.498 469.521 105.158 470.523C103.766 471.563 102.306 471.678 101.138 470.256C100.117 469.01 99.0964 468.948 97.6084 469.359C95.1236 470.046 93.0299 468.385 92.9727 465.985V465.981Z" fill="#C54733"/>
<path d="M197.21 483.758C195.994 480.318 196.738 477.484 199.084 476.635C201.431 475.78 203.782 476.487 204.903 478.381C206.143 480.48 205.661 483.209 203.753 484.817C203.391 485.123 202.981 485.366 202.594 485.638C200.477 485.938 198.617 485.509 197.21 483.758Z" fill="#D29E5B"/>
<path d="M107.728 454.157C108.682 454.124 109.641 454.095 110.595 454.062C112.188 454.907 113.547 455.889 113.509 457.984C113.475 459.892 112.874 461.51 110.971 462.116C109.25 462.665 107.433 462.564 106.235 460.937C104.981 459.239 104.976 457.392 106.235 455.651C106.641 455.088 107.228 454.649 107.733 454.153L107.728 454.157Z" fill="#5FA0B8"/>
<path d="M122.575 482.894C124.778 482.961 126.276 484.378 126.314 486.611C126.333 487.756 126.805 488.763 126.991 489.846C127.234 491.296 126.638 492.408 125.217 492.756C123.7 493.133 122.184 492.785 121.831 491.058C121.492 489.383 120.758 487.942 120.076 486.435C119.16 484.416 120.324 482.818 122.575 482.89V482.894Z" fill="#D19E5B"/>
<path d="M198.551 519.542C196.667 518.011 194.454 517.882 192.174 518.049C191.859 516.661 191.511 515.277 192.284 513.907C193.39 511.947 195.803 511.164 197.802 512.142C199.91 513.173 200.759 515.625 199.7 517.758C199.385 518.388 198.937 518.951 198.551 519.547V519.542Z" fill="#C54733"/>
<path d="M128.747 463.914C128.78 465.956 127.192 467.545 125.165 467.512C123.534 467.483 121.645 465.403 121.621 463.604C121.597 461.858 123.348 460.059 125.117 460.007C127.111 459.949 128.713 461.677 128.751 463.914H128.747Z" fill="#D09D5B"/>
<path d="M71.9778 440.326C73.6423 439.706 74.9824 440.383 76.232 441.404C77.6723 444.362 76.852 446.619 74.143 447.029C72.655 447.258 71.2099 447.077 70.4659 445.531C69.4358 443.389 70.2608 441.709 71.9778 440.326Z" fill="#D19D5B"/>
<path d="M155.055 487.699C155.022 489.784 153.796 491.053 151.845 491.03C149.938 491.006 148.702 489.655 148.707 487.599C148.707 485.6 150.023 484.25 151.95 484.269C153.877 484.288 155.093 485.633 155.06 487.699H155.055Z" fill="#D19D5B"/>
<path d="M121.544 475.399C121.596 477.212 120.328 478.5 118.415 478.567C116.379 478.643 114.938 477.369 114.934 475.499C114.934 473.786 116.369 472.422 118.196 472.398C120.056 472.374 121.491 473.662 121.544 475.399Z" fill="#5F9FB7"/>
<path d="M169.677 486.001C169.615 487.756 168.194 489.087 166.424 489.045C164.641 489.006 163.353 487.623 163.41 485.81C163.467 484.001 164.841 482.694 166.615 482.751C168.356 482.809 169.734 484.273 169.677 486.001Z" fill="#C44733"/>
<path d="M138.801 497.561C139.321 497.384 139.85 497.241 140.351 497.031C141.791 496.425 143.007 496.783 143.923 497.967C144.781 499.083 144.753 500.328 143.947 501.478C143.169 502.59 142.139 503.272 140.713 502.781C139.211 502.265 138.4 501.201 138.443 499.574C138.457 499.026 138.534 498.482 138.577 497.933C138.553 497.747 138.624 497.623 138.801 497.556V497.561Z" fill="#CF9D5B"/>
<path d="M174.145 512.972C175.881 513.067 178.171 512.376 178.59 514.914C179.029 517.562 176.563 517.419 174.951 517.991C174.727 518.072 174.498 518.125 174.269 518.192C171.718 518.349 170.626 517.533 170.659 515.482C170.692 513.473 171.742 512.719 174.145 512.972Z" fill="#C44834"/>
<path d="M174.146 512.972C172.902 513.697 171.189 514.127 171.619 516.097C171.905 517.404 173.307 517.586 174.27 518.192C172.72 519.752 171.146 519.456 169.72 518.091C168.399 516.827 168.361 514.379 169.687 513.158C171.037 511.913 172.582 511.13 174.146 512.972Z" fill="#5F9EB5"/>
<path d="M237.023 516.951C237.037 518.707 236.155 519.633 234.414 519.604C232.802 519.58 231.576 518.874 231.529 517.118C231.481 515.377 232.678 514.528 234.252 514.423C235.926 514.313 236.932 515.196 237.023 516.951Z" fill="#5F9FB6"/>
<path d="M92.0038 459.225C91.7845 460.675 90.9546 461.772 89.4189 461.734C87.8975 461.696 86.9102 460.594 86.9866 459.058C87.0676 457.488 88.217 456.677 89.7337 456.677C91.2741 456.677 91.9561 457.674 92.0038 459.22V459.225Z" fill="#5E9DB4"/>
<path d="M148.054 497.485C149.547 497.547 150.505 498.301 150.601 499.761C150.706 501.321 149.89 502.342 148.254 502.385C146.638 502.428 145.693 501.421 145.665 499.923C145.636 498.492 146.657 497.7 148.054 497.485Z" fill="#5F9FB6"/>
<path d="M72.4488 436.991C72.1149 437.468 71.7858 437.94 71.452 438.417C69.6874 439.262 68.309 439.047 67.6032 437C67.608 436.523 67.6175 436.046 67.6223 435.569C67.4792 435.354 67.4315 435.12 67.4696 434.867C67.7797 434.09 68.309 433.67 69.1866 433.823C70.1977 433.713 71.018 434.214 71.8621 434.653C72.0768 435.278 72.2914 435.898 72.506 436.523C72.444 436.671 72.4249 436.828 72.444 436.986L72.4488 436.991Z" fill="#5E9DB5"/>
<path d="M93.9067 449.348C94.6984 449.262 95.4758 449.291 96.2245 449.606C97.8413 452.125 97.3835 454.038 95.1181 454.215C94.1118 454.296 93.239 454.062 92.7668 453.06C92.0228 451.481 92.8193 450.364 93.9114 449.348H93.9067Z" fill="#5F9EB6"/>
<path d="M108.115 479.626C109.259 479.044 106.193 477.222 108.778 476.969C110.518 476.797 112.073 478.71 112.007 480.6C111.964 481.893 111.277 482.842 110.008 482.704C108.415 482.537 107.862 481.334 108.11 479.622L108.115 479.626Z" fill="#5E9EB5"/>
<path d="M134.541 484.297C133.01 484.235 132.156 483.405 132.218 482.069C132.28 480.652 133.262 479.722 134.731 479.803C136.129 479.879 136.792 480.919 136.792 482.236C136.792 483.72 135.809 484.264 134.545 484.297H134.541Z" fill="#5E9EB5"/>
<path d="M195.006 505.291C194.935 506.383 194.315 507.185 192.951 507.151C191.744 507.123 190.991 506.393 190.948 505.228C190.895 503.955 191.668 503.058 192.941 503.019C194.196 502.976 195.016 503.692 195.006 505.291Z" fill="#5E9DB4"/>
<path d="M210.287 499.403C211.494 499.503 212.166 500.138 212.176 501.359C212.19 502.585 211.518 503.234 210.321 503.349C209.138 503.463 208.508 502.79 208.461 501.717C208.408 500.51 208.923 499.584 210.287 499.403Z" fill="#5D9CB3"/>
<path d="M138.801 497.561C138.729 497.69 138.653 497.814 138.577 497.938C138.128 498.076 137.689 498.272 137.232 498.343C136.063 498.52 135.472 497.733 135.209 496.807C134.909 495.757 135.701 495.214 136.564 494.946C137.637 494.617 138.414 495.042 138.686 496.158C138.796 496.607 138.767 497.093 138.806 497.561H138.801Z" fill="#5C99B0"/>
<path d="M187.441 488.238C187.379 489.474 186.831 490.147 185.829 490.166C184.752 490.189 183.979 489.598 184.036 488.415C184.089 487.312 184.737 486.63 185.877 486.687C186.922 486.74 187.351 487.47 187.441 488.238Z" fill="#BF4735"/>
<path d="M143.975 468.481C143.894 469.478 143.336 470.007 142.301 469.964C141.209 469.917 140.465 469.335 140.508 468.237C140.555 467.092 141.485 466.672 142.492 466.71C143.498 466.753 143.984 467.431 143.975 468.481Z" fill="#5D9BB1"/>
<path d="M166.71 512.848C165.799 512.724 165.231 512.237 165.25 511.293C165.265 510.539 165.794 510.138 166.5 510.124C167.397 510.11 168.083 510.577 168.103 511.507C168.117 512.309 167.521 512.758 166.71 512.848Z" fill="#5B97AC"/>
<path d="M206.515 348.895C201.427 348.871 197.807 345.264 197.807 340.221C197.807 335.378 201.77 331.418 206.558 331.47C211.418 331.523 215.458 335.674 215.362 340.512C215.272 345.197 211.342 348.919 206.515 348.895Z" fill="#C64733"/>
<path d="M208.89 392.938C203.162 392.909 199.084 388.849 199.084 383.171C199.084 377.718 203.548 373.257 208.937 373.314C214.412 373.376 218.958 378.047 218.853 383.496C218.748 388.773 214.322 392.967 208.885 392.938H208.89Z" fill="#60A0B8"/>
<path d="M310.466 340.202C310.495 345.121 306.87 348.747 301.881 348.78C297.289 348.814 293.564 345.121 293.516 340.478C293.464 335.693 297.375 331.723 302.077 331.79C306.574 331.857 310.438 335.726 310.466 340.197V340.202Z" fill="#60A0B8"/>
<path d="M241.197 382.642C241.24 382.966 241.283 383.291 241.321 383.615C241.512 384.383 241.512 385.151 241.321 385.919C240.553 389.45 238.674 392.06 235.05 392.952C231.778 393.754 228.95 392.804 226.703 390.233C223.203 386.23 224.385 380.289 229.288 377.322C235.093 375.628 238.431 377.121 241.197 382.642Z" fill="#C64733"/>
<path d="M167.788 357.335C168.489 355.789 169.634 354.682 171.131 353.919C176.707 351.862 179.916 353.69 181.557 359.849C181.357 360.684 181.218 361.543 180.942 362.35C179.864 365.542 176.959 367.312 173.559 366.906C170.621 366.558 168.194 364.029 167.822 360.885C167.721 360.026 167.755 359.153 167.726 358.289C167.507 357.955 167.512 357.636 167.788 357.335Z" fill="#D29E5C"/>
<path d="M222.162 316.67C222.134 320.129 219.139 323.035 215.714 322.925C212.347 322.815 209.648 319.943 209.686 316.513C209.724 312.987 212.581 310.215 216.12 310.272C219.425 310.324 222.191 313.254 222.162 316.675V316.67Z" fill="#C64733"/>
<path d="M185.478 292.251C185.492 295.691 182.94 298.225 179.459 298.225C175.982 298.225 173.65 295.915 173.602 292.428C173.554 289.14 176.335 286.301 179.597 286.306C182.764 286.306 185.468 289.04 185.482 292.251H185.478Z" fill="#5FA0B8"/>
<path d="M277.909 345.908C274.452 345.899 271.981 343.475 272 340.121C272.019 336.771 274.609 334.071 277.78 334.085C281.181 334.104 283.799 336.733 283.814 340.149C283.828 343.546 281.396 345.918 277.909 345.908Z" fill="#D29E5C"/>
<path d="M79.9527 316.727C77.0244 317.123 74.6255 316.474 73.4141 313.449C73.4618 309.108 75.9227 306.555 79.2421 307.457C81.126 307.967 82.5186 309.122 82.862 311.097C83.3056 313.645 82.2134 315.52 79.948 316.727H79.9527Z" fill="#5FA0B8"/>
<path d="M302.629 389.35C299.968 389.188 298.127 387.084 298.294 384.388C298.456 381.745 300.588 379.836 303.23 379.97C305.762 380.094 307.742 382.384 307.575 384.985C307.403 387.642 305.285 389.512 302.629 389.35Z" fill="#C64733"/>
<path d="M183.246 343.064C180.537 343.084 178.405 341.075 178.434 338.537C178.462 336.246 180.704 334.099 183.146 334.018C185.764 333.932 187.877 336.008 187.853 338.637C187.829 341.185 185.893 343.045 183.241 343.064H183.246Z" fill="#5FA0B8"/>
<path d="M157.448 296.292C154.72 296.268 152.65 294.293 152.664 291.716C152.674 289.326 154.81 287.265 157.309 287.227C160.076 287.184 162.088 289.059 162.122 291.707C162.155 294.403 160.204 296.311 157.448 296.287V296.292Z" fill="#D29E5C"/>
<path d="M283.194 383.987C283.175 386.139 281.22 387.938 278.964 387.881C276.77 387.828 274.853 385.901 274.867 383.768C274.882 381.473 276.765 379.77 279.274 379.789C281.458 379.808 283.218 381.683 283.199 383.983L283.194 383.987Z" fill="#5FA0B7"/>
<path d="M271.749 404.981C271.73 407.132 269.775 408.931 267.519 408.874C265.325 408.821 263.408 406.894 263.422 404.761C263.436 402.466 265.32 400.763 267.829 400.782C270.013 400.801 271.773 402.676 271.754 404.976L271.749 404.981Z" fill="#5FA0B7"/>
<path d="M253.125 456.71C253.11 458.485 251.493 459.969 249.633 459.926C247.821 459.883 246.242 458.294 246.252 456.533C246.262 454.639 247.821 453.232 249.886 453.251C251.689 453.265 253.139 454.816 253.125 456.715V456.71Z" fill="#D29E5C"/>
<path d="M250.74 494.403C250.725 496.178 249.109 497.661 247.249 497.618C245.436 497.576 243.858 495.987 243.867 494.226C243.877 492.332 245.436 490.924 247.501 490.944C249.304 490.958 250.754 492.509 250.74 494.407V494.403Z" fill="#5C98AE"/>
<path d="M224.509 481.997C224.495 483.772 222.878 485.256 221.018 485.213C219.206 485.17 217.627 483.581 217.637 481.821C217.646 479.927 219.206 478.519 221.271 478.538C223.074 478.553 224.524 480.103 224.509 482.002V481.997Z" fill="#C64733"/>
<path d="M237.933 470.499C237.924 471.572 236.946 472.474 235.816 472.446C234.719 472.417 233.76 471.458 233.77 470.389C233.774 469.244 234.719 468.39 235.973 468.399C237.065 468.409 237.943 469.349 237.933 470.499Z" fill="#C64733"/>
<path d="M266.535 537C263.621 536.929 261.179 534.476 261.193 531.647C261.208 529.543 262.281 528.297 263.177 527.62C267.026 524.724 269.44 520.306 269.792 515.501C269.998 512.691 272.33 510.725 275.454 510.725H275.535C276.861 510.744 278.205 511.345 279.135 512.342C280.113 513.387 280.623 514.719 280.614 516.188C280.595 518.354 279.169 519.676 278.554 520.139C274.738 523.044 272.354 527.453 272.015 532.238C271.829 534.863 269.425 537 266.654 537H266.53H266.535Z" fill="#5C98AE"/>
<path d="M307.308 27.463C305.396 27.463 303.65 26.6949 302.52 25.3589C301.47 24.1184 300.989 22.6203 301.122 21.0314C301.137 20.8645 301.16 20.6927 301.184 20.5257C301.904 16.1839 300.879 11.7324 298.332 8.13963C297.822 7.41918 297.603 6.60807 297.679 5.71585C297.774 4.58031 298.313 3.59266 299.281 2.77679C299.94 2.22333 300.784 1.91797 301.656 1.91797C302.858 1.91797 303.96 2.43803 304.756 3.3875C305.229 3.94573 305.491 4.56599 305.567 5.28167C306.02 9.64256 308.166 13.6504 311.548 16.4415C311.863 16.6992 312.158 16.995 312.425 17.3099C313.446 18.5218 313.88 19.9818 313.723 21.6517C313.561 23.3503 312.688 25.0011 311.381 26.0651C310.284 26.9573 308.801 27.4678 307.308 27.4678V27.463Z" fill="#C64733"/>
<path d="M211.222 28.0928C208.417 28.0928 205.861 25.7072 205.756 22.9828C205.704 21.5848 206.147 20.3634 207.082 19.3567C207.163 19.266 207.249 19.1801 207.33 19.1038C209.901 16.6657 211.632 13.4738 212.276 9.99079C212.443 9.06994 212.862 8.24452 213.521 7.53838C214.827 6.1261 216.511 5.7778 217.689 5.73486C217.765 5.73486 217.822 5.73486 217.875 5.73486C220.708 5.73486 222.926 7.9821 223.035 10.9641C223.083 12.3048 222.611 13.5119 221.633 14.5473C221.571 14.6141 221.499 14.6857 221.423 14.7572C218.872 17.1905 217.155 20.3682 216.52 23.8416C216.349 24.7672 215.905 25.6165 215.195 26.3704C214.198 27.4248 212.753 28.0689 211.322 28.0975H211.222V28.0928Z" fill="#60A0B8"/>
<path d="M194.544 30.6981C192.374 30.6981 190.552 29.138 190.308 27.0672C190.18 25.989 190.452 25.0156 191.11 24.1759C191.343 23.8801 191.61 23.6224 191.901 23.403C195.908 20.4162 198.364 15.7929 198.597 10.8022C198.636 10.0006 198.912 9.26585 199.427 8.61697C200.171 7.67227 201.221 7.11881 202.546 6.96136C202.694 6.94227 202.847 6.9375 202.995 6.9375C205.036 6.9375 206.762 8.5454 207.01 10.6829C207.13 11.7183 206.839 12.682 206.147 13.5456C205.933 13.8128 205.68 14.0561 205.394 14.2709C201.397 17.2624 198.95 21.8857 198.717 26.8716C198.679 27.6684 198.383 28.4175 197.83 29.1046C197.133 29.9681 196.027 30.5741 194.935 30.6838C194.806 30.6981 194.672 30.7029 194.544 30.7029V30.6981Z" fill="#60A0B8"/>
<path d="M292.424 536.093C291.165 536.093 289.896 535.64 288.938 534.853C286.691 533.002 286.276 529.566 288.032 527.353C289.014 526.112 290.421 525.43 291.99 525.43C291.99 525.43 292.29 525.43 292.372 525.43C297.074 525.43 301.567 523.445 304.729 519.952C305.702 518.879 306.989 518.311 308.449 518.311C309.727 518.311 311.091 518.812 312.197 519.69C313.242 520.52 313.938 521.832 314.062 523.202C314.186 524.628 313.771 525.988 312.856 527.138C311.911 528.326 310.5 528.979 308.883 528.979C308.883 528.979 308.644 528.979 308.592 528.979C303.87 528.979 299.368 530.979 296.201 534.49C295.267 535.526 293.926 536.093 292.429 536.093H292.424Z" fill="#5C98AE"/>
<path d="M232.098 502.461C232.088 503.477 231.168 504.327 230.1 504.298C229.065 504.274 228.159 503.363 228.168 502.356C228.173 501.273 229.065 500.471 230.247 500.481C231.278 500.491 232.107 501.373 232.098 502.461Z" fill="#5C98AE"/>
<path d="M153.047 314.432C153.066 316.618 151.082 318.712 149.05 318.665C147.119 318.617 145.478 316.789 145.44 314.642C145.402 312.486 146.99 310.711 149.017 310.644C151.273 310.568 153.028 312.219 153.047 314.432Z" fill="#5FA0B7"/>
<path d="M246.543 363.122C246.6 365.064 245.265 366.558 243.419 366.62C241.483 366.687 239.838 365.16 239.809 363.27C239.78 361.491 241.254 360.002 243.143 359.902C244.96 359.807 246.486 361.252 246.543 363.122Z" fill="#C54733"/>
<path d="M253.315 336.719C255.037 336.685 256.43 337.974 256.382 339.663C256.334 341.462 255.275 342.425 253.549 342.583C251.908 342.731 250.468 341.294 250.473 339.639C250.477 338.017 251.708 336.752 253.315 336.719Z" fill="#C44733"/>
<path d="M141.375 339.243C139.52 339.114 138.38 338.298 138.375 336.614C138.37 334.896 139.439 333.694 141.16 333.675C142.901 333.655 143.931 334.839 143.922 336.58C143.917 338.293 142.763 339.047 141.37 339.243H141.375Z" fill="#C34633"/>
<path d="M123.448 335.44C124.125 336.623 123.41 337.263 122.513 337.835C121.798 338.25 121.383 337.931 121.102 337.263C120.291 336.027 120.424 335.158 122.032 334.858C122.504 335.054 122.976 335.244 123.448 335.44Z" fill="#5C99B0"/>
<path d="M94.2553 312.777C94.117 312.925 93.9549 313.249 93.7212 313.321C93.2919 313.455 92.9533 313.211 92.8961 312.744C92.8579 312.405 93.0201 312.114 93.373 312.052C93.8166 311.971 94.1266 312.162 94.2553 312.782V312.777Z" fill="#B24838"/>
<path d="M117.466 291.774C117.103 291.655 116.889 291.43 117.051 291.087C117.132 290.91 117.375 290.71 117.552 290.7C117.886 290.686 118.129 290.934 118.095 291.282C118.062 291.645 117.766 291.755 117.466 291.774Z" fill="#578FA3"/>
<path d="M208.385 404.088C206.377 410.115 203.678 412.591 198.884 412.791C191.287 413.106 186.289 405.668 189.446 398.74C189.708 398.163 189.975 397.59 190.238 397.018C193.414 393.172 197.458 392.389 202.085 393.64L202.104 393.663C206.496 395.753 208.537 399.26 208.385 404.093V404.088Z" fill="#C64733"/>
<path d="M241.229 424.166C239.569 429.147 237.337 431.189 233.383 431.351C227.107 431.614 222.982 425.468 225.586 419.743C225.8 419.266 226.02 418.793 226.239 418.316C228.862 415.139 232.205 414.49 236.026 415.525L236.04 415.544C239.669 417.271 241.353 420.167 241.229 424.156V424.166Z" fill="#C64733"/>
<path d="M34.821 324.509C36.8432 323.073 38.8892 323.116 40.6348 324.829C41.8128 325.979 42.5806 325.602 43.6394 324.786C45.385 323.44 47.2927 322.524 49.601 323.34C52.1192 324.237 53.5071 326.112 53.5261 328.708C53.55 331.843 52.0286 334.204 49.4532 335.035C46.9636 335.836 44.6505 335.077 42.9383 332.849C42.552 332.348 42.1896 331.809 41.932 331.237C41.4933 330.259 41.0116 330.297 40.0959 330.755C37.0292 332.291 35.131 331.494 33.7336 328.259C32.4889 326.131 32.651 325.568 34.8163 324.509H34.821Z" fill="#C64733"/>
<path d="M59.6881 334.953C56.9028 334.934 54.8186 333.016 54.8282 330.487C54.8329 328.092 57.3988 325.516 59.7405 325.549C62.149 325.583 64.4192 327.959 64.3572 330.373C64.2856 333.197 62.4781 334.972 59.6881 334.953Z" fill="#5FA0B8"/>
<path d="M72.7596 335.87C70.0173 335.836 68.596 334.324 68.6437 331.499C68.6914 328.799 70.3178 327.224 72.9933 327.291C75.6307 327.358 77.7149 329.343 77.6434 331.714C77.5671 334.1 75.4447 335.903 72.7596 335.87Z" fill="#D19E5B"/>
<path d="M101.037 359.167C96.897 360.341 95.9241 359.959 93.9258 356.381C94.0402 355.198 94.107 354.029 94.8415 352.989C96.3295 350.87 98.5758 350.264 100.636 351.5C102.84 352.822 103.541 355.479 102.224 357.688C101.905 358.228 101.442 358.681 101.042 359.172L101.037 359.167Z" fill="#5FA0B8"/>
<path d="M34.8207 324.509C33.8716 325.587 33.7571 326.909 33.738 328.259C33.0751 328.498 32.4217 328.755 31.7493 328.98C29.7223 329.652 27.7717 328.956 26.8941 327.171C25.9594 325.272 26.422 323.626 28.0483 322.338C29.6269 321.088 31.568 321.308 33.1705 322.853C33.7333 323.393 34.2722 323.96 34.8207 324.514V324.509Z" fill="#60A0B8"/>
<path d="M166.81 377.446C167.34 378.056 167.869 378.662 168.399 379.273C168.866 382.045 167.831 383.901 165.566 384.378C163.682 384.769 161.793 383.491 161.316 381.496C160.591 378.462 163.214 376.53 166.81 377.446Z" fill="#C54733"/>
<path d="M148.841 380.237C148.326 381.998 147.186 382.79 145.331 382.642C143.957 382.532 143.251 381.654 142.713 380.566C141.93 378.982 143.471 378.4 144.119 377.437C147.014 376.602 148.04 377.212 148.841 380.232V380.237Z" fill="#5F9FB7"/>
<path d="M298.29 422.73C298.394 421.642 298.833 420.692 300.302 420.85C301.68 420.998 302.477 421.809 302.401 423.211C302.329 424.552 301.494 425.177 300.164 425.106C298.762 425.029 298.251 424.18 298.285 422.725L298.29 422.73Z" fill="#5F9FB6"/>
<path d="M115.182 354.077C116.504 354.272 117.252 354.988 117.238 356.286C117.224 357.631 116.399 358.309 115.106 358.285C113.776 358.261 113.06 357.412 113.074 356.147C113.089 354.84 113.981 354.225 115.182 354.077Z" fill="#5E9DB4"/>
<path d="M224.995 435.125C225.5 435.907 226.006 436.695 226.511 437.477C226.874 437.887 227.303 438.279 226.955 438.908C227.088 443.164 225.31 446.142 221.194 447.563C217.827 447.998 215.108 446.886 213.067 444.157C211.46 440.655 211.932 437.468 214.512 434.6C214.922 433.698 215.418 432.868 216.334 432.377C217.245 431.852 218.032 432.224 218.809 432.711C221.189 432.706 223.24 433.546 224.995 435.13V435.125Z" fill="#60A0B8"/>
<path d="M141.239 399.322C140.871 399.79 140.504 400.252 140.142 400.72C139.822 401.278 139.503 401.832 138.706 401.669C136.255 402.199 134.352 401.383 132.959 399.317C132.702 399.045 132.487 398.754 132.606 398.344C132.592 397.9 132.573 397.456 132.559 397.013C133.331 395.176 134.113 393.358 136.493 393.148C140.008 392.838 142.107 395.567 141.239 399.322Z" fill="#C64733"/>
<path d="M37.9881 360.618C36.4095 362.183 34.6973 362.803 32.7657 361.243C31.0965 359.892 31.0059 358.122 32.4128 355.861C35.5367 353.885 36.4667 354.105 38.6176 357.335C39.209 357.974 39.5715 358.676 39.209 359.573C38.9706 360.117 38.4459 360.327 37.9929 360.618H37.9881Z" fill="#5F9FB7"/>
<path d="M191.667 420.783C191.5 421.102 191.328 421.422 191.161 421.742C190.961 422.481 190.494 422.958 189.759 423.178C186.883 424.075 185.705 423.474 184.079 420.277C183.726 419.981 183.731 419.671 184.036 419.347C184.189 419.032 184.337 418.717 184.489 418.402C185.71 417.013 187.136 416.112 189.058 416.751C190.966 417.386 191.715 418.841 191.672 420.778L191.667 420.783Z" fill="#5F9FB7"/>
<path d="M51.9761 367.851C51.4992 367.693 51.213 367.345 51.0175 366.901C50.6025 365.794 50.6788 364.678 50.9841 363.561C50.9984 363.404 51.0079 363.247 51.0222 363.094C51.3227 362.908 51.6232 362.727 51.9236 362.54C52.9729 362.245 54.0221 362.192 55.057 362.602C55.7438 363.251 56.1587 364.039 56.3304 364.964C56.65 365.451 56.6691 365.909 56.2064 366.324C55.9012 366.696 55.596 367.064 55.2955 367.436C55.1143 367.512 54.933 367.588 54.7566 367.665C53.8743 368.414 52.9252 368.089 51.9761 367.846V367.851Z" fill="#C64734"/>
<path d="M20.9144 347.302C19.7603 347.106 18.8064 346.481 18.6872 345.264C18.5632 343.971 19.4646 343.174 20.6998 343.132C21.9685 343.089 22.7935 343.885 22.7888 345.188C22.7792 346.314 22.1735 347.111 20.9144 347.302Z" fill="#5D9BB2"/>
<path d="M66.1929 368.762C65.7398 369.12 65.282 369.478 64.8289 369.836C63.5794 369.736 62.6494 369.287 62.8163 367.813C62.9307 366.82 63.5317 366.167 64.538 366.229C66.1166 366.329 66.4171 367.412 66.1882 368.767L66.1929 368.762Z" fill="#D09D5C"/>
<path d="M77.2238 372.613C77.1237 372.536 77.014 372.512 76.89 372.532C76.4989 372.054 75.8837 371.763 75.7835 371.057C75.6548 370.155 76.0125 369.535 76.7946 369.12C77.5529 368.715 78.192 369.001 78.7023 369.55C79.308 370.203 79.3366 370.957 78.8311 371.706C78.4495 372.269 77.8391 372.45 77.2286 372.613H77.2238Z" fill="#5D9CB3"/>
<path d="M45.2665 361.2C45.2141 361.791 45.1568 362.383 45.1044 362.98L45.2093 363.175L45.0758 362.999C43.6974 363.767 42.4384 364.106 41.8422 362.092C41.7039 361.71 41.5036 361.343 41.5608 360.918C41.99 359.692 42.8247 359.64 43.8405 360.141C44.3127 360.494 44.7896 360.852 45.2618 361.205L45.2665 361.2Z" fill="#CB995B"/>
<path d="M93.892 372.417C93.8157 373.505 93.2767 374.058 92.2132 374.044C91.1592 374.03 90.5726 373.51 90.5964 372.436C90.6202 371.401 91.2021 370.79 92.2275 370.78C93.291 370.771 93.7012 371.534 93.8872 372.417H93.892Z" fill="#5D9BB2"/>
<path d="M18.5945 338.246C17.6406 338.112 17.1828 337.64 17.1875 336.81C17.1923 335.937 17.7789 335.517 18.5563 335.493C19.4434 335.469 19.7963 336.17 19.8345 336.905C19.8774 337.764 19.2288 338.098 18.5945 338.241V338.246Z" fill="#5C9AB0"/>
<path d="M288.342 441.747C288.28 442.458 287.913 442.706 287.397 442.721C286.835 442.735 286.243 442.582 286.305 441.895C286.339 441.514 286.506 440.932 287.149 440.989C287.717 441.041 288.18 441.266 288.342 441.747Z" fill="#5B97AD"/>
<path d="M12.2717 330.397C11.7423 330.259 11.4085 329.958 11.4753 329.4C11.542 328.885 11.8616 328.512 12.4053 328.541C12.9633 328.57 13.2161 328.994 13.1731 329.514C13.1302 330.039 12.8011 330.354 12.267 330.397H12.2717Z" fill="#55889B"/>
<path d="M16.9163 339.567C16.9116 340.035 16.6445 340.34 16.22 340.373C15.6668 340.416 15.3234 340.063 15.3282 339.515C15.3329 339.057 15.6668 338.823 16.1199 338.837C16.5825 338.851 16.8067 339.147 16.9163 339.562V339.567Z" fill="#548799"/>
<path d="M55.0553 362.607C54.0108 362.588 52.9663 362.565 51.9219 362.545C52.9807 361.787 54.0251 362.044 55.0553 362.607Z" fill="#6C7179"/>
<path d="M96.2878 428.841C98.1335 428.822 99.6978 429.523 101.062 430.726C101.72 430.859 101.834 431.379 101.911 431.923C101.906 433.011 102.483 433.994 102.173 435.177C101.443 437.969 99.2543 439.901 96.6646 439.767C94.1226 439.638 91.9812 437.592 91.6091 434.929C91.2467 432.358 92.9445 429.853 95.601 429.023C95.8252 428.951 96.0589 428.898 96.2878 428.836V428.841Z" fill="#C64733"/>
<path d="M57.7116 428.565C56.7482 428.717 55.78 428.87 54.8166 429.018C51.8311 427.735 51.3923 427.019 51.5688 423.669C53.7436 420.778 55.8563 420.139 58.1074 421.689C60.101 423.063 60.4062 424.929 59.0565 427.439C59.0232 428.312 58.5319 428.636 57.7116 428.56V428.565Z" fill="#5FA0B7"/>
<path d="M110.114 435.54C111.416 435.378 112.68 435.478 113.877 436.075C116.028 439.076 115.527 442.182 112.751 443.064C110.543 443.766 108.626 442.644 107.648 440.078C106.942 438.231 107.786 436.676 110.114 435.54Z" fill="#C64733"/>
<path d="M175.195 460.866C175.739 461.357 176.283 461.849 176.826 462.34C177.799 465.876 176.054 468.39 172.939 467.985C171.523 467.798 170.764 466.892 170.168 465.742C169.839 464.688 169.772 463.638 170.216 462.598C170.874 462.02 171.537 461.443 172.195 460.866C173.197 460.155 174.194 460.551 175.195 460.866Z" fill="#C54734"/>
<path d="M58.1696 413.206C60.125 413.111 62.0279 413.144 63.1964 415.12C63.4015 417.596 62.4381 419.399 60.6353 419.752C58.5129 420.168 57.3826 418.808 56.7006 417.138C56.0377 415.506 57.0726 414.289 58.1696 413.202V413.206Z" fill="#5F9FB7"/>
<path d="M73.8238 423.068C73.3039 424.576 72.5599 425.878 70.781 425.988C69.3741 426.079 67.5522 424.17 67.8193 422.834C68.1436 421.217 69.231 419.991 70.9002 420.072C72.5409 420.153 73.4947 421.422 73.8238 423.068Z" fill="#5E9EB5"/>
<path d="M50.5448 414.637C51.0742 414.513 51.6036 414.322 52.1425 414.28C53.4206 414.184 54.2457 414.9 54.6464 416.021C55.0708 417.214 54.613 418.23 53.5256 418.812C52.6385 419.285 51.5892 419.723 50.7642 418.702C50.0535 417.829 49.0186 416.97 50.0678 415.644C50.3063 415.344 50.416 414.947 50.5877 414.59L50.5495 414.633L50.5448 414.637Z" fill="#C14734"/>
<path d="M50.583 414.59C50.1967 414.647 49.8008 414.661 49.4288 414.776C47.4782 415.372 46.2382 414.886 46.1094 412.648C45.394 411.398 46.1285 410.835 47.1634 410.415C50.1633 410.53 50.4113 410.84 50.5401 414.633L50.5782 414.59H50.583Z" fill="#5E9DB4"/>
<path d="M62.9172 429.848C62.8695 430.626 62.8218 431.404 62.7741 432.181C62.7455 432.735 62.4689 433.045 61.9013 433.064C58.8728 433.231 58.1431 432.315 58.9539 429.362C58.9873 428.951 59.1924 428.741 59.6216 428.789C60.8998 428.589 62.0587 428.756 62.9219 429.848H62.9172Z" fill="#C44733"/>
<path d="M47.1673 410.415C46.8144 411.159 46.4614 411.903 46.1133 412.648C45.2691 413.411 44.7159 413.006 44.258 412.195C43.9766 411.565 44.0243 410.94 44.258 410.31C45.2596 409.413 46.2134 409.828 47.1625 410.415H47.1673Z" fill="#C04938"/>
<path d="M156.356 461.839C156.285 462.788 155.832 463.251 154.978 463.227C154.134 463.204 153.624 462.712 153.667 461.877C153.709 461.085 154.196 460.517 155.04 460.556C155.851 460.589 156.323 461.09 156.352 461.844L156.356 461.839Z" fill="#5B97AD"/>
<path d="M271.243 505.567C270.838 505.548 270.742 505.21 270.742 504.928C270.742 504.475 271.047 504.279 271.51 504.327C271.868 504.365 272.135 504.58 272.059 504.895C271.973 505.262 271.691 505.558 271.243 505.567Z" fill="#5D9CB3"/>
<path d="M170.216 462.598C170.202 463.643 170.183 464.692 170.169 465.737C169.558 464.683 169.501 463.633 170.216 462.598Z" fill="#4B606A"/>
<path d="M172.567 460.341C173.044 460.317 173.521 460.293 173.998 460.274C174.394 460.47 174.795 460.67 175.195 460.866C174.198 460.866 173.197 460.866 172.195 460.866C172.319 460.689 172.443 460.517 172.567 460.341Z" fill="#576770"/>
<path d="M44.2641 410.31C44.2641 410.94 44.2641 411.565 44.2641 412.195C43.253 411.565 43.9779 410.935 44.2641 410.31Z" fill="#2C3131"/>
<path d="M33.4074 376.902C31.9861 380.8 30.355 381.754 27.5078 380.557C26.1962 380.008 25.9196 378.963 25.6334 377.823C25.4331 377.246 25.4951 376.64 25.4141 376.048C26.3918 374.531 28.3042 374.33 29.5204 373.152C30.3407 373.219 31.3232 374.015 31.5569 372.284C31.7906 370.537 33.0306 369.316 34.8286 369.449C36.8269 369.593 37.881 370.957 37.9 373.014C37.5566 374.431 36.6123 375.218 35.2483 375.576C34.3135 375.576 33.9797 376.411 33.4074 376.912V376.902Z" fill="#5FA0B8"/>
<path d="M123.054 395.977C122.853 396.488 122.715 397.032 122.438 397.499C121.351 399.35 119.224 399.904 117.607 398.802C116.11 397.785 115.866 395.386 117.092 393.735C118.16 392.294 120.23 392.26 121.814 393.668C122.105 393.926 122.343 394.25 122.601 394.541C123.111 394.904 123.502 395.309 123.054 395.977Z" fill="#5F9FB7"/>
<path d="M24.8718 373.681C23.4458 373.634 22.6684 372.622 21.8672 371.649C21.8815 367.784 23.1454 366.544 27.1325 366.491C28.1722 367.14 29.3073 367.717 29.2453 369.22C29.0545 370.175 28.8637 371.124 28.6729 372.078C27.5474 372.937 26.4075 373.772 24.8766 373.681H24.8718Z" fill="#609FB6"/>
<path d="M24.8711 373.681C25.6103 371.892 26.8074 371.205 28.6674 372.078C28.9536 372.436 29.2398 372.794 29.5211 373.147C29.4496 375.695 28.0284 376.344 25.7725 375.819C24.7614 375.776 25.0476 374.932 24.8759 374.369C24.8759 374.14 24.8759 373.906 24.8759 373.677L24.8711 373.681Z" fill="#C24936"/>
<path d="M169.672 419.714C169.428 420.635 168.875 421.27 167.869 421.236C166.891 421.208 166.142 420.645 166.185 419.633C166.224 418.688 166.843 417.978 167.902 418.083C168.823 418.173 169.519 418.66 169.672 419.71V419.714Z" fill="#5D9BB2"/>
<path d="M29.2449 369.22C27.8284 368.863 26.803 368.199 27.1321 366.491C28.1194 365.699 29.1114 365.494 29.9317 366.663C30.6852 367.732 30.1797 368.557 29.2449 369.22Z" fill="#C04734"/>
<path d="M50.9795 363.566C50.9891 364.678 51.0034 365.79 51.0129 366.906C50.3357 365.799 50.1831 364.688 50.9795 363.566Z" fill="#7B6B6F"/>
<path d="M51.9766 367.851C52.9018 367.789 53.827 367.731 54.7523 367.669C53.889 368.667 52.9447 368.476 51.9766 367.851Z" fill="#6E6B71"/>
<path d="M42.8279 402.919C38.4688 403.869 34.7917 400.639 35.2591 396.292C35.4069 394.913 35.5262 393.668 33.6089 393.229C29.2593 392.232 28.1099 390.037 29.4882 385.791C29.5598 385.571 29.5598 385.323 29.5884 385.089C33.1558 382.317 36.4609 383.171 38.2923 387.337C39.022 389.002 40.2668 390.123 41.9265 390.805C42.475 391.841 43.2142 392.824 42.6038 394.117C42.2318 394.904 42.7468 395.462 43.2428 395.987C45.6656 398.554 45.5321 400.806 42.8279 402.924V402.919Z" fill="#D29E5C"/>
<path d="M87.1195 408.335C84.5775 410.964 81.5395 411.379 78.1724 410.358C75.5397 408.468 74.0279 406.011 74.3188 402.657C74.8148 401.021 75.2249 399.336 76.7368 398.258C77.0325 397.948 77.2042 397.461 77.7574 397.499C78.2153 397.294 78.6731 397.084 79.1262 396.879C80.1325 395.748 81.1722 395.042 82.3884 396.626C83.9193 397.208 85.5075 397.666 86.7237 398.859C89.0368 399.479 89.7569 401.197 89.7236 403.354C89.6949 405.429 89.6902 407.571 87.1195 408.335Z" fill="#C64733"/>
<path d="M180.289 454.63C180.265 454.162 180.246 453.694 180.222 453.222C179.254 450.622 180.423 448.585 183.027 448.327C188.588 445.741 192.646 448.079 193.19 454.176C192.308 457.745 190.424 459.63 187.477 459.902C184.205 460.202 181.963 458.561 180.289 454.625V454.63Z" fill="#60A0B8"/>
<path d="M206.829 449.114C212.247 450.636 213.568 454.401 210.282 458.962C205.661 461.281 202.542 460.15 201.049 455.613C201.24 451.385 202.675 449.768 206.829 449.114Z" fill="#C64733"/>
<path d="M63.8359 398.84C65.5576 396.302 67.2269 395.472 69.3969 396.077C71.4095 396.64 72.4445 398.539 72.392 401.564C71.214 403.396 69.6783 404.723 67.3652 404.222C64.537 403.606 63.8741 401.383 63.8359 398.84Z" fill="#C54733"/>
<path d="M60.5183 392.198C61.6295 393.587 62.2543 395.075 61.4626 396.85C60.1367 398.315 58.7632 399.994 56.5264 399.078C54.4231 398.215 53.2403 396.483 53.3643 394.069C54.3897 391.798 55.997 390.509 58.6296 390.943C59.8696 390.438 60.2512 391.239 60.523 392.198H60.5183Z" fill="#5F9FB7"/>
<path d="M97.1647 412.639C94.2793 412.925 92.0663 411.899 90.6594 409.304C88.9663 407.929 89.3955 406.188 90.006 404.556C90.8025 402.423 92.4145 401.107 94.7181 400.773C97.4318 400.377 98.7672 401.03 99.6352 403.134C100.346 403.597 101.424 403.831 100.818 405.091C100.937 405.716 101.052 406.345 101.171 406.97C101.395 407.433 101.4 407.901 101.171 408.364C100.689 410.587 99.1153 411.785 97.1742 412.643L97.1647 412.639Z" fill="#5FA0B8"/>
<path d="M142.586 431.28C142.229 434.443 141.327 435.359 138.241 435.669C134.932 433.971 134.54 431.929 136.949 428.956C140.016 428.169 140.903 428.536 142.581 431.284L142.586 431.28Z" fill="#5F9FB7"/>
<path d="M158.264 437.029C156.719 437.205 155.365 436.871 154.363 435.578C154.186 434.652 153.838 433.751 154.277 432.787C154.849 431.532 155.794 430.592 157.129 430.578C158.693 430.559 159.681 431.709 160.353 433.049C161.016 434.371 160.334 435.33 159.395 436.17C159.042 436.485 158.641 436.742 158.259 437.029H158.264Z" fill="#5F9FB7"/>
<path d="M110.114 408.707C110.572 408.516 111.03 408.32 111.488 408.129C111.807 408.22 112.127 408.311 112.447 408.401C112.733 409.017 113.019 409.632 113.305 410.248C113.186 410.563 113.071 410.882 112.952 411.197C112.847 411.412 112.814 411.698 112.466 411.646C111.378 411.803 110.319 411.86 109.618 410.768C109.456 410.672 109.399 410.572 109.437 410.458C109.475 410.338 109.518 410.276 109.566 410.276C109.747 409.752 109.928 409.232 110.11 408.707H110.114Z" fill="#5D9BB2"/>
</g>
<defs>
<clipPath id="clip0_44_4135">
<rect width="348" height="537" fill="white"/>
</clipPath>
</defs>
</svg>
